%TF.GenerationSoftware,KiCad,Pcbnew,(6.0.5-0)*%
%TF.CreationDate,2023-03-14T08:16:03+01:00*%
%TF.ProjectId,plasma,706c6173-6d61-42e6-9b69-6361645f7063,rev?*%
%TF.SameCoordinates,Original*%
%TF.FileFunction,Soldermask,Top*%
%TF.FilePolarity,Negative*%
%FSLAX46Y46*%
G04 Gerber Fmt 4.6, Leading zero omitted, Abs format (unit mm)*
G04 Created by KiCad (PCBNEW (6.0.5-0)) date 2023-03-14 08:16:03*
%MOMM*%
%LPD*%
G01*
G04 APERTURE LIST*
%ADD10R,1.050000X1.500000*%
%ADD11O,1.050000X1.500000*%
%ADD12C,1.778000*%
%ADD13C,2.032000*%
%ADD14C,1.600000*%
%ADD15O,1.600000X1.600000*%
%ADD16R,2.000000X2.000000*%
%ADD17O,1.600000X2.000000*%
%ADD18R,1.700000X1.700000*%
%ADD19O,1.700000X1.700000*%
G04 APERTURE END LIST*
D10*
%TO.C,Q3*%
X197106000Y-66048000D03*
D11*
X198376000Y-66048000D03*
X199646000Y-66048000D03*
%TD*%
D12*
%TO.C,M1*%
X187360000Y-71445000D03*
X187360000Y-58745000D03*
D13*
X187360000Y-61285000D03*
D12*
X165770000Y-58745000D03*
D13*
X165770000Y-56205000D03*
D12*
X187360000Y-56205000D03*
X165770000Y-73985000D03*
%TD*%
D14*
%TO.C,R2*%
X162750000Y-72000000D03*
D15*
X162750000Y-79620000D03*
%TD*%
D14*
%TO.C,R17*%
X191250000Y-60750000D03*
D15*
X191250000Y-53130000D03*
%TD*%
D14*
%TO.C,R8*%
X203400000Y-70800000D03*
D15*
X211020000Y-70800000D03*
%TD*%
D14*
%TO.C,R1*%
X149440000Y-61500000D03*
D15*
X157060000Y-61500000D03*
%TD*%
D16*
%TO.C,U1*%
X135750000Y-55750000D03*
D17*
X133210000Y-55750000D03*
X130670000Y-55750000D03*
X128130000Y-55750000D03*
X125590000Y-55750000D03*
X123050000Y-55750000D03*
X120510000Y-55750000D03*
X117970000Y-55750000D03*
X117970000Y-78610000D03*
X120510000Y-78610000D03*
X123050000Y-78610000D03*
X125590000Y-78610000D03*
X128130000Y-78610000D03*
X130670000Y-78610000D03*
X133210000Y-78610000D03*
X135750000Y-78610000D03*
%TD*%
D14*
%TO.C,R12*%
X212190000Y-67000000D03*
D15*
X219810000Y-67000000D03*
%TD*%
D14*
%TO.C,D1*%
X213600000Y-77900000D03*
D15*
X221220000Y-77900000D03*
%TD*%
D10*
%TO.C,Q2*%
X197106000Y-60548000D03*
D11*
X198376000Y-60548000D03*
X199646000Y-60548000D03*
%TD*%
D14*
%TO.C,R3*%
X152000000Y-79250000D03*
D15*
X159620000Y-79250000D03*
%TD*%
D14*
%TO.C,R6*%
X149440000Y-54500000D03*
D15*
X157060000Y-54500000D03*
%TD*%
D14*
%TO.C,R4*%
X161500000Y-55000000D03*
D15*
X161500000Y-62620000D03*
%TD*%
D10*
%TO.C,Q5*%
X197130000Y-76800000D03*
D11*
X198400000Y-76800000D03*
X199670000Y-76800000D03*
%TD*%
D14*
%TO.C,R15*%
X212190000Y-64000000D03*
D15*
X219810000Y-64000000D03*
%TD*%
D10*
%TO.C,Q1*%
X197100000Y-55700000D03*
D11*
X198370000Y-55700000D03*
X199640000Y-55700000D03*
%TD*%
D14*
%TO.C,R11*%
X212190000Y-61000000D03*
D15*
X219810000Y-61000000D03*
%TD*%
D14*
%TO.C,R14*%
X212190000Y-58000000D03*
D15*
X219810000Y-58000000D03*
%TD*%
D10*
%TO.C,Q4*%
X197130000Y-71360000D03*
D11*
X198400000Y-71360000D03*
X199670000Y-71360000D03*
%TD*%
D14*
%TO.C,R5*%
X149500000Y-58250000D03*
D15*
X157120000Y-58250000D03*
%TD*%
D14*
%TO.C,R16*%
X213566000Y-74000000D03*
D15*
X221186000Y-74000000D03*
%TD*%
D18*
%TO.C,J1*%
X224750000Y-58250000D03*
D19*
X224750000Y-60790000D03*
X224750000Y-63330000D03*
X224750000Y-65870000D03*
X224750000Y-68410000D03*
X224750000Y-70950000D03*
X224750000Y-73490000D03*
X224750000Y-76030000D03*
%TD*%
D14*
%TO.C,R13*%
X203300000Y-74700000D03*
D15*
X210920000Y-74700000D03*
%TD*%
D10*
%TO.C,Q6*%
X205900000Y-64000000D03*
D11*
X207170000Y-64000000D03*
X208440000Y-64000000D03*
%TD*%
D14*
%TO.C,R10*%
X219826000Y-55000000D03*
D15*
X212206000Y-55000000D03*
%TD*%
D14*
%TO.C,R7*%
X202376000Y-55000000D03*
D15*
X209996000Y-55000000D03*
%TD*%
D14*
%TO.C,R9*%
X210900000Y-78800000D03*
D15*
X203280000Y-78800000D03*
%TD*%
M02*
