%TF.GenerationSoftware,KiCad,Pcbnew,(6.0.5-0)*%
%TF.CreationDate,2023-03-14T08:16:03+01:00*%
%TF.ProjectId,plasma,706c6173-6d61-42e6-9b69-6361645f7063,rev?*%
%TF.SameCoordinates,Original*%
%TF.FileFunction,Legend,Top*%
%TF.FilePolarity,Positive*%
%FSLAX46Y46*%
G04 Gerber Fmt 4.6, Leading zero omitted, Abs format (unit mm)*
G04 Created by KiCad (PCBNEW (6.0.5-0)) date 2023-03-14 08:16:03*
%MOMM*%
%LPD*%
G01*
G04 APERTURE LIST*
%ADD10C,0.150000*%
%ADD11C,0.300000*%
%ADD12C,0.120000*%
G04 APERTURE END LIST*
D10*
X120980952Y-71752380D02*
X120980952Y-72466666D01*
X120933333Y-72609523D01*
X120838095Y-72704761D01*
X120695238Y-72752380D01*
X120600000Y-72752380D01*
X121933333Y-72752380D02*
X121457142Y-72752380D01*
X121457142Y-71752380D01*
X122838095Y-72657142D02*
X122790476Y-72704761D01*
X122647619Y-72752380D01*
X122552380Y-72752380D01*
X122409523Y-72704761D01*
X122314285Y-72609523D01*
X122266666Y-72514285D01*
X122219047Y-72323809D01*
X122219047Y-72180952D01*
X122266666Y-71990476D01*
X122314285Y-71895238D01*
X122409523Y-71800000D01*
X122552380Y-71752380D01*
X122647619Y-71752380D01*
X122790476Y-71800000D01*
X122838095Y-71847619D01*
X123552380Y-71752380D02*
X123552380Y-72466666D01*
X123504761Y-72609523D01*
X123409523Y-72704761D01*
X123266666Y-72752380D01*
X123171428Y-72752380D01*
X124504761Y-72752380D02*
X124028571Y-72752380D01*
X124028571Y-71752380D01*
X125409523Y-72657142D02*
X125361904Y-72704761D01*
X125219047Y-72752380D01*
X125123809Y-72752380D01*
X124980952Y-72704761D01*
X124885714Y-72609523D01*
X124838095Y-72514285D01*
X124790476Y-72323809D01*
X124790476Y-72180952D01*
X124838095Y-71990476D01*
X124885714Y-71895238D01*
X124980952Y-71800000D01*
X125123809Y-71752380D01*
X125219047Y-71752380D01*
X125361904Y-71800000D01*
X125409523Y-71847619D01*
X126123809Y-71752380D02*
X126123809Y-72466666D01*
X126076190Y-72609523D01*
X125980952Y-72704761D01*
X125838095Y-72752380D01*
X125742857Y-72752380D01*
X127076190Y-72752380D02*
X126600000Y-72752380D01*
X126600000Y-71752380D01*
X127980952Y-72657142D02*
X127933333Y-72704761D01*
X127790476Y-72752380D01*
X127695238Y-72752380D01*
X127552380Y-72704761D01*
X127457142Y-72609523D01*
X127409523Y-72514285D01*
X127361904Y-72323809D01*
X127361904Y-72180952D01*
X127409523Y-71990476D01*
X127457142Y-71895238D01*
X127552380Y-71800000D01*
X127695238Y-71752380D01*
X127790476Y-71752380D01*
X127933333Y-71800000D01*
X127980952Y-71847619D01*
X128695238Y-71752380D02*
X128695238Y-72466666D01*
X128647619Y-72609523D01*
X128552380Y-72704761D01*
X128409523Y-72752380D01*
X128314285Y-72752380D01*
X129647619Y-72752380D02*
X129171428Y-72752380D01*
X129171428Y-71752380D01*
X130552380Y-72657142D02*
X130504761Y-72704761D01*
X130361904Y-72752380D01*
X130266666Y-72752380D01*
X130123809Y-72704761D01*
X130028571Y-72609523D01*
X129980952Y-72514285D01*
X129933333Y-72323809D01*
X129933333Y-72180952D01*
X129980952Y-71990476D01*
X130028571Y-71895238D01*
X130123809Y-71800000D01*
X130266666Y-71752380D01*
X130361904Y-71752380D01*
X130504761Y-71800000D01*
X130552380Y-71847619D01*
%TO.C,Q3*%
X195547619Y-66095238D02*
X195500000Y-66190476D01*
X195404761Y-66285714D01*
X195261904Y-66428571D01*
X195214285Y-66523809D01*
X195214285Y-66619047D01*
X195452380Y-66571428D02*
X195404761Y-66666666D01*
X195309523Y-66761904D01*
X195119047Y-66809523D01*
X194785714Y-66809523D01*
X194595238Y-66761904D01*
X194500000Y-66666666D01*
X194452380Y-66571428D01*
X194452380Y-66380952D01*
X194500000Y-66285714D01*
X194595238Y-66190476D01*
X194785714Y-66142857D01*
X195119047Y-66142857D01*
X195309523Y-66190476D01*
X195404761Y-66285714D01*
X195452380Y-66380952D01*
X195452380Y-66571428D01*
X194452380Y-65809523D02*
X194452380Y-65190476D01*
X194833333Y-65523809D01*
X194833333Y-65380952D01*
X194880952Y-65285714D01*
X194928571Y-65238095D01*
X195023809Y-65190476D01*
X195261904Y-65190476D01*
X195357142Y-65238095D01*
X195404761Y-65285714D01*
X195452380Y-65380952D01*
X195452380Y-65666666D01*
X195404761Y-65761904D01*
X195357142Y-65809523D01*
%TO.C,M1*%
X181073761Y-60785000D02*
X180978523Y-60737380D01*
X180835666Y-60737380D01*
X180692809Y-60785000D01*
X180597571Y-60880238D01*
X180549952Y-60975476D01*
X180502333Y-61165952D01*
X180502333Y-61308809D01*
X180549952Y-61499285D01*
X180597571Y-61594523D01*
X180692809Y-61689761D01*
X180835666Y-61737380D01*
X180930904Y-61737380D01*
X181073761Y-61689761D01*
X181121380Y-61642142D01*
X181121380Y-61308809D01*
X180930904Y-61308809D01*
X181549952Y-61737380D02*
X181549952Y-60737380D01*
X182121380Y-61737380D01*
X182121380Y-60737380D01*
X182597571Y-61737380D02*
X182597571Y-60737380D01*
X182835666Y-60737380D01*
X182978523Y-60785000D01*
X183073761Y-60880238D01*
X183121380Y-60975476D01*
X183169000Y-61165952D01*
X183169000Y-61308809D01*
X183121380Y-61499285D01*
X183073761Y-61594523D01*
X182978523Y-61689761D01*
X182835666Y-61737380D01*
X182597571Y-61737380D01*
X183359476Y-61832619D02*
X184121380Y-61832619D01*
X184359476Y-61737380D02*
X184359476Y-60737380D01*
X184359476Y-61213571D02*
X184930904Y-61213571D01*
X184930904Y-61737380D02*
X184930904Y-60737380D01*
X185264238Y-60737380D02*
X185597571Y-61737380D01*
X185930904Y-60737380D01*
X190783333Y-78547619D02*
X190830952Y-78500000D01*
X190926190Y-78452380D01*
X191164285Y-78452380D01*
X191259523Y-78500000D01*
X191307142Y-78547619D01*
X191354761Y-78642857D01*
X191354761Y-78738095D01*
X191307142Y-78880952D01*
X190735714Y-79452380D01*
X191354761Y-79452380D01*
X192259523Y-78452380D02*
X191783333Y-78452380D01*
X191735714Y-78928571D01*
X191783333Y-78880952D01*
X191878571Y-78833333D01*
X192116666Y-78833333D01*
X192211904Y-78880952D01*
X192259523Y-78928571D01*
X192307142Y-79023809D01*
X192307142Y-79261904D01*
X192259523Y-79357142D01*
X192211904Y-79404761D01*
X192116666Y-79452380D01*
X191878571Y-79452380D01*
X191783333Y-79404761D01*
X191735714Y-79357142D01*
X192926190Y-78452380D02*
X193021428Y-78452380D01*
X193116666Y-78500000D01*
X193164285Y-78547619D01*
X193211904Y-78642857D01*
X193259523Y-78833333D01*
X193259523Y-79071428D01*
X193211904Y-79261904D01*
X193164285Y-79357142D01*
X193116666Y-79404761D01*
X193021428Y-79452380D01*
X192926190Y-79452380D01*
X192830952Y-79404761D01*
X192783333Y-79357142D01*
X192735714Y-79261904D01*
X192688095Y-79071428D01*
X192688095Y-78833333D01*
X192735714Y-78642857D01*
X192783333Y-78547619D01*
X192830952Y-78500000D01*
X192926190Y-78452380D01*
X193545238Y-78452380D02*
X193878571Y-79452380D01*
X194211904Y-78452380D01*
X167413190Y-58197380D02*
X167746523Y-59197380D01*
X168079857Y-58197380D01*
X168413190Y-59197380D02*
X168413190Y-58530714D01*
X168413190Y-58197380D02*
X168365571Y-58245000D01*
X168413190Y-58292619D01*
X168460809Y-58245000D01*
X168413190Y-58197380D01*
X168413190Y-58292619D01*
X168889380Y-58530714D02*
X168889380Y-59197380D01*
X168889380Y-58625952D02*
X168937000Y-58578333D01*
X169032238Y-58530714D01*
X169175095Y-58530714D01*
X169270333Y-58578333D01*
X169317952Y-58673571D01*
X169317952Y-59197380D01*
X167572095Y-73913571D02*
X167905428Y-73913571D01*
X168048285Y-74437380D02*
X167572095Y-74437380D01*
X167572095Y-73437380D01*
X168048285Y-73437380D01*
X168476857Y-73770714D02*
X168476857Y-74437380D01*
X168476857Y-73865952D02*
X168524476Y-73818333D01*
X168619714Y-73770714D01*
X168762571Y-73770714D01*
X168857809Y-73818333D01*
X168905428Y-73913571D01*
X168905428Y-74437380D01*
X169810190Y-74437380D02*
X169810190Y-73913571D01*
X169762571Y-73818333D01*
X169667333Y-73770714D01*
X169476857Y-73770714D01*
X169381619Y-73818333D01*
X169810190Y-74389761D02*
X169714952Y-74437380D01*
X169476857Y-74437380D01*
X169381619Y-74389761D01*
X169334000Y-74294523D01*
X169334000Y-74199285D01*
X169381619Y-74104047D01*
X169476857Y-74056428D01*
X169714952Y-74056428D01*
X169810190Y-74008809D01*
X170286380Y-74437380D02*
X170286380Y-73437380D01*
X170286380Y-73818333D02*
X170381619Y-73770714D01*
X170572095Y-73770714D01*
X170667333Y-73818333D01*
X170714952Y-73865952D01*
X170762571Y-73961190D01*
X170762571Y-74246904D01*
X170714952Y-74342142D01*
X170667333Y-74389761D01*
X170572095Y-74437380D01*
X170381619Y-74437380D01*
X170286380Y-74389761D01*
X171334000Y-74437380D02*
X171238761Y-74389761D01*
X171191142Y-74294523D01*
X171191142Y-73437380D01*
X172095904Y-74389761D02*
X172000666Y-74437380D01*
X171810190Y-74437380D01*
X171714952Y-74389761D01*
X171667333Y-74294523D01*
X171667333Y-73913571D01*
X171714952Y-73818333D01*
X171810190Y-73770714D01*
X172000666Y-73770714D01*
X172095904Y-73818333D01*
X172143523Y-73913571D01*
X172143523Y-74008809D01*
X171667333Y-74104047D01*
X182661190Y-70770380D02*
X182994523Y-71770380D01*
X183327857Y-70770380D01*
X183804047Y-71770380D02*
X183708809Y-71722761D01*
X183661190Y-71675142D01*
X183613571Y-71579904D01*
X183613571Y-71294190D01*
X183661190Y-71198952D01*
X183708809Y-71151333D01*
X183804047Y-71103714D01*
X183946904Y-71103714D01*
X184042142Y-71151333D01*
X184089761Y-71198952D01*
X184137380Y-71294190D01*
X184137380Y-71579904D01*
X184089761Y-71675142D01*
X184042142Y-71722761D01*
X183946904Y-71770380D01*
X183804047Y-71770380D01*
X184994523Y-71103714D02*
X184994523Y-71770380D01*
X184565952Y-71103714D02*
X184565952Y-71627523D01*
X184613571Y-71722761D01*
X184708809Y-71770380D01*
X184851666Y-71770380D01*
X184946904Y-71722761D01*
X184994523Y-71675142D01*
X185327857Y-71103714D02*
X185708809Y-71103714D01*
X185470714Y-70770380D02*
X185470714Y-71627523D01*
X185518333Y-71722761D01*
X185613571Y-71770380D01*
X185708809Y-71770380D01*
X184018428Y-59038666D02*
X184494619Y-59038666D01*
X183923190Y-59324380D02*
X184256523Y-58324380D01*
X184589857Y-59324380D01*
X185351761Y-59324380D02*
X185351761Y-58324380D01*
X185351761Y-59276761D02*
X185256523Y-59324380D01*
X185066047Y-59324380D01*
X184970809Y-59276761D01*
X184923190Y-59229142D01*
X184875571Y-59133904D01*
X184875571Y-58848190D01*
X184923190Y-58752952D01*
X184970809Y-58705333D01*
X185066047Y-58657714D01*
X185256523Y-58657714D01*
X185351761Y-58705333D01*
X185827952Y-58657714D02*
X185827952Y-59514857D01*
X185780333Y-59610095D01*
X185685095Y-59657714D01*
X185637476Y-59657714D01*
X185827952Y-58324380D02*
X185780333Y-58372000D01*
X185827952Y-58419619D01*
X185875571Y-58372000D01*
X185827952Y-58324380D01*
X185827952Y-58419619D01*
X189783333Y-77702380D02*
X189783333Y-76702380D01*
X190021428Y-76702380D01*
X190164285Y-76750000D01*
X190259523Y-76845238D01*
X190307142Y-76940476D01*
X190354761Y-77130952D01*
X190354761Y-77273809D01*
X190307142Y-77464285D01*
X190259523Y-77559523D01*
X190164285Y-77654761D01*
X190021428Y-77702380D01*
X189783333Y-77702380D01*
X190735714Y-77416666D02*
X191211904Y-77416666D01*
X190640476Y-77702380D02*
X190973809Y-76702380D01*
X191307142Y-77702380D01*
X191640476Y-77702380D02*
X191640476Y-76702380D01*
X192211904Y-77702380D01*
X192211904Y-76702380D01*
X193211904Y-76750000D02*
X193116666Y-76702380D01*
X192973809Y-76702380D01*
X192830952Y-76750000D01*
X192735714Y-76845238D01*
X192688095Y-76940476D01*
X192640476Y-77130952D01*
X192640476Y-77273809D01*
X192688095Y-77464285D01*
X192735714Y-77559523D01*
X192830952Y-77654761D01*
X192973809Y-77702380D01*
X193069047Y-77702380D01*
X193211904Y-77654761D01*
X193259523Y-77607142D01*
X193259523Y-77273809D01*
X193069047Y-77273809D01*
X193688095Y-77178571D02*
X194021428Y-77178571D01*
X194164285Y-77702380D02*
X193688095Y-77702380D01*
X193688095Y-76702380D01*
X194164285Y-76702380D01*
X195164285Y-77702380D02*
X194830952Y-77226190D01*
X194592857Y-77702380D02*
X194592857Y-76702380D01*
X194973809Y-76702380D01*
X195069047Y-76750000D01*
X195116666Y-76797619D01*
X195164285Y-76892857D01*
X195164285Y-77035714D01*
X195116666Y-77130952D01*
X195069047Y-77178571D01*
X194973809Y-77226190D01*
X194592857Y-77226190D01*
X183542190Y-56133571D02*
X183685047Y-56181190D01*
X183732666Y-56228809D01*
X183780285Y-56324047D01*
X183780285Y-56466904D01*
X183732666Y-56562142D01*
X183685047Y-56609761D01*
X183589809Y-56657380D01*
X183208857Y-56657380D01*
X183208857Y-55657380D01*
X183542190Y-55657380D01*
X183637428Y-55705000D01*
X183685047Y-55752619D01*
X183732666Y-55847857D01*
X183732666Y-55943095D01*
X183685047Y-56038333D01*
X183637428Y-56085952D01*
X183542190Y-56133571D01*
X183208857Y-56133571D01*
X184208857Y-56657380D02*
X184208857Y-55990714D01*
X184208857Y-55657380D02*
X184161238Y-55705000D01*
X184208857Y-55752619D01*
X184256476Y-55705000D01*
X184208857Y-55657380D01*
X184208857Y-55752619D01*
X185113619Y-56657380D02*
X185113619Y-56133571D01*
X185066000Y-56038333D01*
X184970761Y-55990714D01*
X184780285Y-55990714D01*
X184685047Y-56038333D01*
X185113619Y-56609761D02*
X185018380Y-56657380D01*
X184780285Y-56657380D01*
X184685047Y-56609761D01*
X184637428Y-56514523D01*
X184637428Y-56419285D01*
X184685047Y-56324047D01*
X184780285Y-56276428D01*
X185018380Y-56276428D01*
X185113619Y-56228809D01*
X185542190Y-56609761D02*
X185637428Y-56657380D01*
X185827904Y-56657380D01*
X185923142Y-56609761D01*
X185970761Y-56514523D01*
X185970761Y-56466904D01*
X185923142Y-56371666D01*
X185827904Y-56324047D01*
X185685047Y-56324047D01*
X185589809Y-56276428D01*
X185542190Y-56181190D01*
X185542190Y-56133571D01*
X185589809Y-56038333D01*
X185685047Y-55990714D01*
X185827904Y-55990714D01*
X185923142Y-56038333D01*
X167929095Y-55705000D02*
X167833857Y-55657380D01*
X167691000Y-55657380D01*
X167548142Y-55705000D01*
X167452904Y-55800238D01*
X167405285Y-55895476D01*
X167357666Y-56085952D01*
X167357666Y-56228809D01*
X167405285Y-56419285D01*
X167452904Y-56514523D01*
X167548142Y-56609761D01*
X167691000Y-56657380D01*
X167786238Y-56657380D01*
X167929095Y-56609761D01*
X167976714Y-56562142D01*
X167976714Y-56228809D01*
X167786238Y-56228809D01*
X168405285Y-56657380D02*
X168405285Y-55657380D01*
X168976714Y-56657380D01*
X168976714Y-55657380D01*
X169452904Y-56657380D02*
X169452904Y-55657380D01*
X169691000Y-55657380D01*
X169833857Y-55705000D01*
X169929095Y-55800238D01*
X169976714Y-55895476D01*
X170024333Y-56085952D01*
X170024333Y-56228809D01*
X169976714Y-56419285D01*
X169929095Y-56514523D01*
X169833857Y-56609761D01*
X169691000Y-56657380D01*
X169452904Y-56657380D01*
D11*
X189785714Y-71800000D02*
X189690476Y-71895238D01*
X189595238Y-71800000D01*
X189690476Y-71704761D01*
X189785714Y-71800000D01*
X189595238Y-71800000D01*
X190357142Y-71800000D02*
X191500000Y-71704761D01*
X191595238Y-71800000D01*
X191500000Y-71895238D01*
X190357142Y-71800000D01*
X191595238Y-71800000D01*
D10*
%TO.C,R2*%
X163202380Y-69916666D02*
X162726190Y-70250000D01*
X163202380Y-70488095D02*
X162202380Y-70488095D01*
X162202380Y-70107142D01*
X162250000Y-70011904D01*
X162297619Y-69964285D01*
X162392857Y-69916666D01*
X162535714Y-69916666D01*
X162630952Y-69964285D01*
X162678571Y-70011904D01*
X162726190Y-70107142D01*
X162726190Y-70488095D01*
X162297619Y-69535714D02*
X162250000Y-69488095D01*
X162202380Y-69392857D01*
X162202380Y-69154761D01*
X162250000Y-69059523D01*
X162297619Y-69011904D01*
X162392857Y-68964285D01*
X162488095Y-68964285D01*
X162630952Y-69011904D01*
X163202380Y-69583333D01*
X163202380Y-68964285D01*
X162535714Y-76595714D02*
X163202380Y-76595714D01*
X162154761Y-76833809D02*
X162869047Y-77071904D01*
X162869047Y-76452857D01*
X162202380Y-76167142D02*
X162202380Y-75500476D01*
X163202380Y-75929047D01*
X163202380Y-75119523D02*
X162202380Y-75119523D01*
X163202380Y-74548095D02*
X162630952Y-74976666D01*
X162202380Y-74548095D02*
X162773809Y-75119523D01*
%TO.C,R17*%
X191702380Y-64142857D02*
X191226190Y-64476190D01*
X191702380Y-64714285D02*
X190702380Y-64714285D01*
X190702380Y-64333333D01*
X190750000Y-64238095D01*
X190797619Y-64190476D01*
X190892857Y-64142857D01*
X191035714Y-64142857D01*
X191130952Y-64190476D01*
X191178571Y-64238095D01*
X191226190Y-64333333D01*
X191226190Y-64714285D01*
X191702380Y-63190476D02*
X191702380Y-63761904D01*
X191702380Y-63476190D02*
X190702380Y-63476190D01*
X190845238Y-63571428D01*
X190940476Y-63666666D01*
X190988095Y-63761904D01*
X190702380Y-62857142D02*
X190702380Y-62190476D01*
X191702380Y-62619047D01*
X191852380Y-57606666D02*
X191852380Y-58178095D01*
X191852380Y-57892380D02*
X190852380Y-57892380D01*
X190995238Y-57987619D01*
X191090476Y-58082857D01*
X191138095Y-58178095D01*
X190852380Y-57273333D02*
X190852380Y-56654285D01*
X191233333Y-56987619D01*
X191233333Y-56844761D01*
X191280952Y-56749523D01*
X191328571Y-56701904D01*
X191423809Y-56654285D01*
X191661904Y-56654285D01*
X191757142Y-56701904D01*
X191804761Y-56749523D01*
X191852380Y-56844761D01*
X191852380Y-57130476D01*
X191804761Y-57225714D01*
X191757142Y-57273333D01*
X190852380Y-55749523D02*
X190852380Y-56225714D01*
X191328571Y-56273333D01*
X191280952Y-56225714D01*
X191233333Y-56130476D01*
X191233333Y-55892380D01*
X191280952Y-55797142D01*
X191328571Y-55749523D01*
X191423809Y-55701904D01*
X191661904Y-55701904D01*
X191757142Y-55749523D01*
X191804761Y-55797142D01*
X191852380Y-55892380D01*
X191852380Y-56130476D01*
X191804761Y-56225714D01*
X191757142Y-56273333D01*
%TO.C,R8*%
X206583333Y-69202380D02*
X206250000Y-68726190D01*
X206011904Y-69202380D02*
X206011904Y-68202380D01*
X206392857Y-68202380D01*
X206488095Y-68250000D01*
X206535714Y-68297619D01*
X206583333Y-68392857D01*
X206583333Y-68535714D01*
X206535714Y-68630952D01*
X206488095Y-68678571D01*
X206392857Y-68726190D01*
X206011904Y-68726190D01*
X207154761Y-68630952D02*
X207059523Y-68583333D01*
X207011904Y-68535714D01*
X206964285Y-68440476D01*
X206964285Y-68392857D01*
X207011904Y-68297619D01*
X207059523Y-68250000D01*
X207154761Y-68202380D01*
X207345238Y-68202380D01*
X207440476Y-68250000D01*
X207488095Y-68297619D01*
X207535714Y-68392857D01*
X207535714Y-68440476D01*
X207488095Y-68535714D01*
X207440476Y-68583333D01*
X207345238Y-68630952D01*
X207154761Y-68630952D01*
X207059523Y-68678571D01*
X207011904Y-68726190D01*
X206964285Y-68821428D01*
X206964285Y-69011904D01*
X207011904Y-69107142D01*
X207059523Y-69154761D01*
X207154761Y-69202380D01*
X207345238Y-69202380D01*
X207440476Y-69154761D01*
X207488095Y-69107142D01*
X207535714Y-69011904D01*
X207535714Y-68821428D01*
X207488095Y-68726190D01*
X207440476Y-68678571D01*
X207345238Y-68630952D01*
X205988095Y-70297619D02*
X206035714Y-70250000D01*
X206130952Y-70202380D01*
X206369047Y-70202380D01*
X206464285Y-70250000D01*
X206511904Y-70297619D01*
X206559523Y-70392857D01*
X206559523Y-70488095D01*
X206511904Y-70630952D01*
X205940476Y-71202380D01*
X206559523Y-71202380D01*
X207416666Y-70535714D02*
X207416666Y-71202380D01*
X207178571Y-70154761D02*
X206940476Y-70869047D01*
X207559523Y-70869047D01*
X207940476Y-71202380D02*
X207940476Y-70202380D01*
X208511904Y-71202380D02*
X208083333Y-70630952D01*
X208511904Y-70202380D02*
X207940476Y-70773809D01*
%TO.C,R1*%
X146523333Y-61702380D02*
X146190000Y-61226190D01*
X145951904Y-61702380D02*
X145951904Y-60702380D01*
X146332857Y-60702380D01*
X146428095Y-60750000D01*
X146475714Y-60797619D01*
X146523333Y-60892857D01*
X146523333Y-61035714D01*
X146475714Y-61130952D01*
X146428095Y-61178571D01*
X146332857Y-61226190D01*
X145951904Y-61226190D01*
X147475714Y-61702380D02*
X146904285Y-61702380D01*
X147190000Y-61702380D02*
X147190000Y-60702380D01*
X147094761Y-60845238D01*
X146999523Y-60940476D01*
X146904285Y-60988095D01*
X152464285Y-61285714D02*
X152464285Y-61952380D01*
X152226190Y-60904761D02*
X151988095Y-61619047D01*
X152607142Y-61619047D01*
X152892857Y-60952380D02*
X153559523Y-60952380D01*
X153130952Y-61952380D01*
X153940476Y-61952380D02*
X153940476Y-60952380D01*
X154511904Y-61952380D02*
X154083333Y-61380952D01*
X154511904Y-60952380D02*
X153940476Y-61523809D01*
%TO.C,U1*%
X108202380Y-78511904D02*
X109011904Y-78511904D01*
X109107142Y-78464285D01*
X109154761Y-78416666D01*
X109202380Y-78321428D01*
X109202380Y-78130952D01*
X109154761Y-78035714D01*
X109107142Y-77988095D01*
X109011904Y-77940476D01*
X108202380Y-77940476D01*
X109202380Y-76940476D02*
X109202380Y-77511904D01*
X109202380Y-77226190D02*
X108202380Y-77226190D01*
X108345238Y-77321428D01*
X108440476Y-77416666D01*
X108488095Y-77511904D01*
%TO.C,R12*%
X221607142Y-67452380D02*
X221273809Y-66976190D01*
X221035714Y-67452380D02*
X221035714Y-66452380D01*
X221416666Y-66452380D01*
X221511904Y-66500000D01*
X221559523Y-66547619D01*
X221607142Y-66642857D01*
X221607142Y-66785714D01*
X221559523Y-66880952D01*
X221511904Y-66928571D01*
X221416666Y-66976190D01*
X221035714Y-66976190D01*
X222559523Y-67452380D02*
X221988095Y-67452380D01*
X222273809Y-67452380D02*
X222273809Y-66452380D01*
X222178571Y-66595238D01*
X222083333Y-66690476D01*
X221988095Y-66738095D01*
X222940476Y-66547619D02*
X222988095Y-66500000D01*
X223083333Y-66452380D01*
X223321428Y-66452380D01*
X223416666Y-66500000D01*
X223464285Y-66547619D01*
X223511904Y-66642857D01*
X223511904Y-66738095D01*
X223464285Y-66880952D01*
X222892857Y-67452380D01*
X223511904Y-67452380D01*
X215714285Y-67452380D02*
X215142857Y-67452380D01*
X215428571Y-67452380D02*
X215428571Y-66452380D01*
X215333333Y-66595238D01*
X215238095Y-66690476D01*
X215142857Y-66738095D01*
X216142857Y-67452380D02*
X216142857Y-66452380D01*
X216476190Y-67166666D01*
X216809523Y-66452380D01*
X216809523Y-67452380D01*
%TO.C,D1*%
X216761904Y-80452380D02*
X216761904Y-79452380D01*
X217000000Y-79452380D01*
X217142857Y-79500000D01*
X217238095Y-79595238D01*
X217285714Y-79690476D01*
X217333333Y-79880952D01*
X217333333Y-80023809D01*
X217285714Y-80214285D01*
X217238095Y-80309523D01*
X217142857Y-80404761D01*
X217000000Y-80452380D01*
X216761904Y-80452380D01*
X218285714Y-80452380D02*
X217714285Y-80452380D01*
X218000000Y-80452380D02*
X218000000Y-79452380D01*
X217904761Y-79595238D01*
X217809523Y-79690476D01*
X217714285Y-79738095D01*
%TO.C,Q2*%
X195621619Y-60643238D02*
X195574000Y-60738476D01*
X195478761Y-60833714D01*
X195335904Y-60976571D01*
X195288285Y-61071809D01*
X195288285Y-61167047D01*
X195526380Y-61119428D02*
X195478761Y-61214666D01*
X195383523Y-61309904D01*
X195193047Y-61357523D01*
X194859714Y-61357523D01*
X194669238Y-61309904D01*
X194574000Y-61214666D01*
X194526380Y-61119428D01*
X194526380Y-60928952D01*
X194574000Y-60833714D01*
X194669238Y-60738476D01*
X194859714Y-60690857D01*
X195193047Y-60690857D01*
X195383523Y-60738476D01*
X195478761Y-60833714D01*
X195526380Y-60928952D01*
X195526380Y-61119428D01*
X194621619Y-60309904D02*
X194574000Y-60262285D01*
X194526380Y-60167047D01*
X194526380Y-59928952D01*
X194574000Y-59833714D01*
X194621619Y-59786095D01*
X194716857Y-59738476D01*
X194812095Y-59738476D01*
X194954952Y-59786095D01*
X195526380Y-60357523D01*
X195526380Y-59738476D01*
%TO.C,R3*%
X148833333Y-79752380D02*
X148500000Y-79276190D01*
X148261904Y-79752380D02*
X148261904Y-78752380D01*
X148642857Y-78752380D01*
X148738095Y-78800000D01*
X148785714Y-78847619D01*
X148833333Y-78942857D01*
X148833333Y-79085714D01*
X148785714Y-79180952D01*
X148738095Y-79228571D01*
X148642857Y-79276190D01*
X148261904Y-79276190D01*
X149166666Y-78752380D02*
X149785714Y-78752380D01*
X149452380Y-79133333D01*
X149595238Y-79133333D01*
X149690476Y-79180952D01*
X149738095Y-79228571D01*
X149785714Y-79323809D01*
X149785714Y-79561904D01*
X149738095Y-79657142D01*
X149690476Y-79704761D01*
X149595238Y-79752380D01*
X149309523Y-79752380D01*
X149214285Y-79704761D01*
X149166666Y-79657142D01*
X155024285Y-79035714D02*
X155024285Y-79702380D01*
X154786190Y-78654761D02*
X154548095Y-79369047D01*
X155167142Y-79369047D01*
X155452857Y-78702380D02*
X156119523Y-78702380D01*
X155690952Y-79702380D01*
X156500476Y-79702380D02*
X156500476Y-78702380D01*
X157071904Y-79702380D02*
X156643333Y-79130952D01*
X157071904Y-78702380D02*
X156500476Y-79273809D01*
%TO.C,R6*%
X146723333Y-54952380D02*
X146390000Y-54476190D01*
X146151904Y-54952380D02*
X146151904Y-53952380D01*
X146532857Y-53952380D01*
X146628095Y-54000000D01*
X146675714Y-54047619D01*
X146723333Y-54142857D01*
X146723333Y-54285714D01*
X146675714Y-54380952D01*
X146628095Y-54428571D01*
X146532857Y-54476190D01*
X146151904Y-54476190D01*
X147580476Y-53952380D02*
X147390000Y-53952380D01*
X147294761Y-54000000D01*
X147247142Y-54047619D01*
X147151904Y-54190476D01*
X147104285Y-54380952D01*
X147104285Y-54761904D01*
X147151904Y-54857142D01*
X147199523Y-54904761D01*
X147294761Y-54952380D01*
X147485238Y-54952380D01*
X147580476Y-54904761D01*
X147628095Y-54857142D01*
X147675714Y-54761904D01*
X147675714Y-54523809D01*
X147628095Y-54428571D01*
X147580476Y-54380952D01*
X147485238Y-54333333D01*
X147294761Y-54333333D01*
X147199523Y-54380952D01*
X147151904Y-54428571D01*
X147104285Y-54523809D01*
X152464285Y-54285714D02*
X152464285Y-54952380D01*
X152226190Y-53904761D02*
X151988095Y-54619047D01*
X152607142Y-54619047D01*
X152892857Y-53952380D02*
X153559523Y-53952380D01*
X153130952Y-54952380D01*
X153940476Y-54952380D02*
X153940476Y-53952380D01*
X154511904Y-54952380D02*
X154083333Y-54380952D01*
X154511904Y-53952380D02*
X153940476Y-54523809D01*
%TO.C,R4*%
X162052380Y-52616666D02*
X161576190Y-52950000D01*
X162052380Y-53188095D02*
X161052380Y-53188095D01*
X161052380Y-52807142D01*
X161100000Y-52711904D01*
X161147619Y-52664285D01*
X161242857Y-52616666D01*
X161385714Y-52616666D01*
X161480952Y-52664285D01*
X161528571Y-52711904D01*
X161576190Y-52807142D01*
X161576190Y-53188095D01*
X161385714Y-51759523D02*
X162052380Y-51759523D01*
X161004761Y-51997619D02*
X161719047Y-52235714D01*
X161719047Y-51616666D01*
X161135714Y-59735714D02*
X161802380Y-59735714D01*
X160754761Y-59973809D02*
X161469047Y-60211904D01*
X161469047Y-59592857D01*
X160802380Y-59307142D02*
X160802380Y-58640476D01*
X161802380Y-59069047D01*
X161802380Y-58259523D02*
X160802380Y-58259523D01*
X161802380Y-57688095D02*
X161230952Y-58116666D01*
X160802380Y-57688095D02*
X161373809Y-58259523D01*
%TO.C,Q5*%
X198404761Y-80547619D02*
X198309523Y-80500000D01*
X198214285Y-80404761D01*
X198071428Y-80261904D01*
X197976190Y-80214285D01*
X197880952Y-80214285D01*
X197928571Y-80452380D02*
X197833333Y-80404761D01*
X197738095Y-80309523D01*
X197690476Y-80119047D01*
X197690476Y-79785714D01*
X197738095Y-79595238D01*
X197833333Y-79500000D01*
X197928571Y-79452380D01*
X198119047Y-79452380D01*
X198214285Y-79500000D01*
X198309523Y-79595238D01*
X198357142Y-79785714D01*
X198357142Y-80119047D01*
X198309523Y-80309523D01*
X198214285Y-80404761D01*
X198119047Y-80452380D01*
X197928571Y-80452380D01*
X199261904Y-79452380D02*
X198785714Y-79452380D01*
X198738095Y-79928571D01*
X198785714Y-79880952D01*
X198880952Y-79833333D01*
X199119047Y-79833333D01*
X199214285Y-79880952D01*
X199261904Y-79928571D01*
X199309523Y-80023809D01*
X199309523Y-80261904D01*
X199261904Y-80357142D01*
X199214285Y-80404761D01*
X199119047Y-80452380D01*
X198880952Y-80452380D01*
X198785714Y-80404761D01*
X198738095Y-80357142D01*
%TO.C,R15*%
X221607142Y-64452380D02*
X221273809Y-63976190D01*
X221035714Y-64452380D02*
X221035714Y-63452380D01*
X221416666Y-63452380D01*
X221511904Y-63500000D01*
X221559523Y-63547619D01*
X221607142Y-63642857D01*
X221607142Y-63785714D01*
X221559523Y-63880952D01*
X221511904Y-63928571D01*
X221416666Y-63976190D01*
X221035714Y-63976190D01*
X222559523Y-64452380D02*
X221988095Y-64452380D01*
X222273809Y-64452380D02*
X222273809Y-63452380D01*
X222178571Y-63595238D01*
X222083333Y-63690476D01*
X221988095Y-63738095D01*
X223464285Y-63452380D02*
X222988095Y-63452380D01*
X222940476Y-63928571D01*
X222988095Y-63880952D01*
X223083333Y-63833333D01*
X223321428Y-63833333D01*
X223416666Y-63880952D01*
X223464285Y-63928571D01*
X223511904Y-64023809D01*
X223511904Y-64261904D01*
X223464285Y-64357142D01*
X223416666Y-64404761D01*
X223321428Y-64452380D01*
X223083333Y-64452380D01*
X222988095Y-64404761D01*
X222940476Y-64357142D01*
X214833333Y-64452380D02*
X214261904Y-64452380D01*
X214547619Y-64452380D02*
X214547619Y-63452380D01*
X214452380Y-63595238D01*
X214357142Y-63690476D01*
X214261904Y-63738095D01*
X215452380Y-63452380D02*
X215547619Y-63452380D01*
X215642857Y-63500000D01*
X215690476Y-63547619D01*
X215738095Y-63642857D01*
X215785714Y-63833333D01*
X215785714Y-64071428D01*
X215738095Y-64261904D01*
X215690476Y-64357142D01*
X215642857Y-64404761D01*
X215547619Y-64452380D01*
X215452380Y-64452380D01*
X215357142Y-64404761D01*
X215309523Y-64357142D01*
X215261904Y-64261904D01*
X215214285Y-64071428D01*
X215214285Y-63833333D01*
X215261904Y-63642857D01*
X215309523Y-63547619D01*
X215357142Y-63500000D01*
X215452380Y-63452380D01*
X216404761Y-63452380D02*
X216500000Y-63452380D01*
X216595238Y-63500000D01*
X216642857Y-63547619D01*
X216690476Y-63642857D01*
X216738095Y-63833333D01*
X216738095Y-64071428D01*
X216690476Y-64261904D01*
X216642857Y-64357142D01*
X216595238Y-64404761D01*
X216500000Y-64452380D01*
X216404761Y-64452380D01*
X216309523Y-64404761D01*
X216261904Y-64357142D01*
X216214285Y-64261904D01*
X216166666Y-64071428D01*
X216166666Y-63833333D01*
X216214285Y-63642857D01*
X216261904Y-63547619D01*
X216309523Y-63500000D01*
X216404761Y-63452380D01*
X217166666Y-64452380D02*
X217166666Y-63452380D01*
X217738095Y-64452380D02*
X217309523Y-63880952D01*
X217738095Y-63452380D02*
X217166666Y-64023809D01*
%TO.C,Q1*%
X195547619Y-55795238D02*
X195500000Y-55890476D01*
X195404761Y-55985714D01*
X195261904Y-56128571D01*
X195214285Y-56223809D01*
X195214285Y-56319047D01*
X195452380Y-56271428D02*
X195404761Y-56366666D01*
X195309523Y-56461904D01*
X195119047Y-56509523D01*
X194785714Y-56509523D01*
X194595238Y-56461904D01*
X194500000Y-56366666D01*
X194452380Y-56271428D01*
X194452380Y-56080952D01*
X194500000Y-55985714D01*
X194595238Y-55890476D01*
X194785714Y-55842857D01*
X195119047Y-55842857D01*
X195309523Y-55890476D01*
X195404761Y-55985714D01*
X195452380Y-56080952D01*
X195452380Y-56271428D01*
X195452380Y-54890476D02*
X195452380Y-55461904D01*
X195452380Y-55176190D02*
X194452380Y-55176190D01*
X194595238Y-55271428D01*
X194690476Y-55366666D01*
X194738095Y-55461904D01*
%TO.C,R11*%
X221607142Y-61452380D02*
X221273809Y-60976190D01*
X221035714Y-61452380D02*
X221035714Y-60452380D01*
X221416666Y-60452380D01*
X221511904Y-60500000D01*
X221559523Y-60547619D01*
X221607142Y-60642857D01*
X221607142Y-60785714D01*
X221559523Y-60880952D01*
X221511904Y-60928571D01*
X221416666Y-60976190D01*
X221035714Y-60976190D01*
X222559523Y-61452380D02*
X221988095Y-61452380D01*
X222273809Y-61452380D02*
X222273809Y-60452380D01*
X222178571Y-60595238D01*
X222083333Y-60690476D01*
X221988095Y-60738095D01*
X223511904Y-61452380D02*
X222940476Y-61452380D01*
X223226190Y-61452380D02*
X223226190Y-60452380D01*
X223130952Y-60595238D01*
X223035714Y-60690476D01*
X222940476Y-60738095D01*
X214833333Y-61452380D02*
X214261904Y-61452380D01*
X214547619Y-61452380D02*
X214547619Y-60452380D01*
X214452380Y-60595238D01*
X214357142Y-60690476D01*
X214261904Y-60738095D01*
X215452380Y-60452380D02*
X215547619Y-60452380D01*
X215642857Y-60500000D01*
X215690476Y-60547619D01*
X215738095Y-60642857D01*
X215785714Y-60833333D01*
X215785714Y-61071428D01*
X215738095Y-61261904D01*
X215690476Y-61357142D01*
X215642857Y-61404761D01*
X215547619Y-61452380D01*
X215452380Y-61452380D01*
X215357142Y-61404761D01*
X215309523Y-61357142D01*
X215261904Y-61261904D01*
X215214285Y-61071428D01*
X215214285Y-60833333D01*
X215261904Y-60642857D01*
X215309523Y-60547619D01*
X215357142Y-60500000D01*
X215452380Y-60452380D01*
X216404761Y-60452380D02*
X216500000Y-60452380D01*
X216595238Y-60500000D01*
X216642857Y-60547619D01*
X216690476Y-60642857D01*
X216738095Y-60833333D01*
X216738095Y-61071428D01*
X216690476Y-61261904D01*
X216642857Y-61357142D01*
X216595238Y-61404761D01*
X216500000Y-61452380D01*
X216404761Y-61452380D01*
X216309523Y-61404761D01*
X216261904Y-61357142D01*
X216214285Y-61261904D01*
X216166666Y-61071428D01*
X216166666Y-60833333D01*
X216214285Y-60642857D01*
X216261904Y-60547619D01*
X216309523Y-60500000D01*
X216404761Y-60452380D01*
X217166666Y-61452380D02*
X217166666Y-60452380D01*
X217738095Y-61452380D02*
X217309523Y-60880952D01*
X217738095Y-60452380D02*
X217166666Y-61023809D01*
%TO.C,R14*%
X221457142Y-58452380D02*
X221123809Y-57976190D01*
X220885714Y-58452380D02*
X220885714Y-57452380D01*
X221266666Y-57452380D01*
X221361904Y-57500000D01*
X221409523Y-57547619D01*
X221457142Y-57642857D01*
X221457142Y-57785714D01*
X221409523Y-57880952D01*
X221361904Y-57928571D01*
X221266666Y-57976190D01*
X220885714Y-57976190D01*
X222409523Y-58452380D02*
X221838095Y-58452380D01*
X222123809Y-58452380D02*
X222123809Y-57452380D01*
X222028571Y-57595238D01*
X221933333Y-57690476D01*
X221838095Y-57738095D01*
X223266666Y-57785714D02*
X223266666Y-58452380D01*
X223028571Y-57404761D02*
X222790476Y-58119047D01*
X223409523Y-58119047D01*
X214833333Y-58452380D02*
X214261904Y-58452380D01*
X214547619Y-58452380D02*
X214547619Y-57452380D01*
X214452380Y-57595238D01*
X214357142Y-57690476D01*
X214261904Y-57738095D01*
X215452380Y-57452380D02*
X215547619Y-57452380D01*
X215642857Y-57500000D01*
X215690476Y-57547619D01*
X215738095Y-57642857D01*
X215785714Y-57833333D01*
X215785714Y-58071428D01*
X215738095Y-58261904D01*
X215690476Y-58357142D01*
X215642857Y-58404761D01*
X215547619Y-58452380D01*
X215452380Y-58452380D01*
X215357142Y-58404761D01*
X215309523Y-58357142D01*
X215261904Y-58261904D01*
X215214285Y-58071428D01*
X215214285Y-57833333D01*
X215261904Y-57642857D01*
X215309523Y-57547619D01*
X215357142Y-57500000D01*
X215452380Y-57452380D01*
X216404761Y-57452380D02*
X216500000Y-57452380D01*
X216595238Y-57500000D01*
X216642857Y-57547619D01*
X216690476Y-57642857D01*
X216738095Y-57833333D01*
X216738095Y-58071428D01*
X216690476Y-58261904D01*
X216642857Y-58357142D01*
X216595238Y-58404761D01*
X216500000Y-58452380D01*
X216404761Y-58452380D01*
X216309523Y-58404761D01*
X216261904Y-58357142D01*
X216214285Y-58261904D01*
X216166666Y-58071428D01*
X216166666Y-57833333D01*
X216214285Y-57642857D01*
X216261904Y-57547619D01*
X216309523Y-57500000D01*
X216404761Y-57452380D01*
X217166666Y-58452380D02*
X217166666Y-57452380D01*
X217738095Y-58452380D02*
X217309523Y-57880952D01*
X217738095Y-57452380D02*
X217166666Y-58023809D01*
%TO.C,Q4*%
X195447619Y-71495238D02*
X195400000Y-71590476D01*
X195304761Y-71685714D01*
X195161904Y-71828571D01*
X195114285Y-71923809D01*
X195114285Y-72019047D01*
X195352380Y-71971428D02*
X195304761Y-72066666D01*
X195209523Y-72161904D01*
X195019047Y-72209523D01*
X194685714Y-72209523D01*
X194495238Y-72161904D01*
X194400000Y-72066666D01*
X194352380Y-71971428D01*
X194352380Y-71780952D01*
X194400000Y-71685714D01*
X194495238Y-71590476D01*
X194685714Y-71542857D01*
X195019047Y-71542857D01*
X195209523Y-71590476D01*
X195304761Y-71685714D01*
X195352380Y-71780952D01*
X195352380Y-71971428D01*
X194685714Y-70685714D02*
X195352380Y-70685714D01*
X194304761Y-70923809D02*
X195019047Y-71161904D01*
X195019047Y-70542857D01*
%TO.C,R5*%
X146583333Y-58702380D02*
X146250000Y-58226190D01*
X146011904Y-58702380D02*
X146011904Y-57702380D01*
X146392857Y-57702380D01*
X146488095Y-57750000D01*
X146535714Y-57797619D01*
X146583333Y-57892857D01*
X146583333Y-58035714D01*
X146535714Y-58130952D01*
X146488095Y-58178571D01*
X146392857Y-58226190D01*
X146011904Y-58226190D01*
X147488095Y-57702380D02*
X147011904Y-57702380D01*
X146964285Y-58178571D01*
X147011904Y-58130952D01*
X147107142Y-58083333D01*
X147345238Y-58083333D01*
X147440476Y-58130952D01*
X147488095Y-58178571D01*
X147535714Y-58273809D01*
X147535714Y-58511904D01*
X147488095Y-58607142D01*
X147440476Y-58654761D01*
X147345238Y-58702380D01*
X147107142Y-58702380D01*
X147011904Y-58654761D01*
X146964285Y-58607142D01*
X152524285Y-58035714D02*
X152524285Y-58702380D01*
X152286190Y-57654761D02*
X152048095Y-58369047D01*
X152667142Y-58369047D01*
X152952857Y-57702380D02*
X153619523Y-57702380D01*
X153190952Y-58702380D01*
X154000476Y-58702380D02*
X154000476Y-57702380D01*
X154571904Y-58702380D02*
X154143333Y-58130952D01*
X154571904Y-57702380D02*
X154000476Y-58273809D01*
%TO.C,R16*%
X216607142Y-72202380D02*
X216273809Y-71726190D01*
X216035714Y-72202380D02*
X216035714Y-71202380D01*
X216416666Y-71202380D01*
X216511904Y-71250000D01*
X216559523Y-71297619D01*
X216607142Y-71392857D01*
X216607142Y-71535714D01*
X216559523Y-71630952D01*
X216511904Y-71678571D01*
X216416666Y-71726190D01*
X216035714Y-71726190D01*
X217559523Y-72202380D02*
X216988095Y-72202380D01*
X217273809Y-72202380D02*
X217273809Y-71202380D01*
X217178571Y-71345238D01*
X217083333Y-71440476D01*
X216988095Y-71488095D01*
X218416666Y-71202380D02*
X218226190Y-71202380D01*
X218130952Y-71250000D01*
X218083333Y-71297619D01*
X217988095Y-71440476D01*
X217940476Y-71630952D01*
X217940476Y-72011904D01*
X217988095Y-72107142D01*
X218035714Y-72154761D01*
X218130952Y-72202380D01*
X218321428Y-72202380D01*
X218416666Y-72154761D01*
X218464285Y-72107142D01*
X218511904Y-72011904D01*
X218511904Y-71773809D01*
X218464285Y-71678571D01*
X218416666Y-71630952D01*
X218321428Y-71583333D01*
X218130952Y-71583333D01*
X218035714Y-71630952D01*
X217988095Y-71678571D01*
X217940476Y-71773809D01*
X216333333Y-74452380D02*
X215761904Y-74452380D01*
X216047619Y-74452380D02*
X216047619Y-73452380D01*
X215952380Y-73595238D01*
X215857142Y-73690476D01*
X215761904Y-73738095D01*
X216952380Y-73452380D02*
X217047619Y-73452380D01*
X217142857Y-73500000D01*
X217190476Y-73547619D01*
X217238095Y-73642857D01*
X217285714Y-73833333D01*
X217285714Y-74071428D01*
X217238095Y-74261904D01*
X217190476Y-74357142D01*
X217142857Y-74404761D01*
X217047619Y-74452380D01*
X216952380Y-74452380D01*
X216857142Y-74404761D01*
X216809523Y-74357142D01*
X216761904Y-74261904D01*
X216714285Y-74071428D01*
X216714285Y-73833333D01*
X216761904Y-73642857D01*
X216809523Y-73547619D01*
X216857142Y-73500000D01*
X216952380Y-73452380D01*
X217904761Y-73452380D02*
X218000000Y-73452380D01*
X218095238Y-73500000D01*
X218142857Y-73547619D01*
X218190476Y-73642857D01*
X218238095Y-73833333D01*
X218238095Y-74071428D01*
X218190476Y-74261904D01*
X218142857Y-74357142D01*
X218095238Y-74404761D01*
X218000000Y-74452380D01*
X217904761Y-74452380D01*
X217809523Y-74404761D01*
X217761904Y-74357142D01*
X217714285Y-74261904D01*
X217666666Y-74071428D01*
X217666666Y-73833333D01*
X217714285Y-73642857D01*
X217761904Y-73547619D01*
X217809523Y-73500000D01*
X217904761Y-73452380D01*
X218666666Y-74452380D02*
X218666666Y-73452380D01*
X219238095Y-74452380D02*
X218809523Y-73880952D01*
X219238095Y-73452380D02*
X218666666Y-74023809D01*
%TO.C,R13*%
X206467142Y-73202380D02*
X206133809Y-72726190D01*
X205895714Y-73202380D02*
X205895714Y-72202380D01*
X206276666Y-72202380D01*
X206371904Y-72250000D01*
X206419523Y-72297619D01*
X206467142Y-72392857D01*
X206467142Y-72535714D01*
X206419523Y-72630952D01*
X206371904Y-72678571D01*
X206276666Y-72726190D01*
X205895714Y-72726190D01*
X207419523Y-73202380D02*
X206848095Y-73202380D01*
X207133809Y-73202380D02*
X207133809Y-72202380D01*
X207038571Y-72345238D01*
X206943333Y-72440476D01*
X206848095Y-72488095D01*
X207752857Y-72202380D02*
X208371904Y-72202380D01*
X208038571Y-72583333D01*
X208181428Y-72583333D01*
X208276666Y-72630952D01*
X208324285Y-72678571D01*
X208371904Y-72773809D01*
X208371904Y-73011904D01*
X208324285Y-73107142D01*
X208276666Y-73154761D01*
X208181428Y-73202380D01*
X207895714Y-73202380D01*
X207800476Y-73154761D01*
X207752857Y-73107142D01*
X205940476Y-74202380D02*
X206559523Y-74202380D01*
X206226190Y-74583333D01*
X206369047Y-74583333D01*
X206464285Y-74630952D01*
X206511904Y-74678571D01*
X206559523Y-74773809D01*
X206559523Y-75011904D01*
X206511904Y-75107142D01*
X206464285Y-75154761D01*
X206369047Y-75202380D01*
X206083333Y-75202380D01*
X205988095Y-75154761D01*
X205940476Y-75107142D01*
X207416666Y-74202380D02*
X207226190Y-74202380D01*
X207130952Y-74250000D01*
X207083333Y-74297619D01*
X206988095Y-74440476D01*
X206940476Y-74630952D01*
X206940476Y-75011904D01*
X206988095Y-75107142D01*
X207035714Y-75154761D01*
X207130952Y-75202380D01*
X207321428Y-75202380D01*
X207416666Y-75154761D01*
X207464285Y-75107142D01*
X207511904Y-75011904D01*
X207511904Y-74773809D01*
X207464285Y-74678571D01*
X207416666Y-74630952D01*
X207321428Y-74583333D01*
X207130952Y-74583333D01*
X207035714Y-74630952D01*
X206988095Y-74678571D01*
X206940476Y-74773809D01*
X207940476Y-75202380D02*
X207940476Y-74202380D01*
X208511904Y-75202380D02*
X208083333Y-74630952D01*
X208511904Y-74202380D02*
X207940476Y-74773809D01*
%TO.C,Q6*%
X206904761Y-61047619D02*
X206809523Y-61000000D01*
X206714285Y-60904761D01*
X206571428Y-60761904D01*
X206476190Y-60714285D01*
X206380952Y-60714285D01*
X206428571Y-60952380D02*
X206333333Y-60904761D01*
X206238095Y-60809523D01*
X206190476Y-60619047D01*
X206190476Y-60285714D01*
X206238095Y-60095238D01*
X206333333Y-60000000D01*
X206428571Y-59952380D01*
X206619047Y-59952380D01*
X206714285Y-60000000D01*
X206809523Y-60095238D01*
X206857142Y-60285714D01*
X206857142Y-60619047D01*
X206809523Y-60809523D01*
X206714285Y-60904761D01*
X206619047Y-60952380D01*
X206428571Y-60952380D01*
X207714285Y-59952380D02*
X207523809Y-59952380D01*
X207428571Y-60000000D01*
X207380952Y-60047619D01*
X207285714Y-60190476D01*
X207238095Y-60380952D01*
X207238095Y-60761904D01*
X207285714Y-60857142D01*
X207333333Y-60904761D01*
X207428571Y-60952380D01*
X207619047Y-60952380D01*
X207714285Y-60904761D01*
X207761904Y-60857142D01*
X207809523Y-60761904D01*
X207809523Y-60523809D01*
X207761904Y-60428571D01*
X207714285Y-60380952D01*
X207619047Y-60333333D01*
X207428571Y-60333333D01*
X207333333Y-60380952D01*
X207285714Y-60428571D01*
X207238095Y-60523809D01*
%TO.C,R10*%
X221607142Y-55452380D02*
X221273809Y-54976190D01*
X221035714Y-55452380D02*
X221035714Y-54452380D01*
X221416666Y-54452380D01*
X221511904Y-54500000D01*
X221559523Y-54547619D01*
X221607142Y-54642857D01*
X221607142Y-54785714D01*
X221559523Y-54880952D01*
X221511904Y-54928571D01*
X221416666Y-54976190D01*
X221035714Y-54976190D01*
X222559523Y-55452380D02*
X221988095Y-55452380D01*
X222273809Y-55452380D02*
X222273809Y-54452380D01*
X222178571Y-54595238D01*
X222083333Y-54690476D01*
X221988095Y-54738095D01*
X223178571Y-54452380D02*
X223273809Y-54452380D01*
X223369047Y-54500000D01*
X223416666Y-54547619D01*
X223464285Y-54642857D01*
X223511904Y-54833333D01*
X223511904Y-55071428D01*
X223464285Y-55261904D01*
X223416666Y-55357142D01*
X223369047Y-55404761D01*
X223273809Y-55452380D01*
X223178571Y-55452380D01*
X223083333Y-55404761D01*
X223035714Y-55357142D01*
X222988095Y-55261904D01*
X222940476Y-55071428D01*
X222940476Y-54833333D01*
X222988095Y-54642857D01*
X223035714Y-54547619D01*
X223083333Y-54500000D01*
X223178571Y-54452380D01*
X214706476Y-54452380D02*
X215325523Y-54452380D01*
X214992190Y-54833333D01*
X215135047Y-54833333D01*
X215230285Y-54880952D01*
X215277904Y-54928571D01*
X215325523Y-55023809D01*
X215325523Y-55261904D01*
X215277904Y-55357142D01*
X215230285Y-55404761D01*
X215135047Y-55452380D01*
X214849333Y-55452380D01*
X214754095Y-55404761D01*
X214706476Y-55357142D01*
X216182666Y-54452380D02*
X215992190Y-54452380D01*
X215896952Y-54500000D01*
X215849333Y-54547619D01*
X215754095Y-54690476D01*
X215706476Y-54880952D01*
X215706476Y-55261904D01*
X215754095Y-55357142D01*
X215801714Y-55404761D01*
X215896952Y-55452380D01*
X216087428Y-55452380D01*
X216182666Y-55404761D01*
X216230285Y-55357142D01*
X216277904Y-55261904D01*
X216277904Y-55023809D01*
X216230285Y-54928571D01*
X216182666Y-54880952D01*
X216087428Y-54833333D01*
X215896952Y-54833333D01*
X215801714Y-54880952D01*
X215754095Y-54928571D01*
X215706476Y-55023809D01*
X216706476Y-55452380D02*
X216706476Y-54452380D01*
X217277904Y-55452380D02*
X216849333Y-54880952D01*
X217277904Y-54452380D02*
X216706476Y-55023809D01*
%TO.C,R7*%
X206019333Y-53228380D02*
X205686000Y-52752190D01*
X205447904Y-53228380D02*
X205447904Y-52228380D01*
X205828857Y-52228380D01*
X205924095Y-52276000D01*
X205971714Y-52323619D01*
X206019333Y-52418857D01*
X206019333Y-52561714D01*
X205971714Y-52656952D01*
X205924095Y-52704571D01*
X205828857Y-52752190D01*
X205447904Y-52752190D01*
X206352666Y-52228380D02*
X207019333Y-52228380D01*
X206590761Y-53228380D01*
X204988095Y-54547619D02*
X205035714Y-54500000D01*
X205130952Y-54452380D01*
X205369047Y-54452380D01*
X205464285Y-54500000D01*
X205511904Y-54547619D01*
X205559523Y-54642857D01*
X205559523Y-54738095D01*
X205511904Y-54880952D01*
X204940476Y-55452380D01*
X205559523Y-55452380D01*
X206416666Y-54785714D02*
X206416666Y-55452380D01*
X206178571Y-54404761D02*
X205940476Y-55119047D01*
X206559523Y-55119047D01*
X206940476Y-55452380D02*
X206940476Y-54452380D01*
X207511904Y-55452380D02*
X207083333Y-54880952D01*
X207511904Y-54452380D02*
X206940476Y-55023809D01*
%TO.C,R9*%
X206583333Y-77202380D02*
X206250000Y-76726190D01*
X206011904Y-77202380D02*
X206011904Y-76202380D01*
X206392857Y-76202380D01*
X206488095Y-76250000D01*
X206535714Y-76297619D01*
X206583333Y-76392857D01*
X206583333Y-76535714D01*
X206535714Y-76630952D01*
X206488095Y-76678571D01*
X206392857Y-76726190D01*
X206011904Y-76726190D01*
X207059523Y-77202380D02*
X207250000Y-77202380D01*
X207345238Y-77154761D01*
X207392857Y-77107142D01*
X207488095Y-76964285D01*
X207535714Y-76773809D01*
X207535714Y-76392857D01*
X207488095Y-76297619D01*
X207440476Y-76250000D01*
X207345238Y-76202380D01*
X207154761Y-76202380D01*
X207059523Y-76250000D01*
X207011904Y-76297619D01*
X206964285Y-76392857D01*
X206964285Y-76630952D01*
X207011904Y-76726190D01*
X207059523Y-76773809D01*
X207154761Y-76821428D01*
X207345238Y-76821428D01*
X207440476Y-76773809D01*
X207488095Y-76726190D01*
X207535714Y-76630952D01*
X205940476Y-78202380D02*
X206559523Y-78202380D01*
X206226190Y-78583333D01*
X206369047Y-78583333D01*
X206464285Y-78630952D01*
X206511904Y-78678571D01*
X206559523Y-78773809D01*
X206559523Y-79011904D01*
X206511904Y-79107142D01*
X206464285Y-79154761D01*
X206369047Y-79202380D01*
X206083333Y-79202380D01*
X205988095Y-79154761D01*
X205940476Y-79107142D01*
X206892857Y-78202380D02*
X207511904Y-78202380D01*
X207178571Y-78583333D01*
X207321428Y-78583333D01*
X207416666Y-78630952D01*
X207464285Y-78678571D01*
X207511904Y-78773809D01*
X207511904Y-79011904D01*
X207464285Y-79107142D01*
X207416666Y-79154761D01*
X207321428Y-79202380D01*
X207035714Y-79202380D01*
X206940476Y-79154761D01*
X206892857Y-79107142D01*
X207940476Y-79202380D02*
X207940476Y-78202380D01*
X208511904Y-79202380D02*
X208083333Y-78630952D01*
X208511904Y-78202380D02*
X207940476Y-78773809D01*
D12*
%TO.C,Q3*%
X196576000Y-67898000D02*
X200176000Y-67898000D01*
X200214478Y-67886478D02*
G75*
G03*
X198376000Y-63448000I-1838478J1838478D01*
G01*
X198376000Y-63447999D02*
G75*
G03*
X196537522Y-67886478I0J-2600001D01*
G01*
%TO.C,M1*%
X190500000Y-74300000D02*
X189500000Y-75300000D01*
X189500000Y-75300000D02*
X189500000Y-74300000D01*
X190500000Y-69300000D02*
X191500000Y-70300000D01*
X189500000Y-68300000D02*
X190500000Y-69300000D01*
X192500000Y-73300000D02*
X191500000Y-74300000D01*
X191500000Y-74300000D02*
X191500000Y-73300000D01*
X191500000Y-73300000D02*
X190500000Y-74300000D01*
X190500000Y-75300000D02*
X189500000Y-75300000D01*
X189500000Y-68300000D02*
X190500000Y-68300000D01*
X189500000Y-68300000D02*
X189500000Y-69300000D01*
X189000000Y-74300000D02*
X193000000Y-71800000D01*
X189000000Y-69300000D02*
X189000000Y-74300000D01*
X193000000Y-71800000D02*
X189000000Y-69300000D01*
X191500000Y-70300000D02*
X191500000Y-69300000D01*
X191500000Y-69300000D02*
X192500000Y-70300000D01*
X164500000Y-54300000D02*
X188630000Y-54300000D01*
X188630000Y-54300000D02*
X188630000Y-78430000D01*
X188630000Y-78430000D02*
X164500000Y-78430000D01*
X164500000Y-78430000D02*
X164500000Y-54300000D01*
%TO.C,R2*%
X164120000Y-79080000D02*
X163790000Y-79080000D01*
X161380000Y-79080000D02*
X161710000Y-79080000D01*
X164120000Y-72540000D02*
X164120000Y-79080000D01*
X161710000Y-72540000D02*
X161380000Y-72540000D01*
X161380000Y-72540000D02*
X161380000Y-79080000D01*
X163790000Y-72540000D02*
X164120000Y-72540000D01*
%TO.C,R17*%
X192620000Y-53670000D02*
X192290000Y-53670000D01*
X189880000Y-53670000D02*
X190210000Y-53670000D01*
X192620000Y-60210000D02*
X192620000Y-53670000D01*
X192290000Y-60210000D02*
X192620000Y-60210000D01*
X190210000Y-60210000D02*
X189880000Y-60210000D01*
X189880000Y-60210000D02*
X189880000Y-53670000D01*
%TO.C,R8*%
X203940000Y-72170000D02*
X210480000Y-72170000D01*
X203940000Y-69430000D02*
X210480000Y-69430000D01*
X210480000Y-72170000D02*
X210480000Y-71840000D01*
X210480000Y-69430000D02*
X210480000Y-69760000D01*
X203940000Y-71840000D02*
X203940000Y-72170000D01*
X203940000Y-69760000D02*
X203940000Y-69430000D01*
%TO.C,R1*%
X156520000Y-62870000D02*
X156520000Y-62540000D01*
X149980000Y-62540000D02*
X149980000Y-62870000D01*
X149980000Y-60460000D02*
X149980000Y-60130000D01*
X149980000Y-60130000D02*
X156520000Y-60130000D01*
X156520000Y-60130000D02*
X156520000Y-60460000D01*
X149980000Y-62870000D02*
X156520000Y-62870000D01*
%TO.C,U1*%
X109630000Y-80110000D02*
X141960000Y-80110000D01*
X144090000Y-77990000D02*
X144090000Y-56380000D01*
X116530000Y-56790000D02*
X109630000Y-56790000D01*
X109630000Y-56790000D02*
X109630000Y-80110000D01*
X116530000Y-54250000D02*
X116530000Y-56790000D01*
X116530000Y-54250000D02*
X141960000Y-54250000D01*
X144090000Y-56380000D02*
G75*
G03*
X141960000Y-54250000I-2130002J-2D01*
G01*
X141960000Y-80110000D02*
G75*
G03*
X144090000Y-77980000I0J2130000D01*
G01*
G36*
X135750000Y-53845000D02*
G01*
X135115000Y-53210000D01*
X136385000Y-53210000D01*
X135750000Y-53845000D01*
G37*
D10*
X135750000Y-53845000D02*
X135115000Y-53210000D01*
X136385000Y-53210000D01*
X135750000Y-53845000D01*
D12*
%TO.C,R12*%
X219270000Y-65630000D02*
X219270000Y-65960000D01*
X219270000Y-68370000D02*
X219270000Y-68040000D01*
X212730000Y-68040000D02*
X212730000Y-68370000D01*
X212730000Y-65960000D02*
X212730000Y-65630000D01*
X212730000Y-68370000D02*
X219270000Y-68370000D01*
X212730000Y-65630000D02*
X219270000Y-65630000D01*
%TO.C,D1*%
X214140000Y-76860000D02*
X214140000Y-76530000D01*
X214140000Y-76530000D02*
X220680000Y-76530000D01*
X220680000Y-76530000D02*
X220680000Y-76860000D01*
X214140000Y-78940000D02*
X214140000Y-79270000D01*
X214140000Y-79270000D02*
X220680000Y-79270000D01*
X220680000Y-79270000D02*
X220680000Y-78940000D01*
%TO.C,Q2*%
X196576000Y-62398000D02*
X200176000Y-62398000D01*
X200214478Y-62386478D02*
G75*
G03*
X198376000Y-57948000I-1838478J1838478D01*
G01*
X198376000Y-57947999D02*
G75*
G03*
X196537522Y-62386478I0J-2600001D01*
G01*
%TO.C,R3*%
X159080000Y-77880000D02*
X159080000Y-78210000D01*
X152540000Y-80620000D02*
X159080000Y-80620000D01*
X152540000Y-80290000D02*
X152540000Y-80620000D01*
X159080000Y-80620000D02*
X159080000Y-80290000D01*
X152540000Y-77880000D02*
X159080000Y-77880000D01*
X152540000Y-78210000D02*
X152540000Y-77880000D01*
%TO.C,R6*%
X156520000Y-53130000D02*
X156520000Y-53460000D01*
X149980000Y-55540000D02*
X149980000Y-55870000D01*
X156520000Y-55870000D02*
X156520000Y-55540000D01*
X149980000Y-53130000D02*
X156520000Y-53130000D01*
X149980000Y-55870000D02*
X156520000Y-55870000D01*
X149980000Y-53460000D02*
X149980000Y-53130000D01*
%TO.C,R4*%
X162870000Y-55540000D02*
X162870000Y-62080000D01*
X160130000Y-55540000D02*
X160130000Y-62080000D01*
X162540000Y-55540000D02*
X162870000Y-55540000D01*
X162870000Y-62080000D02*
X162540000Y-62080000D01*
X160460000Y-55540000D02*
X160130000Y-55540000D01*
X160130000Y-62080000D02*
X160460000Y-62080000D01*
%TO.C,Q5*%
X196600000Y-78650000D02*
X200200000Y-78650000D01*
X200238478Y-78638478D02*
G75*
G03*
X198400000Y-74200000I-1838478J1838478D01*
G01*
X198400000Y-74199999D02*
G75*
G03*
X196561522Y-78638478I0J-2600001D01*
G01*
%TO.C,R15*%
X219270000Y-62630000D02*
X219270000Y-62960000D01*
X219270000Y-65370000D02*
X219270000Y-65040000D01*
X212730000Y-62630000D02*
X219270000Y-62630000D01*
X212730000Y-65040000D02*
X212730000Y-65370000D01*
X212730000Y-65370000D02*
X219270000Y-65370000D01*
X212730000Y-62960000D02*
X212730000Y-62630000D01*
%TO.C,Q1*%
X196570000Y-57550000D02*
X200170000Y-57550000D01*
X198370000Y-53099999D02*
G75*
G03*
X196531522Y-57538478I0J-2600001D01*
G01*
X200208478Y-57538478D02*
G75*
G03*
X198370000Y-53100000I-1838478J1838478D01*
G01*
%TO.C,R11*%
X212730000Y-62370000D02*
X219270000Y-62370000D01*
X212730000Y-62040000D02*
X212730000Y-62370000D01*
X212730000Y-59960000D02*
X212730000Y-59630000D01*
X212730000Y-59630000D02*
X219270000Y-59630000D01*
X219270000Y-62370000D02*
X219270000Y-62040000D01*
X219270000Y-59630000D02*
X219270000Y-59960000D01*
%TO.C,R14*%
X219270000Y-56630000D02*
X219270000Y-56960000D01*
X212730000Y-59370000D02*
X219270000Y-59370000D01*
X219270000Y-59370000D02*
X219270000Y-59040000D01*
X212730000Y-59040000D02*
X212730000Y-59370000D01*
X212730000Y-56630000D02*
X219270000Y-56630000D01*
X212730000Y-56960000D02*
X212730000Y-56630000D01*
%TO.C,Q4*%
X196600000Y-73210000D02*
X200200000Y-73210000D01*
X200238478Y-73198478D02*
G75*
G03*
X198400000Y-68760000I-1838478J1838478D01*
G01*
X198400000Y-68759999D02*
G75*
G03*
X196561522Y-73198478I0J-2600001D01*
G01*
%TO.C,R5*%
X150040000Y-57210000D02*
X150040000Y-56880000D01*
X150040000Y-56880000D02*
X156580000Y-56880000D01*
X156580000Y-56880000D02*
X156580000Y-57210000D01*
X150040000Y-59290000D02*
X150040000Y-59620000D01*
X156580000Y-59620000D02*
X156580000Y-59290000D01*
X150040000Y-59620000D02*
X156580000Y-59620000D01*
%TO.C,R16*%
X214106000Y-72630000D02*
X220646000Y-72630000D01*
X220646000Y-75370000D02*
X220646000Y-75040000D01*
X214106000Y-72960000D02*
X214106000Y-72630000D01*
X220646000Y-72630000D02*
X220646000Y-72960000D01*
X214106000Y-75370000D02*
X220646000Y-75370000D01*
X214106000Y-75040000D02*
X214106000Y-75370000D01*
%TO.C,J1*%
X225792929Y-66250000D02*
X226190000Y-66250000D01*
X228850000Y-56920000D02*
X226190000Y-56920000D01*
X225860000Y-58630000D02*
X226190000Y-58630000D01*
X228850000Y-60410000D02*
X234850000Y-60410000D01*
X225792929Y-71330000D02*
X226190000Y-71330000D01*
X228850000Y-58290000D02*
X234850000Y-58290000D01*
X226190000Y-74760000D02*
X228850000Y-74760000D01*
X226190000Y-77360000D02*
X228850000Y-77360000D01*
X226190000Y-62060000D02*
X228850000Y-62060000D01*
X225860000Y-57870000D02*
X226190000Y-57870000D01*
X223480000Y-58250000D02*
X223480000Y-56980000D01*
X225792929Y-61170000D02*
X226190000Y-61170000D01*
X225792929Y-73110000D02*
X226190000Y-73110000D01*
X226190000Y-56920000D02*
X226190000Y-77360000D01*
X234850000Y-62950000D02*
X234850000Y-63710000D01*
X225792929Y-73870000D02*
X226190000Y-73870000D01*
X226190000Y-67140000D02*
X228850000Y-67140000D01*
X234850000Y-71330000D02*
X228850000Y-71330000D01*
X234850000Y-57870000D02*
X234850000Y-58630000D01*
X228850000Y-70570000D02*
X234850000Y-70570000D01*
X226190000Y-72220000D02*
X228850000Y-72220000D01*
X234850000Y-63710000D02*
X228850000Y-63710000D01*
X234850000Y-75650000D02*
X234850000Y-76410000D01*
X234850000Y-73870000D02*
X228850000Y-73870000D01*
X228850000Y-68030000D02*
X234850000Y-68030000D01*
X225792929Y-70570000D02*
X226190000Y-70570000D01*
X225792929Y-62950000D02*
X226190000Y-62950000D01*
X226190000Y-69680000D02*
X228850000Y-69680000D01*
X228850000Y-62950000D02*
X234850000Y-62950000D01*
X225792929Y-68790000D02*
X226190000Y-68790000D01*
X228850000Y-57930000D02*
X234850000Y-57930000D01*
X226190000Y-64600000D02*
X228850000Y-64600000D01*
X234850000Y-68790000D02*
X228850000Y-68790000D01*
X225792929Y-68030000D02*
X226190000Y-68030000D01*
X225792929Y-76410000D02*
X226190000Y-76410000D01*
X223480000Y-56980000D02*
X224750000Y-56980000D01*
X228850000Y-58050000D02*
X234850000Y-58050000D01*
X228850000Y-58170000D02*
X234850000Y-58170000D01*
X225792929Y-65490000D02*
X226190000Y-65490000D01*
X228850000Y-77360000D02*
X228850000Y-56920000D01*
X234850000Y-70570000D02*
X234850000Y-71330000D01*
X234850000Y-65490000D02*
X234850000Y-66250000D01*
X225792929Y-75650000D02*
X226190000Y-75650000D01*
X228850000Y-73110000D02*
X234850000Y-73110000D01*
X228850000Y-57870000D02*
X234850000Y-57870000D01*
X228850000Y-58530000D02*
X234850000Y-58530000D01*
X228850000Y-75650000D02*
X234850000Y-75650000D01*
X225792929Y-63710000D02*
X226190000Y-63710000D01*
X234850000Y-61170000D02*
X228850000Y-61170000D01*
X228850000Y-65490000D02*
X234850000Y-65490000D01*
X234850000Y-68030000D02*
X234850000Y-68790000D01*
X234850000Y-58630000D02*
X228850000Y-58630000D01*
X234850000Y-76410000D02*
X228850000Y-76410000D01*
X225792929Y-60410000D02*
X226190000Y-60410000D01*
X234850000Y-60410000D02*
X234850000Y-61170000D01*
X228850000Y-58410000D02*
X234850000Y-58410000D01*
X226190000Y-59520000D02*
X228850000Y-59520000D01*
X234850000Y-73110000D02*
X234850000Y-73870000D01*
X234850000Y-66250000D02*
X228850000Y-66250000D01*
%TO.C,R13*%
X210380000Y-76070000D02*
X210380000Y-75740000D01*
X203840000Y-73330000D02*
X210380000Y-73330000D01*
X203840000Y-75740000D02*
X203840000Y-76070000D01*
X203840000Y-73660000D02*
X203840000Y-73330000D01*
X210380000Y-73330000D02*
X210380000Y-73660000D01*
X203840000Y-76070000D02*
X210380000Y-76070000D01*
%TO.C,Q6*%
X205370000Y-65850000D02*
X208970000Y-65850000D01*
X207170000Y-61399999D02*
G75*
G03*
X205331522Y-65838478I0J-2600001D01*
G01*
X209008478Y-65838478D02*
G75*
G03*
X207170000Y-61400000I-1838478J1838478D01*
G01*
%TO.C,R10*%
X212746000Y-56370000D02*
X212746000Y-56040000D01*
X219286000Y-53630000D02*
X212746000Y-53630000D01*
X219286000Y-56040000D02*
X219286000Y-56370000D01*
X219286000Y-56370000D02*
X212746000Y-56370000D01*
X219286000Y-53960000D02*
X219286000Y-53630000D01*
X212746000Y-53630000D02*
X212746000Y-53960000D01*
%TO.C,R7*%
X202916000Y-53960000D02*
X202916000Y-53630000D01*
X209456000Y-56370000D02*
X209456000Y-56040000D01*
X202916000Y-56370000D02*
X209456000Y-56370000D01*
X202916000Y-56040000D02*
X202916000Y-56370000D01*
X202916000Y-53630000D02*
X209456000Y-53630000D01*
X209456000Y-53630000D02*
X209456000Y-53960000D01*
%TO.C,R9*%
X203820000Y-77430000D02*
X203820000Y-77760000D01*
X210360000Y-77760000D02*
X210360000Y-77430000D01*
X210360000Y-79840000D02*
X210360000Y-80170000D01*
X210360000Y-77430000D02*
X203820000Y-77430000D01*
X210360000Y-80170000D02*
X203820000Y-80170000D01*
X203820000Y-80170000D02*
X203820000Y-79840000D01*
%TD*%
M02*
