M48
INCH
T1C0.0295
T2C0.0315
T3C0.0394
T4C0.0420
%
G90
G05
T1
X7.7598Y-2.1929
X7.7601Y-2.3838
X7.7601Y-2.6003
X7.761Y-2.8094
X7.761Y-3.0236
X7.8098Y-2.1929
X7.8101Y-2.3838
X7.8101Y-2.6003
X7.811Y-2.8094
X7.811Y-3.0236
X7.8598Y-2.1929
X7.8601Y-2.3838
X7.8601Y-2.6003
X7.861Y-2.8094
X7.861Y-3.0236
X8.1063Y-2.5197
X8.1563Y-2.5197
X8.2063Y-2.5197
T2
X5.8835Y-2.1457
X5.8835Y-2.4213
X5.8858Y-2.2933
X5.9843Y-3.1201
X6.1835Y-2.1457
X6.1835Y-2.4213
X6.1858Y-2.2933
X6.2843Y-3.1201
X6.3583Y-2.1654
X6.3583Y-2.4654
X6.4075Y-2.8346
X6.4075Y-3.1346
X7.5295Y-2.0917
X7.5295Y-2.3917
X7.9676Y-2.1654
X8.0031Y-3.1024
X8.0039Y-2.9409
X8.0079Y-2.7874
X8.2676Y-2.1654
X8.3031Y-3.1024
X8.3039Y-2.9409
X8.3079Y-2.7874
X8.3539Y-2.2835
X8.3539Y-2.4016
X8.3539Y-2.5197
X8.3539Y-2.6378
X8.3546Y-2.1654
X8.4081Y-2.9134
X8.4094Y-3.0669
X8.6539Y-2.2835
X8.6539Y-2.4016
X8.6539Y-2.5197
X8.6539Y-2.6378
X8.6546Y-2.1654
X8.7081Y-2.9134
X8.7094Y-3.0669
T3
X4.6445Y-2.1949
X4.6445Y-3.0949
X4.7445Y-2.1949
X4.7445Y-3.0949
X4.8445Y-2.1949
X4.8445Y-3.0949
X4.9445Y-2.1949
X4.9445Y-3.0949
X5.0445Y-2.1949
X5.0445Y-3.0949
X5.1445Y-2.1949
X5.1445Y-3.0949
X5.2445Y-2.1949
X5.2445Y-3.0949
X5.3445Y-2.1949
X5.3445Y-3.0949
X8.8484Y-2.2933
X8.8484Y-2.3933
X8.8484Y-2.4933
X8.8484Y-2.5933
X8.8484Y-2.6933
X8.8484Y-2.7933
X8.8484Y-2.8933
X8.8484Y-2.9933
T4
X6.5264Y-2.2128
X6.5264Y-2.3128
X6.5264Y-2.9128
X7.3764Y-2.2128
X7.3764Y-2.3128
X7.3764Y-2.4128
X7.3764Y-2.8128
T0
M30
