%TF.GenerationSoftware,KiCad,Pcbnew,(6.0.5-0)*%
%TF.CreationDate,2023-03-13T13:52:06+01:00*%
%TF.ProjectId,plasma,706c6173-6d61-42e6-9b69-6361645f7063,rev?*%
%TF.SameCoordinates,Original*%
%TF.FileFunction,Copper,L2,Bot*%
%TF.FilePolarity,Positive*%
%FSLAX46Y46*%
G04 Gerber Fmt 4.6, Leading zero omitted, Abs format (unit mm)*
G04 Created by KiCad (PCBNEW (6.0.5-0)) date 2023-03-13 13:52:06*
%MOMM*%
%LPD*%
G01*
G04 APERTURE LIST*
%TA.AperFunction,ComponentPad*%
%ADD10R,1.050000X1.500000*%
%TD*%
%TA.AperFunction,ComponentPad*%
%ADD11O,1.050000X1.500000*%
%TD*%
%TA.AperFunction,ComponentPad*%
%ADD12C,1.778000*%
%TD*%
%TA.AperFunction,ComponentPad*%
%ADD13C,2.032000*%
%TD*%
%TA.AperFunction,ComponentPad*%
%ADD14C,1.600000*%
%TD*%
%TA.AperFunction,ComponentPad*%
%ADD15O,1.600000X1.600000*%
%TD*%
%TA.AperFunction,ComponentPad*%
%ADD16R,2.000000X2.000000*%
%TD*%
%TA.AperFunction,ComponentPad*%
%ADD17O,1.600000X2.000000*%
%TD*%
%TA.AperFunction,ComponentPad*%
%ADD18R,1.700000X1.700000*%
%TD*%
%TA.AperFunction,ComponentPad*%
%ADD19O,1.700000X1.700000*%
%TD*%
%TA.AperFunction,Conductor*%
%ADD20C,0.500000*%
%TD*%
%TA.AperFunction,Conductor*%
%ADD21C,0.750000*%
%TD*%
%TA.AperFunction,Conductor*%
%ADD22C,1.000000*%
%TD*%
G04 APERTURE END LIST*
D10*
%TO.P,Q3,1,E*%
%TO.N,GND*%
X197106000Y-66048000D03*
D11*
%TO.P,Q3,2,B*%
%TO.N,Net-(Q3-Pad2)*%
X198376000Y-66048000D03*
%TO.P,Q3,3,C*%
%TO.N,/Reset_Cathode*%
X199646000Y-66048000D03*
%TD*%
D12*
%TO.P,M1,1,HV_OUT*%
%TO.N,VSS*%
X187360000Y-71445000D03*
%TO.P,M1,2,ADJ*%
%TO.N,Net-(M1-Pad2)*%
X187360000Y-58745000D03*
D13*
%TO.P,M1,3,GND_HV*%
%TO.N,GND*%
X187360000Y-61285000D03*
D12*
%TO.P,M1,4,Vin*%
%TO.N,+5V*%
X165770000Y-58745000D03*
D13*
%TO.P,M1,5,GND_LV*%
%TO.N,GND*%
X165770000Y-56205000D03*
D12*
%TO.P,M1,6,Bias*%
%TO.N,unconnected-(M1-Pad6)*%
X187360000Y-56205000D03*
%TO.P,M1,7,Enable*%
%TO.N,+5V*%
X165770000Y-73985000D03*
%TD*%
D14*
%TO.P,R2,1*%
%TO.N,/P2*%
X162750000Y-72000000D03*
D15*
%TO.P,R2,2*%
%TO.N,Net-(Q5-Pad2)*%
X162750000Y-79620000D03*
%TD*%
D14*
%TO.P,R17,1*%
%TO.N,Net-(M1-Pad2)*%
X191250000Y-60750000D03*
D15*
%TO.P,R17,2*%
%TO.N,GND*%
X191250000Y-53130000D03*
%TD*%
D14*
%TO.P,R8,1*%
%TO.N,Net-(Q1-Pad3)*%
X203400000Y-70800000D03*
D15*
%TO.P,R8,2*%
%TO.N,/Channel2_Anode*%
X211020000Y-70800000D03*
%TD*%
D14*
%TO.P,R1,1*%
%TO.N,/P1*%
X149440000Y-61500000D03*
D15*
%TO.P,R1,2*%
%TO.N,Net-(Q6-Pad2)*%
X157060000Y-61500000D03*
%TD*%
D16*
%TO.P,U1,1,~{RST}*%
%TO.N,unconnected-(U1-Pad1)*%
X135750000Y-55750000D03*
D17*
%TO.P,U1,2,A0*%
%TO.N,unconnected-(U1-Pad2)*%
X133210000Y-55750000D03*
%TO.P,U1,3,D0*%
%TO.N,/RESET*%
X130670000Y-55750000D03*
%TO.P,U1,4,SCK/D5*%
%TO.N,unconnected-(U1-Pad4)*%
X128130000Y-55750000D03*
%TO.P,U1,5,MISO/D6*%
%TO.N,unconnected-(U1-Pad5)*%
X125590000Y-55750000D03*
%TO.P,U1,6,MOSI/D7*%
%TO.N,/A1*%
X123050000Y-55750000D03*
%TO.P,U1,7,CS/D8*%
%TO.N,/A2*%
X120510000Y-55750000D03*
%TO.P,U1,8,3V3*%
%TO.N,unconnected-(U1-Pad8)*%
X117970000Y-55750000D03*
%TO.P,U1,9,5V*%
%TO.N,+5V*%
X117970000Y-78610000D03*
%TO.P,U1,10,GND*%
%TO.N,GND*%
X120510000Y-78610000D03*
%TO.P,U1,11,D4*%
%TO.N,unconnected-(U1-Pad11)*%
X123050000Y-78610000D03*
%TO.P,U1,12,D3*%
%TO.N,/P3*%
X125590000Y-78610000D03*
%TO.P,U1,13,SDA/D2*%
%TO.N,/P2*%
X128130000Y-78610000D03*
%TO.P,U1,14,SCL/D1*%
%TO.N,/P1*%
X130670000Y-78610000D03*
%TO.P,U1,15,RX*%
%TO.N,unconnected-(U1-Pad15)*%
X133210000Y-78610000D03*
%TO.P,U1,16,TX*%
%TO.N,unconnected-(U1-Pad16)*%
X135750000Y-78610000D03*
%TD*%
D14*
%TO.P,R12,1*%
%TO.N,VSS*%
X212190000Y-67000000D03*
D15*
%TO.P,R12,2*%
%TO.N,/Keepalive_Anode*%
X219810000Y-67000000D03*
%TD*%
D14*
%TO.P,D1,1,K*%
%TO.N,Net-(D1-Pad1)*%
X213600000Y-77900000D03*
D15*
%TO.P,D1,2,A*%
%TO.N,GND*%
X221220000Y-77900000D03*
%TD*%
D10*
%TO.P,Q2,1,E*%
%TO.N,GND*%
X197106000Y-60548000D03*
D11*
%TO.P,Q2,2,B*%
%TO.N,Net-(Q2-Pad2)*%
X198376000Y-60548000D03*
%TO.P,Q2,3,C*%
%TO.N,Net-(Q2-Pad3)*%
X199646000Y-60548000D03*
%TD*%
D14*
%TO.P,R3,1*%
%TO.N,/P3*%
X152000000Y-79250000D03*
D15*
%TO.P,R3,2*%
%TO.N,Net-(Q4-Pad2)*%
X159620000Y-79250000D03*
%TD*%
D14*
%TO.P,R6,1*%
%TO.N,/A2*%
X149440000Y-54500000D03*
D15*
%TO.P,R6,2*%
%TO.N,Net-(Q1-Pad2)*%
X157060000Y-54500000D03*
%TD*%
D14*
%TO.P,R4,1*%
%TO.N,/RESET*%
X161500000Y-55000000D03*
D15*
%TO.P,R4,2*%
%TO.N,Net-(Q3-Pad2)*%
X161500000Y-62620000D03*
%TD*%
D10*
%TO.P,Q5,1,E*%
%TO.N,GND*%
X197130000Y-76800000D03*
D11*
%TO.P,Q5,2,B*%
%TO.N,Net-(Q5-Pad2)*%
X198400000Y-76800000D03*
%TO.P,Q5,3,C*%
%TO.N,/Phase2_Cathode*%
X199670000Y-76800000D03*
%TD*%
D14*
%TO.P,R15,1*%
%TO.N,Net-(D1-Pad1)*%
X212190000Y-64000000D03*
D15*
%TO.P,R15,2*%
%TO.N,/Reset_Cathode*%
X219810000Y-64000000D03*
%TD*%
D10*
%TO.P,Q1,1,E*%
%TO.N,GND*%
X197100000Y-55700000D03*
D11*
%TO.P,Q1,2,B*%
%TO.N,Net-(Q1-Pad2)*%
X198370000Y-55700000D03*
%TO.P,Q1,3,C*%
%TO.N,Net-(Q1-Pad3)*%
X199640000Y-55700000D03*
%TD*%
D14*
%TO.P,R11,1*%
%TO.N,Net-(D1-Pad1)*%
X212190000Y-61000000D03*
D15*
%TO.P,R11,2*%
%TO.N,/Phase3_Cathode*%
X219810000Y-61000000D03*
%TD*%
%TO.P,R14,2*%
%TO.N,/Phase1_Cathode*%
X219810000Y-58000000D03*
D14*
%TO.P,R14,1*%
%TO.N,Net-(D1-Pad1)*%
X212190000Y-58000000D03*
%TD*%
D10*
%TO.P,Q4,1,E*%
%TO.N,GND*%
X197130000Y-71360000D03*
D11*
%TO.P,Q4,2,B*%
%TO.N,Net-(Q4-Pad2)*%
X198400000Y-71360000D03*
%TO.P,Q4,3,C*%
%TO.N,/Phase3_Cathode*%
X199670000Y-71360000D03*
%TD*%
D14*
%TO.P,R5,1*%
%TO.N,/A1*%
X149500000Y-58250000D03*
D15*
%TO.P,R5,2*%
%TO.N,Net-(Q2-Pad2)*%
X157120000Y-58250000D03*
%TD*%
D14*
%TO.P,R16,1*%
%TO.N,Net-(D1-Pad1)*%
X213566000Y-74000000D03*
D15*
%TO.P,R16,2*%
%TO.N,/Phase2_Cathode*%
X221186000Y-74000000D03*
%TD*%
D18*
%TO.P,J1,1,Pin_1*%
%TO.N,/Channel1_Anode*%
X224750000Y-58250000D03*
D19*
%TO.P,J1,2,Pin_2*%
%TO.N,/Phase1_Cathode*%
X224750000Y-60790000D03*
%TO.P,J1,3,Pin_3*%
%TO.N,/Phase3_Cathode*%
X224750000Y-63330000D03*
%TO.P,J1,4,Pin_4*%
%TO.N,/Reset_Cathode*%
X224750000Y-65870000D03*
%TO.P,J1,5,Pin_5*%
%TO.N,/Keepalive_Anode*%
X224750000Y-68410000D03*
%TO.P,J1,6,Pin_6*%
%TO.N,GND*%
X224750000Y-70950000D03*
%TO.P,J1,7,Pin_7*%
%TO.N,/Phase2_Cathode*%
X224750000Y-73490000D03*
%TO.P,J1,8,Pin_8*%
%TO.N,/Channel2_Anode*%
X224750000Y-76030000D03*
%TD*%
D14*
%TO.P,R13,1*%
%TO.N,VSS*%
X203300000Y-74700000D03*
D15*
%TO.P,R13,2*%
%TO.N,/Channel2_Anode*%
X210920000Y-74700000D03*
%TD*%
D10*
%TO.P,Q6,1,E*%
%TO.N,GND*%
X205900000Y-64000000D03*
D11*
%TO.P,Q6,2,B*%
%TO.N,Net-(Q6-Pad2)*%
X207170000Y-64000000D03*
%TO.P,Q6,3,C*%
%TO.N,/Phase1_Cathode*%
X208440000Y-64000000D03*
%TD*%
D14*
%TO.P,R10,1*%
%TO.N,VSS*%
X219826000Y-55000000D03*
D15*
%TO.P,R10,2*%
%TO.N,/Channel1_Anode*%
X212206000Y-55000000D03*
%TD*%
D14*
%TO.P,R7,1*%
%TO.N,Net-(Q2-Pad3)*%
X202376000Y-55000000D03*
D15*
%TO.P,R7,2*%
%TO.N,/Channel1_Anode*%
X209996000Y-55000000D03*
%TD*%
D14*
%TO.P,R9,1*%
%TO.N,Net-(D1-Pad1)*%
X210900000Y-78800000D03*
D15*
%TO.P,R9,2*%
%TO.N,VSS*%
X203280000Y-78800000D03*
%TD*%
D20*
%TO.N,Net-(Q5-Pad2)*%
X162750000Y-79620000D02*
X196880000Y-79620000D01*
X196880000Y-79620000D02*
X198400000Y-78100000D01*
X198400000Y-78100000D02*
X198400000Y-76800000D01*
%TO.N,Net-(Q6-Pad2)*%
X207170000Y-64830000D02*
X207170000Y-64000000D01*
X202250000Y-69750000D02*
X207170000Y-64830000D01*
X195250000Y-69750000D02*
X202250000Y-69750000D01*
X191000000Y-74000000D02*
X195250000Y-69750000D01*
X169250000Y-74000000D02*
X191000000Y-74000000D01*
X157060000Y-61500000D02*
X157060000Y-61810000D01*
X157060000Y-61810000D02*
X169250000Y-74000000D01*
%TO.N,/P2*%
X128130000Y-78610000D02*
X128130000Y-78745000D01*
X153500000Y-81750000D02*
X162750000Y-72500000D01*
X131135000Y-81750000D02*
X153500000Y-81750000D01*
X128130000Y-78745000D02*
X131135000Y-81750000D01*
X162750000Y-72500000D02*
X162750000Y-72000000D01*
%TO.N,Net-(Q4-Pad2)*%
X198400000Y-71360000D02*
X198400000Y-72264022D01*
X198400000Y-72264022D02*
X193164022Y-77500000D01*
X193164022Y-77500000D02*
X161370000Y-77500000D01*
X161370000Y-77500000D02*
X159620000Y-79250000D01*
%TO.N,/P1*%
X131750000Y-80250000D02*
X130670000Y-79170000D01*
X143750000Y-80250000D02*
X131750000Y-80250000D01*
X144750000Y-79250000D02*
X143750000Y-80250000D01*
X130670000Y-79170000D02*
X130670000Y-78610000D01*
X144750000Y-65750000D02*
X144750000Y-79250000D01*
X149000000Y-61500000D02*
X144750000Y-65750000D01*
X149440000Y-61500000D02*
X149000000Y-61500000D01*
%TO.N,Net-(Q3-Pad2)*%
X161500000Y-62620000D02*
X161620000Y-62620000D01*
X161620000Y-62620000D02*
X166750000Y-67750000D01*
X166750000Y-67750000D02*
X197750000Y-67750000D01*
X197750000Y-67750000D02*
X198376000Y-67124000D01*
X198376000Y-67124000D02*
X198376000Y-66048000D01*
%TO.N,Net-(Q1-Pad2)*%
X157060000Y-54500000D02*
X158060000Y-53500000D01*
X158060000Y-53500000D02*
X187500000Y-53500000D01*
X198370000Y-54870000D02*
X198370000Y-55700000D01*
X187500000Y-53500000D02*
X190000000Y-56000000D01*
X190000000Y-56000000D02*
X193000000Y-56000000D01*
X193000000Y-56000000D02*
X195500000Y-53500000D01*
X195500000Y-53500000D02*
X197000000Y-53500000D01*
X197000000Y-53500000D02*
X198370000Y-54870000D01*
%TO.N,/A1*%
X123050000Y-55750000D02*
X124550000Y-54250000D01*
X124550000Y-54250000D02*
X145500000Y-54250000D01*
X145500000Y-54250000D02*
X149500000Y-58250000D01*
%TO.N,/A2*%
X120510000Y-55750000D02*
X120510000Y-54250000D01*
X148250000Y-53250000D02*
X149440000Y-54440000D01*
X120510000Y-54250000D02*
X121510000Y-53250000D01*
X121510000Y-53250000D02*
X148250000Y-53250000D01*
X149440000Y-54440000D02*
X149440000Y-54500000D01*
%TO.N,Net-(Q2-Pad2)*%
X198376000Y-60548000D02*
X198376000Y-61324000D01*
X198376000Y-61324000D02*
X195450000Y-64250000D01*
X195450000Y-64250000D02*
X168000000Y-64250000D01*
X168000000Y-64250000D02*
X162000000Y-58250000D01*
X162000000Y-58250000D02*
X157120000Y-58250000D01*
D21*
%TO.N,Net-(Q2-Pad3)*%
X202376000Y-59024000D02*
X202376000Y-55000000D01*
X199646000Y-60548000D02*
X200852000Y-60548000D01*
X200852000Y-60548000D02*
X202376000Y-59024000D01*
%TO.N,/Reset_Cathode*%
X222300000Y-63900000D02*
X224270000Y-65870000D01*
X206700000Y-59300000D02*
X206700000Y-55300000D01*
X224270000Y-65870000D02*
X224750000Y-65870000D01*
X199646000Y-66048000D02*
X199952000Y-66048000D01*
X199952000Y-66048000D02*
X206700000Y-59300000D01*
X209000000Y-53000000D02*
X221300000Y-53000000D01*
X222300000Y-54000000D02*
X222300000Y-63900000D01*
X206700000Y-55300000D02*
X209000000Y-53000000D01*
X221300000Y-53000000D02*
X222300000Y-54000000D01*
%TO.N,/Phase3_Cathode*%
X199670000Y-71920000D02*
X199670000Y-71360000D01*
X219810000Y-61000000D02*
X218000000Y-62810000D01*
X215250000Y-72500000D02*
X200250000Y-72500000D01*
X200250000Y-72500000D02*
X199670000Y-71920000D01*
X218000000Y-69750000D02*
X215250000Y-72500000D01*
X218000000Y-62810000D02*
X218000000Y-69750000D01*
%TO.N,/Phase1_Cathode*%
X208440000Y-67240000D02*
X210300000Y-69100000D01*
X216500000Y-61424000D02*
X219810000Y-58114000D01*
X216500000Y-67924000D02*
X216500000Y-61424000D01*
X208440000Y-64000000D02*
X208440000Y-67240000D01*
X215324000Y-69100000D02*
X216500000Y-67924000D01*
X210300000Y-69100000D02*
X215324000Y-69100000D01*
%TO.N,Net-(D1-Pad1)*%
X212190000Y-58000000D02*
X212190000Y-61000000D01*
X212190000Y-61000000D02*
X212190000Y-64000000D01*
D22*
%TO.N,/Channel2_Anode*%
X210920000Y-74700000D02*
X210920000Y-75296000D01*
X224620000Y-75900000D02*
X224750000Y-76030000D01*
X211524000Y-75900000D02*
X224620000Y-75900000D01*
X210920000Y-75296000D02*
X211524000Y-75900000D01*
%TO.N,VSS*%
X219826000Y-55000000D02*
X218424000Y-55000000D01*
X203400000Y-78680000D02*
X203400000Y-74800000D01*
X218424000Y-55000000D02*
X214750000Y-58674000D01*
X203280000Y-78800000D02*
X203400000Y-78680000D01*
X214750000Y-58674000D02*
X214750000Y-64674000D01*
X203400000Y-74800000D02*
X203300000Y-74700000D01*
X214750000Y-64674000D02*
X212424000Y-67000000D01*
%TD*%
%TA.AperFunction,Conductor*%
%TO.N,GND*%
G36*
X190285640Y-52028502D02*
G01*
X190332133Y-52082158D01*
X190342237Y-52152432D01*
X190312743Y-52217012D01*
X190306614Y-52223595D01*
X190248084Y-52282125D01*
X190241028Y-52290533D01*
X190116069Y-52468993D01*
X190110586Y-52478489D01*
X190018510Y-52675947D01*
X190014764Y-52686239D01*
X189968606Y-52858503D01*
X189968942Y-52872599D01*
X189976884Y-52876000D01*
X192517967Y-52876000D01*
X192531498Y-52872027D01*
X192532727Y-52863478D01*
X192485236Y-52686239D01*
X192481490Y-52675947D01*
X192389414Y-52478489D01*
X192383931Y-52468993D01*
X192258972Y-52290533D01*
X192251916Y-52282125D01*
X192193386Y-52223595D01*
X192159360Y-52161283D01*
X192164425Y-52090468D01*
X192206972Y-52033632D01*
X192273492Y-52008821D01*
X192282481Y-52008500D01*
X208475025Y-52008500D01*
X208543146Y-52028502D01*
X208589639Y-52082158D01*
X208599743Y-52152432D01*
X208570249Y-52217012D01*
X208532227Y-52246767D01*
X208522046Y-52251954D01*
X208522043Y-52251956D01*
X208516161Y-52254953D01*
X208511029Y-52259109D01*
X208505741Y-52263391D01*
X208489448Y-52274589D01*
X208477831Y-52281296D01*
X208472925Y-52285713D01*
X208472920Y-52285717D01*
X208428462Y-52325747D01*
X208423446Y-52330031D01*
X208410591Y-52340441D01*
X208408014Y-52342528D01*
X208393969Y-52356573D01*
X208389184Y-52361114D01*
X208339815Y-52405566D01*
X208331925Y-52416426D01*
X208319088Y-52431454D01*
X206131454Y-54619088D01*
X206116426Y-54631925D01*
X206105566Y-54639815D01*
X206101145Y-54644725D01*
X206101144Y-54644726D01*
X206061114Y-54689184D01*
X206056573Y-54693969D01*
X206042528Y-54708014D01*
X206040444Y-54710588D01*
X206040441Y-54710591D01*
X206030031Y-54723446D01*
X206025747Y-54728462D01*
X205985717Y-54772920D01*
X205985713Y-54772925D01*
X205981296Y-54777831D01*
X205977844Y-54783811D01*
X205974589Y-54789448D01*
X205963391Y-54805741D01*
X205954953Y-54816161D01*
X205924787Y-54875363D01*
X205921654Y-54881133D01*
X205891740Y-54932945D01*
X205891738Y-54932950D01*
X205888436Y-54938669D01*
X205886395Y-54944949D01*
X205886392Y-54944957D01*
X205884292Y-54951421D01*
X205876728Y-54969683D01*
X205873637Y-54975749D01*
X205873634Y-54975758D01*
X205870638Y-54981637D01*
X205868929Y-54988015D01*
X205853444Y-55045804D01*
X205851578Y-55052106D01*
X205831046Y-55115298D01*
X205830356Y-55121866D01*
X205829645Y-55128628D01*
X205826042Y-55148071D01*
X205822570Y-55161029D01*
X205819401Y-55221498D01*
X205819093Y-55227367D01*
X205818577Y-55233931D01*
X205816500Y-55253694D01*
X205816500Y-55273555D01*
X205816327Y-55280150D01*
X205813457Y-55334917D01*
X205812850Y-55346493D01*
X205813882Y-55353007D01*
X205814949Y-55359744D01*
X205816500Y-55379456D01*
X205816500Y-58881852D01*
X205796498Y-58949973D01*
X205779595Y-58970947D01*
X199976966Y-64773576D01*
X199914654Y-64807602D01*
X199862534Y-64807907D01*
X199860703Y-64807531D01*
X199854820Y-64805710D01*
X199848699Y-64805067D01*
X199848696Y-64805066D01*
X199659378Y-64785168D01*
X199659377Y-64785168D01*
X199653250Y-64784524D01*
X199574709Y-64791672D01*
X199457543Y-64802335D01*
X199457540Y-64802336D01*
X199451404Y-64802894D01*
X199445498Y-64804632D01*
X199445494Y-64804633D01*
X199341363Y-64835281D01*
X199256971Y-64860119D01*
X199251514Y-64862972D01*
X199251511Y-64862973D01*
X199181194Y-64899734D01*
X199077540Y-64953923D01*
X199077538Y-64953923D01*
X199077355Y-64954019D01*
X199077337Y-64953984D01*
X199011559Y-64973889D01*
X198950591Y-64958729D01*
X198941815Y-64953984D01*
X198778435Y-64865644D01*
X198680348Y-64835281D01*
X198590707Y-64807532D01*
X198590704Y-64807531D01*
X198584820Y-64805710D01*
X198578695Y-64805066D01*
X198578694Y-64805066D01*
X198389378Y-64785168D01*
X198389377Y-64785168D01*
X198383250Y-64784524D01*
X198304709Y-64791672D01*
X198187543Y-64802335D01*
X198187540Y-64802336D01*
X198181404Y-64802894D01*
X198175498Y-64804632D01*
X198175494Y-64804633D01*
X198099543Y-64826987D01*
X197986971Y-64860119D01*
X197986771Y-64859441D01*
X197920727Y-64865956D01*
X197883677Y-64852680D01*
X197869063Y-64844679D01*
X197748606Y-64799522D01*
X197733351Y-64795895D01*
X197682486Y-64790369D01*
X197675672Y-64790000D01*
X197378115Y-64790000D01*
X197362876Y-64794475D01*
X197361671Y-64795865D01*
X197360000Y-64803548D01*
X197360000Y-65601758D01*
X197359215Y-65615803D01*
X197342500Y-65764817D01*
X197342500Y-66176000D01*
X197322498Y-66244121D01*
X197268842Y-66290614D01*
X197216500Y-66302000D01*
X196091116Y-66302000D01*
X196075877Y-66306475D01*
X196074672Y-66307865D01*
X196073001Y-66315548D01*
X196073001Y-66842669D01*
X196073370Y-66849475D01*
X196073632Y-66851889D01*
X196073531Y-66852452D01*
X196073554Y-66852877D01*
X196073454Y-66852882D01*
X196061105Y-66921772D01*
X196012786Y-66973789D01*
X195948369Y-66991500D01*
X167116371Y-66991500D01*
X167048250Y-66971498D01*
X167027276Y-66954595D01*
X165848566Y-65775885D01*
X196073000Y-65775885D01*
X196077475Y-65791124D01*
X196078865Y-65792329D01*
X196086548Y-65794000D01*
X196833885Y-65794000D01*
X196849124Y-65789525D01*
X196850329Y-65788135D01*
X196852000Y-65780452D01*
X196852000Y-64808116D01*
X196847525Y-64792877D01*
X196846135Y-64791672D01*
X196838452Y-64790001D01*
X196536331Y-64790001D01*
X196529510Y-64790371D01*
X196478648Y-64795895D01*
X196463396Y-64799521D01*
X196342946Y-64844676D01*
X196327351Y-64853214D01*
X196225276Y-64929715D01*
X196212715Y-64942276D01*
X196136214Y-65044351D01*
X196127676Y-65059946D01*
X196082522Y-65180394D01*
X196078895Y-65195649D01*
X196073369Y-65246514D01*
X196073000Y-65253328D01*
X196073000Y-65775885D01*
X165848566Y-65775885D01*
X162845325Y-62772644D01*
X162811299Y-62710332D01*
X162808899Y-62672567D01*
X162813019Y-62625475D01*
X162813498Y-62620000D01*
X162793543Y-62391913D01*
X162776913Y-62329848D01*
X162735707Y-62176067D01*
X162735706Y-62176065D01*
X162734284Y-62170757D01*
X162731961Y-62165775D01*
X162639849Y-61968238D01*
X162639846Y-61968233D01*
X162637523Y-61963251D01*
X162526727Y-61805018D01*
X162509357Y-61780211D01*
X162509355Y-61780208D01*
X162506198Y-61775700D01*
X162344300Y-61613802D01*
X162339792Y-61610645D01*
X162339789Y-61610643D01*
X162255537Y-61551649D01*
X162156749Y-61482477D01*
X162151767Y-61480154D01*
X162151762Y-61480151D01*
X161954225Y-61388039D01*
X161954224Y-61388039D01*
X161949243Y-61385716D01*
X161943935Y-61384294D01*
X161943933Y-61384293D01*
X161733402Y-61327881D01*
X161733400Y-61327881D01*
X161728087Y-61326457D01*
X161500000Y-61306502D01*
X161271913Y-61326457D01*
X161266600Y-61327881D01*
X161266598Y-61327881D01*
X161056067Y-61384293D01*
X161056065Y-61384294D01*
X161050757Y-61385716D01*
X161045776Y-61388039D01*
X161045775Y-61388039D01*
X160848238Y-61480151D01*
X160848233Y-61480154D01*
X160843251Y-61482477D01*
X160744463Y-61551649D01*
X160660211Y-61610643D01*
X160660208Y-61610645D01*
X160655700Y-61613802D01*
X160493802Y-61775700D01*
X160490645Y-61780208D01*
X160490643Y-61780211D01*
X160473273Y-61805018D01*
X160362477Y-61963251D01*
X160360154Y-61968233D01*
X160360151Y-61968238D01*
X160268039Y-62165775D01*
X160265716Y-62170757D01*
X160264294Y-62176065D01*
X160264293Y-62176067D01*
X160223087Y-62329848D01*
X160206457Y-62391913D01*
X160186502Y-62620000D01*
X160206457Y-62848087D01*
X160207881Y-62853400D01*
X160207881Y-62853402D01*
X160263072Y-63059374D01*
X160265716Y-63069243D01*
X160268039Y-63074224D01*
X160268039Y-63074225D01*
X160360151Y-63271762D01*
X160360154Y-63271767D01*
X160362477Y-63276749D01*
X160493802Y-63464300D01*
X160655700Y-63626198D01*
X160660208Y-63629355D01*
X160660211Y-63629357D01*
X160699280Y-63656713D01*
X160843251Y-63757523D01*
X160848233Y-63759846D01*
X160848238Y-63759849D01*
X161024922Y-63842237D01*
X161050757Y-63854284D01*
X161056065Y-63855706D01*
X161056067Y-63855707D01*
X161266598Y-63912119D01*
X161266600Y-63912119D01*
X161271913Y-63913543D01*
X161500000Y-63933498D01*
X161728087Y-63913543D01*
X161733403Y-63912119D01*
X161733412Y-63912117D01*
X161746767Y-63908539D01*
X161817743Y-63910230D01*
X161868470Y-63941151D01*
X166166230Y-68238911D01*
X166178616Y-68253323D01*
X166187149Y-68264918D01*
X166187154Y-68264923D01*
X166191492Y-68270818D01*
X166197070Y-68275557D01*
X166197073Y-68275560D01*
X166231768Y-68305035D01*
X166239284Y-68311965D01*
X166244980Y-68317661D01*
X166247841Y-68319924D01*
X166247846Y-68319929D01*
X166267256Y-68335285D01*
X166270658Y-68338074D01*
X166316118Y-68376695D01*
X166326285Y-68385333D01*
X166332802Y-68388661D01*
X166337850Y-68392027D01*
X166342972Y-68395190D01*
X166348716Y-68399735D01*
X166414895Y-68430664D01*
X166418779Y-68432563D01*
X166483808Y-68465769D01*
X166490923Y-68467510D01*
X166496578Y-68469613D01*
X166502317Y-68471522D01*
X166508950Y-68474622D01*
X166580435Y-68489491D01*
X166584701Y-68490457D01*
X166655610Y-68507808D01*
X166661212Y-68508156D01*
X166661215Y-68508156D01*
X166666764Y-68508500D01*
X166666762Y-68508535D01*
X166670734Y-68508775D01*
X166674955Y-68509152D01*
X166682115Y-68510641D01*
X166759542Y-68508546D01*
X166762950Y-68508500D01*
X197682930Y-68508500D01*
X197701880Y-68509933D01*
X197716115Y-68512099D01*
X197716119Y-68512099D01*
X197723349Y-68513199D01*
X197730641Y-68512606D01*
X197730644Y-68512606D01*
X197776018Y-68508915D01*
X197786233Y-68508500D01*
X197794293Y-68508500D01*
X197811680Y-68506473D01*
X197822507Y-68505211D01*
X197826882Y-68504778D01*
X197892339Y-68499454D01*
X197892342Y-68499453D01*
X197899637Y-68498860D01*
X197906601Y-68496604D01*
X197912560Y-68495413D01*
X197918415Y-68494029D01*
X197925681Y-68493182D01*
X197994327Y-68468265D01*
X197998455Y-68466848D01*
X198060936Y-68446607D01*
X198060938Y-68446606D01*
X198067899Y-68444351D01*
X198074154Y-68440555D01*
X198079628Y-68438049D01*
X198085058Y-68435330D01*
X198091937Y-68432833D01*
X198101072Y-68426844D01*
X198152976Y-68392814D01*
X198156680Y-68390477D01*
X198219107Y-68352595D01*
X198227484Y-68345197D01*
X198227508Y-68345224D01*
X198230500Y-68342571D01*
X198233733Y-68339868D01*
X198239852Y-68335856D01*
X198293128Y-68279617D01*
X198295506Y-68277175D01*
X198864911Y-67707770D01*
X198879323Y-67695384D01*
X198890918Y-67686851D01*
X198890923Y-67686846D01*
X198896818Y-67682508D01*
X198901557Y-67676930D01*
X198901560Y-67676927D01*
X198931035Y-67642232D01*
X198937965Y-67634716D01*
X198943661Y-67629020D01*
X198945924Y-67626159D01*
X198945929Y-67626154D01*
X198961293Y-67606734D01*
X198964082Y-67603333D01*
X198976616Y-67588579D01*
X199011333Y-67547715D01*
X199014659Y-67541202D01*
X199018020Y-67536163D01*
X199021196Y-67531021D01*
X199025734Y-67525284D01*
X199056655Y-67459125D01*
X199058561Y-67455225D01*
X199075456Y-67422138D01*
X199091769Y-67390192D01*
X199093508Y-67383083D01*
X199095604Y-67377449D01*
X199097523Y-67371680D01*
X199100622Y-67365050D01*
X199102112Y-67357885D01*
X199102114Y-67357880D01*
X199107369Y-67332619D01*
X199140825Y-67270000D01*
X199202825Y-67235409D01*
X199267987Y-67237916D01*
X199431293Y-67288468D01*
X199431296Y-67288469D01*
X199437180Y-67290290D01*
X199443305Y-67290934D01*
X199443306Y-67290934D01*
X199632622Y-67310832D01*
X199632623Y-67310832D01*
X199638750Y-67311476D01*
X199722014Y-67303898D01*
X199834457Y-67293665D01*
X199834460Y-67293664D01*
X199840596Y-67293106D01*
X199846502Y-67291368D01*
X199846506Y-67291367D01*
X199999921Y-67246214D01*
X200035029Y-67235881D01*
X200040486Y-67233028D01*
X200040489Y-67233027D01*
X200141433Y-67180255D01*
X200214645Y-67141981D01*
X200372601Y-67014981D01*
X200502881Y-66859719D01*
X200505845Y-66854327D01*
X200505848Y-66854323D01*
X200597556Y-66687506D01*
X200600523Y-66682109D01*
X200606648Y-66662800D01*
X200637655Y-66611803D01*
X203521573Y-63727885D01*
X204867000Y-63727885D01*
X204871475Y-63743124D01*
X204872865Y-63744329D01*
X204880548Y-63746000D01*
X205627885Y-63746000D01*
X205643124Y-63741525D01*
X205644329Y-63740135D01*
X205646000Y-63732452D01*
X205646000Y-62760116D01*
X205641525Y-62744877D01*
X205640135Y-62743672D01*
X205632452Y-62742001D01*
X205330331Y-62742001D01*
X205323510Y-62742371D01*
X205272648Y-62747895D01*
X205257396Y-62751521D01*
X205136946Y-62796676D01*
X205121351Y-62805214D01*
X205019276Y-62881715D01*
X205006715Y-62894276D01*
X204930214Y-62996351D01*
X204921676Y-63011946D01*
X204876522Y-63132394D01*
X204872895Y-63147649D01*
X204867369Y-63198514D01*
X204867000Y-63205328D01*
X204867000Y-63727885D01*
X203521573Y-63727885D01*
X207268546Y-59980912D01*
X207283574Y-59968075D01*
X207294434Y-59960185D01*
X207338886Y-59910816D01*
X207343427Y-59906031D01*
X207357472Y-59891986D01*
X207359559Y-59889409D01*
X207369969Y-59876554D01*
X207374253Y-59871538D01*
X207414283Y-59827080D01*
X207414287Y-59827075D01*
X207418704Y-59822169D01*
X207425411Y-59810552D01*
X207436609Y-59794259D01*
X207440891Y-59788971D01*
X207445047Y-59783839D01*
X207475213Y-59724637D01*
X207478346Y-59718867D01*
X207508260Y-59667055D01*
X207508262Y-59667050D01*
X207511564Y-59661331D01*
X207513605Y-59655051D01*
X207513608Y-59655043D01*
X207515708Y-59648579D01*
X207523272Y-59630317D01*
X207526363Y-59624251D01*
X207526366Y-59624242D01*
X207529362Y-59618363D01*
X207537684Y-59587306D01*
X207546556Y-59554196D01*
X207548422Y-59547894D01*
X207568954Y-59484702D01*
X207570355Y-59471372D01*
X207573958Y-59451929D01*
X207577430Y-59438971D01*
X207577916Y-59429715D01*
X207580571Y-59379051D01*
X207580907Y-59372628D01*
X207581424Y-59366059D01*
X207581730Y-59363147D01*
X207583500Y-59346306D01*
X207583500Y-59326445D01*
X207583673Y-59319850D01*
X207586805Y-59260098D01*
X207586805Y-59260094D01*
X207587150Y-59253507D01*
X207585051Y-59240253D01*
X207583500Y-59220544D01*
X207583500Y-55718148D01*
X207603502Y-55650027D01*
X207620405Y-55629053D01*
X208479233Y-54770225D01*
X208541545Y-54736199D01*
X208612360Y-54741264D01*
X208669196Y-54783811D01*
X208694007Y-54850331D01*
X208693849Y-54870302D01*
X208692894Y-54881221D01*
X208682502Y-55000000D01*
X208702457Y-55228087D01*
X208703881Y-55233400D01*
X208703881Y-55233402D01*
X208737735Y-55359744D01*
X208761716Y-55449243D01*
X208764039Y-55454224D01*
X208764039Y-55454225D01*
X208856151Y-55651762D01*
X208856154Y-55651767D01*
X208858477Y-55656749D01*
X208989802Y-55844300D01*
X209151700Y-56006198D01*
X209156208Y-56009355D01*
X209156211Y-56009357D01*
X209188636Y-56032061D01*
X209339251Y-56137523D01*
X209344233Y-56139846D01*
X209344238Y-56139849D01*
X209486384Y-56206132D01*
X209546757Y-56234284D01*
X209552065Y-56235706D01*
X209552067Y-56235707D01*
X209762598Y-56292119D01*
X209762600Y-56292119D01*
X209767913Y-56293543D01*
X209996000Y-56313498D01*
X210224087Y-56293543D01*
X210229400Y-56292119D01*
X210229402Y-56292119D01*
X210439933Y-56235707D01*
X210439935Y-56235706D01*
X210445243Y-56234284D01*
X210505616Y-56206132D01*
X210647762Y-56139849D01*
X210647767Y-56139846D01*
X210652749Y-56137523D01*
X210803364Y-56032061D01*
X210835789Y-56009357D01*
X210835792Y-56009355D01*
X210840300Y-56006198D01*
X211002198Y-55844300D01*
X211004751Y-55840653D01*
X211063590Y-55801509D01*
X211134578Y-55800383D01*
X211197256Y-55840665D01*
X211199802Y-55844300D01*
X211361700Y-56006198D01*
X211366208Y-56009355D01*
X211366211Y-56009357D01*
X211398636Y-56032061D01*
X211549251Y-56137523D01*
X211554233Y-56139846D01*
X211554238Y-56139849D01*
X211696384Y-56206132D01*
X211756757Y-56234284D01*
X211762065Y-56235706D01*
X211762067Y-56235707D01*
X211972598Y-56292119D01*
X211972600Y-56292119D01*
X211977913Y-56293543D01*
X212206000Y-56313498D01*
X212434087Y-56293543D01*
X212439400Y-56292119D01*
X212439402Y-56292119D01*
X212649933Y-56235707D01*
X212649935Y-56235706D01*
X212655243Y-56234284D01*
X212715616Y-56206132D01*
X212857762Y-56139849D01*
X212857767Y-56139846D01*
X212862749Y-56137523D01*
X213013364Y-56032061D01*
X213045789Y-56009357D01*
X213045792Y-56009355D01*
X213050300Y-56006198D01*
X213212198Y-55844300D01*
X213343523Y-55656749D01*
X213345846Y-55651767D01*
X213345849Y-55651762D01*
X213437961Y-55454225D01*
X213437961Y-55454224D01*
X213440284Y-55449243D01*
X213464266Y-55359744D01*
X213498119Y-55233402D01*
X213498119Y-55233400D01*
X213499543Y-55228087D01*
X213519498Y-55000000D01*
X213499543Y-54771913D01*
X213491331Y-54741264D01*
X213441707Y-54556067D01*
X213441706Y-54556065D01*
X213440284Y-54550757D01*
X213435568Y-54540643D01*
X213345849Y-54348238D01*
X213345846Y-54348233D01*
X213343523Y-54343251D01*
X213242161Y-54198491D01*
X213215357Y-54160211D01*
X213215355Y-54160208D01*
X213212198Y-54155700D01*
X213155093Y-54098595D01*
X213121067Y-54036283D01*
X213126132Y-53965468D01*
X213168679Y-53908632D01*
X213235199Y-53883821D01*
X213244188Y-53883500D01*
X217397124Y-53883500D01*
X217465245Y-53903502D01*
X217511738Y-53957158D01*
X217521842Y-54027432D01*
X217492348Y-54092012D01*
X217486219Y-54098595D01*
X217423953Y-54160861D01*
X217423951Y-54160864D01*
X213910864Y-57673951D01*
X213910861Y-57673953D01*
X213749953Y-57834861D01*
X213746800Y-57839364D01*
X213720414Y-57877048D01*
X213713716Y-57885776D01*
X213709822Y-57890416D01*
X213650709Y-57929738D01*
X213579721Y-57930860D01*
X213519397Y-57893424D01*
X213488887Y-57829317D01*
X213487785Y-57820399D01*
X213484023Y-57777394D01*
X213484022Y-57777389D01*
X213483543Y-57771913D01*
X213461068Y-57688035D01*
X213425707Y-57556067D01*
X213425706Y-57556065D01*
X213424284Y-57550757D01*
X213414788Y-57530393D01*
X213329849Y-57348238D01*
X213329846Y-57348233D01*
X213327523Y-57343251D01*
X213254098Y-57238389D01*
X213199357Y-57160211D01*
X213199355Y-57160208D01*
X213196198Y-57155700D01*
X213034300Y-56993802D01*
X213029792Y-56990645D01*
X213029789Y-56990643D01*
X212904966Y-56903241D01*
X212846749Y-56862477D01*
X212841767Y-56860154D01*
X212841762Y-56860151D01*
X212644225Y-56768039D01*
X212644224Y-56768039D01*
X212639243Y-56765716D01*
X212633935Y-56764294D01*
X212633933Y-56764293D01*
X212423402Y-56707881D01*
X212423400Y-56707881D01*
X212418087Y-56706457D01*
X212190000Y-56686502D01*
X211961913Y-56706457D01*
X211956600Y-56707881D01*
X211956598Y-56707881D01*
X211746067Y-56764293D01*
X211746065Y-56764294D01*
X211740757Y-56765716D01*
X211735776Y-56768039D01*
X211735775Y-56768039D01*
X211538238Y-56860151D01*
X211538233Y-56860154D01*
X211533251Y-56862477D01*
X211475034Y-56903241D01*
X211350211Y-56990643D01*
X211350208Y-56990645D01*
X211345700Y-56993802D01*
X211183802Y-57155700D01*
X211180645Y-57160208D01*
X211180643Y-57160211D01*
X211125902Y-57238389D01*
X211052477Y-57343251D01*
X211050154Y-57348233D01*
X211050151Y-57348238D01*
X210965212Y-57530393D01*
X210955716Y-57550757D01*
X210954294Y-57556065D01*
X210954293Y-57556067D01*
X210918932Y-57688035D01*
X210896457Y-57771913D01*
X210876502Y-58000000D01*
X210896457Y-58228087D01*
X210897881Y-58233400D01*
X210897881Y-58233402D01*
X210925405Y-58336120D01*
X210955716Y-58449243D01*
X210958039Y-58454224D01*
X210958039Y-58454225D01*
X211050151Y-58651762D01*
X211050154Y-58651767D01*
X211052477Y-58656749D01*
X211093892Y-58715895D01*
X211180640Y-58839784D01*
X211183802Y-58844300D01*
X211269595Y-58930093D01*
X211303621Y-58992405D01*
X211306500Y-59019188D01*
X211306500Y-59980812D01*
X211286498Y-60048933D01*
X211269595Y-60069907D01*
X211183802Y-60155700D01*
X211180645Y-60160208D01*
X211180643Y-60160211D01*
X211162234Y-60186502D01*
X211052477Y-60343251D01*
X211050154Y-60348233D01*
X211050151Y-60348238D01*
X210971644Y-60516598D01*
X210955716Y-60550757D01*
X210954294Y-60556065D01*
X210954293Y-60556067D01*
X210900535Y-60756695D01*
X210896457Y-60771913D01*
X210876502Y-61000000D01*
X210896457Y-61228087D01*
X210897881Y-61233400D01*
X210897881Y-61233402D01*
X210950870Y-61431156D01*
X210955716Y-61449243D01*
X210958039Y-61454224D01*
X210958039Y-61454225D01*
X211050151Y-61651762D01*
X211050154Y-61651767D01*
X211052477Y-61656749D01*
X211100466Y-61725284D01*
X211180640Y-61839784D01*
X211183802Y-61844300D01*
X211269595Y-61930093D01*
X211303621Y-61992405D01*
X211306500Y-62019188D01*
X211306500Y-62980812D01*
X211286498Y-63048933D01*
X211269595Y-63069907D01*
X211183802Y-63155700D01*
X211180645Y-63160208D01*
X211180643Y-63160211D01*
X211160988Y-63188281D01*
X211052477Y-63343251D01*
X211050154Y-63348233D01*
X211050151Y-63348238D01*
X210996031Y-63464300D01*
X210955716Y-63550757D01*
X210954294Y-63556065D01*
X210954293Y-63556067D01*
X210897881Y-63766598D01*
X210896457Y-63771913D01*
X210876502Y-64000000D01*
X210896457Y-64228087D01*
X210897881Y-64233400D01*
X210897881Y-64233402D01*
X210951845Y-64434795D01*
X210955716Y-64449243D01*
X210958039Y-64454224D01*
X210958039Y-64454225D01*
X211050151Y-64651762D01*
X211050154Y-64651767D01*
X211052477Y-64656749D01*
X211091022Y-64711797D01*
X211177487Y-64835281D01*
X211183802Y-64844300D01*
X211345700Y-65006198D01*
X211350208Y-65009355D01*
X211350211Y-65009357D01*
X211400188Y-65044351D01*
X211533251Y-65137523D01*
X211735943Y-65232039D01*
X211789228Y-65278956D01*
X211808689Y-65347233D01*
X211788147Y-65415193D01*
X211734125Y-65461259D01*
X211712109Y-65468752D01*
X211698708Y-65471969D01*
X211698695Y-65471973D01*
X211693889Y-65473127D01*
X211689318Y-65475020D01*
X211689316Y-65475021D01*
X211465715Y-65567639D01*
X211465711Y-65567641D01*
X211461141Y-65569534D01*
X211246341Y-65701164D01*
X211242581Y-65704376D01*
X211242576Y-65704379D01*
X211098123Y-65827754D01*
X211054776Y-65864776D01*
X211051563Y-65868538D01*
X210894379Y-66052576D01*
X210894376Y-66052581D01*
X210891164Y-66056341D01*
X210759534Y-66271141D01*
X210757641Y-66275711D01*
X210757639Y-66275715D01*
X210675483Y-66474058D01*
X210663127Y-66503889D01*
X210661972Y-66508701D01*
X210619045Y-66687506D01*
X210604317Y-66748852D01*
X210584551Y-67000000D01*
X210604317Y-67251148D01*
X210605471Y-67255955D01*
X210605472Y-67255961D01*
X210618666Y-67310917D01*
X210663127Y-67496111D01*
X210665020Y-67500682D01*
X210665021Y-67500684D01*
X210757455Y-67723839D01*
X210759534Y-67728859D01*
X210891164Y-67943659D01*
X210946690Y-68008672D01*
X210975720Y-68073459D01*
X210965115Y-68143659D01*
X210918241Y-68196981D01*
X210850878Y-68216500D01*
X210718148Y-68216500D01*
X210650027Y-68196498D01*
X210629053Y-68179595D01*
X209360405Y-66910947D01*
X209326379Y-66848635D01*
X209323500Y-66821852D01*
X209323500Y-64795651D01*
X209339085Y-64734950D01*
X209391556Y-64639506D01*
X209394523Y-64634109D01*
X209455807Y-64440916D01*
X209457401Y-64426713D01*
X209468847Y-64324664D01*
X209473500Y-64283183D01*
X209473500Y-63723996D01*
X209458723Y-63573287D01*
X209400142Y-63379258D01*
X209304990Y-63200302D01*
X209272297Y-63160216D01*
X209225095Y-63102342D01*
X209176890Y-63043237D01*
X209172141Y-63039308D01*
X209025472Y-62917973D01*
X209025469Y-62917971D01*
X209020722Y-62914044D01*
X208842435Y-62817644D01*
X208682188Y-62768039D01*
X208654707Y-62759532D01*
X208654704Y-62759531D01*
X208648820Y-62757710D01*
X208642695Y-62757066D01*
X208642694Y-62757066D01*
X208453378Y-62737168D01*
X208453377Y-62737168D01*
X208447250Y-62736524D01*
X208368709Y-62743672D01*
X208251543Y-62754335D01*
X208251540Y-62754336D01*
X208245404Y-62754894D01*
X208239498Y-62756632D01*
X208239494Y-62756633D01*
X208113427Y-62793737D01*
X208050971Y-62812119D01*
X208045514Y-62814972D01*
X208045511Y-62814973D01*
X207998989Y-62839294D01*
X207871540Y-62905923D01*
X207871538Y-62905923D01*
X207871355Y-62906019D01*
X207871337Y-62905984D01*
X207805559Y-62925889D01*
X207744591Y-62910729D01*
X207735815Y-62905984D01*
X207572435Y-62817644D01*
X207412188Y-62768039D01*
X207384707Y-62759532D01*
X207384704Y-62759531D01*
X207378820Y-62757710D01*
X207372695Y-62757066D01*
X207372694Y-62757066D01*
X207183378Y-62737168D01*
X207183377Y-62737168D01*
X207177250Y-62736524D01*
X207098709Y-62743672D01*
X206981543Y-62754335D01*
X206981540Y-62754336D01*
X206975404Y-62754894D01*
X206969498Y-62756632D01*
X206969494Y-62756633D01*
X206878187Y-62783507D01*
X206780971Y-62812119D01*
X206780771Y-62811441D01*
X206714727Y-62817956D01*
X206677677Y-62804680D01*
X206663063Y-62796679D01*
X206542606Y-62751522D01*
X206527351Y-62747895D01*
X206476486Y-62742369D01*
X206469672Y-62742000D01*
X206172115Y-62742000D01*
X206156876Y-62746475D01*
X206155671Y-62747865D01*
X206154000Y-62755548D01*
X206154000Y-63553758D01*
X206153215Y-63567803D01*
X206136500Y-63716817D01*
X206136500Y-64128000D01*
X206116498Y-64196121D01*
X206062842Y-64242614D01*
X206010500Y-64254000D01*
X204885116Y-64254000D01*
X204869877Y-64258475D01*
X204868672Y-64259865D01*
X204867001Y-64267548D01*
X204867001Y-64794669D01*
X204867371Y-64801490D01*
X204872895Y-64852352D01*
X204876521Y-64867604D01*
X204921676Y-64988054D01*
X204930214Y-65003649D01*
X205006715Y-65105724D01*
X205019276Y-65118285D01*
X205121351Y-65194786D01*
X205136946Y-65203324D01*
X205257394Y-65248478D01*
X205272649Y-65252105D01*
X205323514Y-65257631D01*
X205330328Y-65258000D01*
X205365129Y-65258000D01*
X205433250Y-65278002D01*
X205479743Y-65331658D01*
X205489847Y-65401932D01*
X205460353Y-65466512D01*
X205454224Y-65473095D01*
X201972724Y-68954595D01*
X201910412Y-68988621D01*
X201883629Y-68991500D01*
X195317070Y-68991500D01*
X195298120Y-68990067D01*
X195283885Y-68987901D01*
X195283881Y-68987901D01*
X195276651Y-68986801D01*
X195269359Y-68987394D01*
X195269356Y-68987394D01*
X195223982Y-68991085D01*
X195213767Y-68991500D01*
X195205707Y-68991500D01*
X195202073Y-68991924D01*
X195202067Y-68991924D01*
X195189042Y-68993443D01*
X195177480Y-68994791D01*
X195173132Y-68995221D01*
X195151059Y-68997016D01*
X195107662Y-69000546D01*
X195107659Y-69000547D01*
X195100364Y-69001140D01*
X195093400Y-69003396D01*
X195087461Y-69004583D01*
X195081590Y-69005970D01*
X195074319Y-69006818D01*
X195067443Y-69009314D01*
X195067434Y-69009316D01*
X195005702Y-69031725D01*
X195001598Y-69033135D01*
X194932101Y-69055648D01*
X194925846Y-69059444D01*
X194920387Y-69061943D01*
X194914939Y-69064671D01*
X194908063Y-69067167D01*
X194847010Y-69107195D01*
X194843327Y-69109519D01*
X194785686Y-69144496D01*
X194785682Y-69144499D01*
X194780893Y-69147405D01*
X194772517Y-69154803D01*
X194772493Y-69154776D01*
X194769511Y-69157421D01*
X194766274Y-69160128D01*
X194760148Y-69164144D01*
X194755112Y-69169460D01*
X194755111Y-69169461D01*
X194706854Y-69220402D01*
X194704476Y-69222844D01*
X190722724Y-73204595D01*
X190660412Y-73238621D01*
X190633629Y-73241500D01*
X188071191Y-73241500D01*
X188003070Y-73221498D01*
X187956577Y-73167842D01*
X187946473Y-73097568D01*
X187975967Y-73032988D01*
X188021453Y-72999732D01*
X188023816Y-72998717D01*
X188142312Y-72947807D01*
X188309578Y-72844300D01*
X188351875Y-72818126D01*
X188351879Y-72818123D01*
X188355848Y-72815667D01*
X188407856Y-72771639D01*
X188543940Y-72656434D01*
X188543941Y-72656433D01*
X188547506Y-72653415D01*
X188603261Y-72589839D01*
X188709996Y-72468132D01*
X188710000Y-72468127D01*
X188713078Y-72464617D01*
X188719758Y-72454232D01*
X188846396Y-72257351D01*
X188846399Y-72257346D01*
X188848924Y-72253420D01*
X188952062Y-72024463D01*
X188981618Y-71919667D01*
X189018955Y-71787281D01*
X189018956Y-71787278D01*
X189020225Y-71782777D01*
X189036350Y-71656020D01*
X189051517Y-71536801D01*
X189051517Y-71536795D01*
X189051915Y-71533670D01*
X189053046Y-71490500D01*
X189054154Y-71448160D01*
X189054237Y-71445000D01*
X189039219Y-71242910D01*
X189035973Y-71199228D01*
X189035972Y-71199224D01*
X189035627Y-71194576D01*
X188980207Y-70949653D01*
X188973540Y-70932508D01*
X188890886Y-70719965D01*
X188890885Y-70719963D01*
X188889193Y-70715612D01*
X188884775Y-70707881D01*
X188797226Y-70554703D01*
X188764586Y-70497595D01*
X188609123Y-70300390D01*
X188426218Y-70128331D01*
X188380661Y-70096727D01*
X188223732Y-69987861D01*
X188223729Y-69987859D01*
X188219890Y-69985196D01*
X188215697Y-69983128D01*
X187998860Y-69876196D01*
X187998857Y-69876195D01*
X187994672Y-69874131D01*
X187755512Y-69797575D01*
X187750905Y-69796825D01*
X187750902Y-69796824D01*
X187512273Y-69757961D01*
X187512274Y-69757961D01*
X187507662Y-69757210D01*
X187385729Y-69755614D01*
X187261246Y-69753984D01*
X187261243Y-69753984D01*
X187256569Y-69753923D01*
X187007748Y-69787786D01*
X187003262Y-69789094D01*
X187003260Y-69789094D01*
X186967288Y-69799579D01*
X186766666Y-69858055D01*
X186762413Y-69860015D01*
X186762412Y-69860016D01*
X186729480Y-69875198D01*
X186538618Y-69963187D01*
X186534713Y-69965747D01*
X186534708Y-69965750D01*
X186332527Y-70098305D01*
X186332522Y-70098309D01*
X186328614Y-70100871D01*
X186303904Y-70122926D01*
X186159327Y-70251966D01*
X186141268Y-70268084D01*
X185980695Y-70461152D01*
X185850424Y-70675832D01*
X185848615Y-70680146D01*
X185848614Y-70680148D01*
X185770834Y-70865634D01*
X185753315Y-70907411D01*
X185752164Y-70911943D01*
X185752163Y-70911946D01*
X185697800Y-71126002D01*
X185691502Y-71150799D01*
X185691033Y-71155455D01*
X185691033Y-71155456D01*
X185690554Y-71160211D01*
X185666344Y-71400650D01*
X185666568Y-71405316D01*
X185666568Y-71405322D01*
X185669798Y-71472568D01*
X185678392Y-71651476D01*
X185679305Y-71656064D01*
X185715258Y-71836812D01*
X185727382Y-71897765D01*
X185728961Y-71902163D01*
X185728963Y-71902170D01*
X185786677Y-72062916D01*
X185812237Y-72134108D01*
X185931095Y-72355313D01*
X185933890Y-72359056D01*
X185933892Y-72359059D01*
X186078551Y-72552781D01*
X186078556Y-72552787D01*
X186081343Y-72556519D01*
X186084652Y-72559799D01*
X186084657Y-72559805D01*
X186256364Y-72730020D01*
X186259681Y-72733308D01*
X186263443Y-72736066D01*
X186263446Y-72736069D01*
X186435846Y-72862477D01*
X186462191Y-72881794D01*
X186466334Y-72883974D01*
X186466336Y-72883975D01*
X186680275Y-72996534D01*
X186680280Y-72996536D01*
X186684425Y-72998717D01*
X186688260Y-73000056D01*
X186742628Y-73045459D01*
X186763868Y-73113204D01*
X186745111Y-73181678D01*
X186692311Y-73229141D01*
X186637889Y-73241500D01*
X169616371Y-73241500D01*
X169548250Y-73221498D01*
X169527276Y-73204595D01*
X158340999Y-62018318D01*
X158306973Y-61956006D01*
X158308387Y-61896612D01*
X158352119Y-61733402D01*
X158352119Y-61733400D01*
X158353543Y-61728087D01*
X158373498Y-61500000D01*
X158353543Y-61271913D01*
X158341800Y-61228087D01*
X158295707Y-61056067D01*
X158295706Y-61056065D01*
X158294284Y-61050757D01*
X158287476Y-61036157D01*
X158199849Y-60848238D01*
X158199846Y-60848233D01*
X158197523Y-60843251D01*
X158124098Y-60738389D01*
X158069357Y-60660211D01*
X158069355Y-60660208D01*
X158066198Y-60655700D01*
X157904300Y-60493802D01*
X157899792Y-60490645D01*
X157899789Y-60490643D01*
X157791641Y-60414917D01*
X157716749Y-60362477D01*
X157711767Y-60360154D01*
X157711762Y-60360151D01*
X157514225Y-60268039D01*
X157514224Y-60268039D01*
X157509243Y-60265716D01*
X157503935Y-60264294D01*
X157503933Y-60264293D01*
X157293402Y-60207881D01*
X157293400Y-60207881D01*
X157288087Y-60206457D01*
X157060000Y-60186502D01*
X156831913Y-60206457D01*
X156826600Y-60207881D01*
X156826598Y-60207881D01*
X156616067Y-60264293D01*
X156616065Y-60264294D01*
X156610757Y-60265716D01*
X156605776Y-60268039D01*
X156605775Y-60268039D01*
X156408238Y-60360151D01*
X156408233Y-60360154D01*
X156403251Y-60362477D01*
X156328359Y-60414917D01*
X156220211Y-60490643D01*
X156220208Y-60490645D01*
X156215700Y-60493802D01*
X156053802Y-60655700D01*
X156050645Y-60660208D01*
X156050643Y-60660211D01*
X155995902Y-60738389D01*
X155922477Y-60843251D01*
X155920154Y-60848233D01*
X155920151Y-60848238D01*
X155832524Y-61036157D01*
X155825716Y-61050757D01*
X155824294Y-61056065D01*
X155824293Y-61056067D01*
X155778200Y-61228087D01*
X155766457Y-61271913D01*
X155746502Y-61500000D01*
X155766457Y-61728087D01*
X155767881Y-61733400D01*
X155767881Y-61733402D01*
X155807656Y-61881841D01*
X155825716Y-61949243D01*
X155828039Y-61954224D01*
X155828039Y-61954225D01*
X155920151Y-62151762D01*
X155920154Y-62151767D01*
X155922477Y-62156749D01*
X155975141Y-62231961D01*
X156043683Y-62329848D01*
X156053802Y-62344300D01*
X156215700Y-62506198D01*
X156220208Y-62509355D01*
X156220211Y-62509357D01*
X156259627Y-62536956D01*
X156403251Y-62637523D01*
X156408233Y-62639846D01*
X156408238Y-62639849D01*
X156550054Y-62705978D01*
X156610757Y-62734284D01*
X156616065Y-62735706D01*
X156616067Y-62735707D01*
X156826598Y-62792119D01*
X156826600Y-62792119D01*
X156831913Y-62793543D01*
X156837389Y-62794022D01*
X156837394Y-62794023D01*
X156924486Y-62801642D01*
X156938499Y-62802868D01*
X157004618Y-62828731D01*
X157016613Y-62839294D01*
X168666230Y-74488911D01*
X168678616Y-74503323D01*
X168687149Y-74514918D01*
X168687154Y-74514923D01*
X168691492Y-74520818D01*
X168697070Y-74525557D01*
X168697073Y-74525560D01*
X168731768Y-74555035D01*
X168739284Y-74561965D01*
X168744979Y-74567660D01*
X168747861Y-74569940D01*
X168767251Y-74585281D01*
X168770655Y-74588072D01*
X168820703Y-74630591D01*
X168826285Y-74635333D01*
X168832801Y-74638661D01*
X168837850Y-74642028D01*
X168842979Y-74645195D01*
X168848716Y-74649734D01*
X168914875Y-74680655D01*
X168918769Y-74682558D01*
X168983808Y-74715769D01*
X168990916Y-74717508D01*
X168996559Y-74719607D01*
X169002322Y-74721524D01*
X169008950Y-74724622D01*
X169016112Y-74726112D01*
X169016113Y-74726112D01*
X169080412Y-74739486D01*
X169084696Y-74740456D01*
X169155610Y-74757808D01*
X169161212Y-74758156D01*
X169161215Y-74758156D01*
X169166764Y-74758500D01*
X169166762Y-74758536D01*
X169170755Y-74758775D01*
X169174947Y-74759149D01*
X169182115Y-74760640D01*
X169259520Y-74758546D01*
X169262928Y-74758500D01*
X190932930Y-74758500D01*
X190951880Y-74759933D01*
X190966115Y-74762099D01*
X190966119Y-74762099D01*
X190973349Y-74763199D01*
X190980641Y-74762606D01*
X190980644Y-74762606D01*
X191026018Y-74758915D01*
X191036233Y-74758500D01*
X191044293Y-74758500D01*
X191061680Y-74756473D01*
X191072507Y-74755211D01*
X191076882Y-74754778D01*
X191142339Y-74749454D01*
X191142342Y-74749453D01*
X191149637Y-74748860D01*
X191156601Y-74746604D01*
X191162560Y-74745413D01*
X191168415Y-74744029D01*
X191175681Y-74743182D01*
X191244327Y-74718265D01*
X191248455Y-74716848D01*
X191310936Y-74696607D01*
X191310938Y-74696606D01*
X191317899Y-74694351D01*
X191324154Y-74690555D01*
X191329628Y-74688049D01*
X191335058Y-74685330D01*
X191341937Y-74682833D01*
X191374846Y-74661257D01*
X191402976Y-74642814D01*
X191406680Y-74640477D01*
X191469107Y-74602595D01*
X191477484Y-74595197D01*
X191477508Y-74595224D01*
X191480500Y-74592571D01*
X191483733Y-74589868D01*
X191489852Y-74585856D01*
X191543128Y-74529617D01*
X191545506Y-74527175D01*
X195527276Y-70545405D01*
X195589588Y-70511379D01*
X195616371Y-70508500D01*
X195971000Y-70508500D01*
X196039121Y-70528502D01*
X196085614Y-70582158D01*
X196097000Y-70634500D01*
X196097000Y-71087885D01*
X196101475Y-71103124D01*
X196102865Y-71104329D01*
X196110548Y-71106000D01*
X197240500Y-71106000D01*
X197308621Y-71126002D01*
X197355114Y-71179658D01*
X197366500Y-71232000D01*
X197366500Y-71488000D01*
X197346498Y-71556121D01*
X197292842Y-71602614D01*
X197240500Y-71614000D01*
X196115116Y-71614000D01*
X196099877Y-71618475D01*
X196098672Y-71619865D01*
X196097001Y-71627548D01*
X196097001Y-72154669D01*
X196097371Y-72161490D01*
X196102895Y-72212352D01*
X196106521Y-72227604D01*
X196151676Y-72348054D01*
X196160214Y-72363649D01*
X196236715Y-72465724D01*
X196249276Y-72478285D01*
X196351351Y-72554786D01*
X196366946Y-72563324D01*
X196487394Y-72608478D01*
X196502649Y-72612105D01*
X196553514Y-72617631D01*
X196560328Y-72618000D01*
X196669151Y-72618000D01*
X196737272Y-72638002D01*
X196783765Y-72691658D01*
X196793869Y-72761932D01*
X196764375Y-72826512D01*
X196758246Y-72833095D01*
X192886746Y-76704595D01*
X192824434Y-76738621D01*
X192797651Y-76741500D01*
X161437070Y-76741500D01*
X161418120Y-76740067D01*
X161403885Y-76737901D01*
X161403881Y-76737901D01*
X161396651Y-76736801D01*
X161389359Y-76737394D01*
X161389356Y-76737394D01*
X161343982Y-76741085D01*
X161333767Y-76741500D01*
X161325707Y-76741500D01*
X161322073Y-76741924D01*
X161322067Y-76741924D01*
X161309042Y-76743443D01*
X161297480Y-76744791D01*
X161293132Y-76745221D01*
X161220364Y-76751140D01*
X161213403Y-76753395D01*
X161207463Y-76754582D01*
X161201588Y-76755971D01*
X161194319Y-76756818D01*
X161125670Y-76781736D01*
X161121542Y-76783153D01*
X161059064Y-76803393D01*
X161059062Y-76803394D01*
X161052101Y-76805649D01*
X161045846Y-76809445D01*
X161040372Y-76811951D01*
X161034942Y-76814670D01*
X161028063Y-76817167D01*
X161021943Y-76821180D01*
X161021942Y-76821180D01*
X160967024Y-76857186D01*
X160963320Y-76859523D01*
X160900893Y-76897405D01*
X160892516Y-76904803D01*
X160892492Y-76904776D01*
X160889500Y-76907429D01*
X160886267Y-76910132D01*
X160880148Y-76914144D01*
X160844285Y-76952002D01*
X160826872Y-76970383D01*
X160824494Y-76972825D01*
X159882990Y-77914329D01*
X159820678Y-77948355D01*
X159782913Y-77950755D01*
X159625475Y-77936981D01*
X159620000Y-77936502D01*
X159391913Y-77956457D01*
X159386600Y-77957881D01*
X159386598Y-77957881D01*
X159176067Y-78014293D01*
X159176065Y-78014294D01*
X159170757Y-78015716D01*
X159165776Y-78018039D01*
X159165775Y-78018039D01*
X158968238Y-78110151D01*
X158968233Y-78110154D01*
X158963251Y-78112477D01*
X158878962Y-78171497D01*
X158780211Y-78240643D01*
X158780208Y-78240645D01*
X158775700Y-78243802D01*
X158613802Y-78405700D01*
X158610645Y-78410208D01*
X158610643Y-78410211D01*
X158599876Y-78425588D01*
X158482477Y-78593251D01*
X158480154Y-78598233D01*
X158480151Y-78598238D01*
X158395297Y-78780211D01*
X158385716Y-78800757D01*
X158384294Y-78806065D01*
X158384293Y-78806067D01*
X158340839Y-78968238D01*
X158326457Y-79021913D01*
X158306502Y-79250000D01*
X158326457Y-79478087D01*
X158327881Y-79483400D01*
X158327881Y-79483402D01*
X158328011Y-79483885D01*
X158385716Y-79699243D01*
X158388039Y-79704224D01*
X158388039Y-79704225D01*
X158480151Y-79901762D01*
X158480154Y-79901767D01*
X158482477Y-79906749D01*
X158512656Y-79949849D01*
X158592539Y-80063933D01*
X158613802Y-80094300D01*
X158775700Y-80256198D01*
X158780208Y-80259355D01*
X158780211Y-80259357D01*
X158811488Y-80281257D01*
X158963251Y-80387523D01*
X158968233Y-80389846D01*
X158968238Y-80389849D01*
X159136258Y-80468197D01*
X159170757Y-80484284D01*
X159176065Y-80485706D01*
X159176067Y-80485707D01*
X159386598Y-80542119D01*
X159386600Y-80542119D01*
X159391913Y-80543543D01*
X159620000Y-80563498D01*
X159848087Y-80543543D01*
X159853400Y-80542119D01*
X159853402Y-80542119D01*
X160063933Y-80485707D01*
X160063935Y-80485706D01*
X160069243Y-80484284D01*
X160103742Y-80468197D01*
X160271762Y-80389849D01*
X160271767Y-80389846D01*
X160276749Y-80387523D01*
X160428512Y-80281257D01*
X160459789Y-80259357D01*
X160459792Y-80259355D01*
X160464300Y-80256198D01*
X160626198Y-80094300D01*
X160647462Y-80063933D01*
X160727344Y-79949849D01*
X160757523Y-79906749D01*
X160759846Y-79901767D01*
X160759849Y-79901762D01*
X160851961Y-79704225D01*
X160851961Y-79704224D01*
X160854284Y-79699243D01*
X160911990Y-79483885D01*
X160912119Y-79483402D01*
X160912119Y-79483400D01*
X160913543Y-79478087D01*
X160933498Y-79250000D01*
X160930263Y-79213019D01*
X160919245Y-79087087D01*
X160933234Y-79017482D01*
X160955671Y-78987010D01*
X161647276Y-78295405D01*
X161709588Y-78261379D01*
X161736371Y-78258500D01*
X162013502Y-78258500D01*
X162081623Y-78278502D01*
X162128116Y-78332158D01*
X162138220Y-78402432D01*
X162108726Y-78467012D01*
X162085773Y-78487713D01*
X161910211Y-78610643D01*
X161910208Y-78610645D01*
X161905700Y-78613802D01*
X161743802Y-78775700D01*
X161740645Y-78780208D01*
X161740643Y-78780211D01*
X161721346Y-78807770D01*
X161612477Y-78963251D01*
X161610154Y-78968233D01*
X161610151Y-78968238D01*
X161518039Y-79165775D01*
X161515716Y-79170757D01*
X161514294Y-79176065D01*
X161514293Y-79176067D01*
X161460898Y-79375339D01*
X161456457Y-79391913D01*
X161436502Y-79620000D01*
X161456457Y-79848087D01*
X161457881Y-79853400D01*
X161457881Y-79853402D01*
X161509410Y-80045707D01*
X161515716Y-80069243D01*
X161518039Y-80074224D01*
X161518039Y-80074225D01*
X161610151Y-80271762D01*
X161610154Y-80271767D01*
X161612477Y-80276749D01*
X161743802Y-80464300D01*
X161905700Y-80626198D01*
X161910208Y-80629355D01*
X161910211Y-80629357D01*
X161988389Y-80684098D01*
X162093251Y-80757523D01*
X162098233Y-80759846D01*
X162098238Y-80759849D01*
X162286354Y-80847568D01*
X162300757Y-80854284D01*
X162306065Y-80855706D01*
X162306067Y-80855707D01*
X162516598Y-80912119D01*
X162516600Y-80912119D01*
X162521913Y-80913543D01*
X162750000Y-80933498D01*
X162978087Y-80913543D01*
X162983400Y-80912119D01*
X162983402Y-80912119D01*
X163193933Y-80855707D01*
X163193935Y-80855706D01*
X163199243Y-80854284D01*
X163213646Y-80847568D01*
X163401762Y-80759849D01*
X163401767Y-80759846D01*
X163406749Y-80757523D01*
X163511611Y-80684098D01*
X163589789Y-80629357D01*
X163589792Y-80629355D01*
X163594300Y-80626198D01*
X163756198Y-80464300D01*
X163778655Y-80432229D01*
X163834110Y-80387901D01*
X163881867Y-80378500D01*
X196812930Y-80378500D01*
X196831880Y-80379933D01*
X196846115Y-80382099D01*
X196846119Y-80382099D01*
X196853349Y-80383199D01*
X196860641Y-80382606D01*
X196860644Y-80382606D01*
X196906018Y-80378915D01*
X196916233Y-80378500D01*
X196924293Y-80378500D01*
X196937583Y-80376951D01*
X196952507Y-80375211D01*
X196956882Y-80374778D01*
X197022339Y-80369454D01*
X197022342Y-80369453D01*
X197029637Y-80368860D01*
X197036601Y-80366604D01*
X197042560Y-80365413D01*
X197048415Y-80364029D01*
X197055681Y-80363182D01*
X197124327Y-80338265D01*
X197128455Y-80336848D01*
X197190936Y-80316607D01*
X197190938Y-80316606D01*
X197197899Y-80314351D01*
X197204154Y-80310555D01*
X197209628Y-80308049D01*
X197215058Y-80305330D01*
X197221937Y-80302833D01*
X197254846Y-80281257D01*
X197282976Y-80262814D01*
X197286680Y-80260477D01*
X197349107Y-80222595D01*
X197357484Y-80215197D01*
X197357508Y-80215224D01*
X197360500Y-80212571D01*
X197363733Y-80209868D01*
X197369852Y-80205856D01*
X197423128Y-80149617D01*
X197425506Y-80147175D01*
X198888911Y-78683770D01*
X198903323Y-78671384D01*
X198914918Y-78662851D01*
X198914923Y-78662846D01*
X198920818Y-78658508D01*
X198925557Y-78652930D01*
X198925560Y-78652927D01*
X198955035Y-78618232D01*
X198961965Y-78610716D01*
X198967661Y-78605020D01*
X198969924Y-78602159D01*
X198969929Y-78602154D01*
X198985285Y-78582744D01*
X198988074Y-78579342D01*
X199030596Y-78529291D01*
X199030597Y-78529290D01*
X199035333Y-78523715D01*
X199038661Y-78517198D01*
X199042027Y-78512150D01*
X199045190Y-78507028D01*
X199049735Y-78501284D01*
X199080664Y-78435105D01*
X199082563Y-78431221D01*
X199115769Y-78366192D01*
X199117510Y-78359077D01*
X199119613Y-78353422D01*
X199121522Y-78347683D01*
X199124622Y-78341050D01*
X199139491Y-78269565D01*
X199140461Y-78265282D01*
X199142019Y-78258915D01*
X199157808Y-78194390D01*
X199158202Y-78188049D01*
X199158500Y-78183236D01*
X199158535Y-78183238D01*
X199158775Y-78179266D01*
X199159152Y-78175045D01*
X199160641Y-78167885D01*
X199159431Y-78123179D01*
X199177583Y-78054543D01*
X199229961Y-78006615D01*
X199299936Y-77994614D01*
X199322644Y-77999406D01*
X199455293Y-78040468D01*
X199455296Y-78040469D01*
X199461180Y-78042290D01*
X199467305Y-78042934D01*
X199467306Y-78042934D01*
X199656622Y-78062832D01*
X199656623Y-78062832D01*
X199662750Y-78063476D01*
X199772090Y-78053525D01*
X199858457Y-78045665D01*
X199858460Y-78045664D01*
X199864596Y-78045106D01*
X199870502Y-78043368D01*
X199870506Y-78043367D01*
X200053120Y-77989620D01*
X200053119Y-77989620D01*
X200059029Y-77987881D01*
X200064486Y-77985028D01*
X200064489Y-77985027D01*
X200179991Y-77924644D01*
X200238645Y-77893981D01*
X200396601Y-77766981D01*
X200526881Y-77611719D01*
X200529845Y-77606327D01*
X200529848Y-77606323D01*
X200621556Y-77439506D01*
X200624523Y-77434109D01*
X200685807Y-77240916D01*
X200687401Y-77226713D01*
X200698405Y-77128606D01*
X200703500Y-77083183D01*
X200703500Y-76523996D01*
X200688723Y-76373287D01*
X200630142Y-76179258D01*
X200534990Y-76000302D01*
X200406890Y-75843237D01*
X200394539Y-75833019D01*
X200255472Y-75717973D01*
X200255469Y-75717971D01*
X200250722Y-75714044D01*
X200072435Y-75617644D01*
X199963407Y-75583894D01*
X199884707Y-75559532D01*
X199884704Y-75559531D01*
X199878820Y-75557710D01*
X199872695Y-75557066D01*
X199872694Y-75557066D01*
X199683378Y-75537168D01*
X199683377Y-75537168D01*
X199677250Y-75536524D01*
X199598709Y-75543672D01*
X199481543Y-75554335D01*
X199481540Y-75554336D01*
X199475404Y-75554894D01*
X199469498Y-75556632D01*
X199469494Y-75556633D01*
X199353739Y-75590702D01*
X199280971Y-75612119D01*
X199275514Y-75614972D01*
X199275511Y-75614973D01*
X199228706Y-75639442D01*
X199101540Y-75705923D01*
X199101538Y-75705923D01*
X199101355Y-75706019D01*
X199101337Y-75705984D01*
X199035559Y-75725889D01*
X198974591Y-75710729D01*
X198965815Y-75705984D01*
X198802435Y-75617644D01*
X198693407Y-75583894D01*
X198614707Y-75559532D01*
X198614704Y-75559531D01*
X198608820Y-75557710D01*
X198602695Y-75557066D01*
X198602694Y-75557066D01*
X198413378Y-75537168D01*
X198413377Y-75537168D01*
X198407250Y-75536524D01*
X198328709Y-75543672D01*
X198211543Y-75554335D01*
X198211540Y-75554336D01*
X198205404Y-75554894D01*
X198199498Y-75556632D01*
X198199494Y-75556633D01*
X198108188Y-75583506D01*
X198010971Y-75612119D01*
X198010771Y-75611441D01*
X197944727Y-75617956D01*
X197907677Y-75604680D01*
X197893063Y-75596679D01*
X197772606Y-75551522D01*
X197757351Y-75547895D01*
X197706486Y-75542369D01*
X197699672Y-75542000D01*
X197402115Y-75542000D01*
X197386876Y-75546475D01*
X197385671Y-75547865D01*
X197384000Y-75555548D01*
X197384000Y-76353758D01*
X197383215Y-76367803D01*
X197366500Y-76516817D01*
X197366500Y-77076004D01*
X197381277Y-77226713D01*
X197381968Y-77229002D01*
X197384000Y-77249724D01*
X197384000Y-77991129D01*
X197363998Y-78059250D01*
X197347095Y-78080224D01*
X196602724Y-78824595D01*
X196540412Y-78858621D01*
X196513629Y-78861500D01*
X163881867Y-78861500D01*
X163813746Y-78841498D01*
X163778655Y-78807772D01*
X163756198Y-78775700D01*
X163594300Y-78613802D01*
X163589792Y-78610645D01*
X163589789Y-78610643D01*
X163414227Y-78487713D01*
X163369899Y-78432256D01*
X163362590Y-78361636D01*
X163394621Y-78298276D01*
X163455822Y-78262291D01*
X163486498Y-78258500D01*
X193096952Y-78258500D01*
X193115902Y-78259933D01*
X193130137Y-78262099D01*
X193130141Y-78262099D01*
X193137371Y-78263199D01*
X193144663Y-78262606D01*
X193144666Y-78262606D01*
X193190040Y-78258915D01*
X193200255Y-78258500D01*
X193208315Y-78258500D01*
X193221605Y-78256951D01*
X193236529Y-78255211D01*
X193240904Y-78254778D01*
X193306361Y-78249454D01*
X193306364Y-78249453D01*
X193313659Y-78248860D01*
X193320623Y-78246604D01*
X193326582Y-78245413D01*
X193332437Y-78244029D01*
X193339703Y-78243182D01*
X193408349Y-78218265D01*
X193412477Y-78216848D01*
X193474958Y-78196607D01*
X193474960Y-78196606D01*
X193481921Y-78194351D01*
X193488176Y-78190555D01*
X193493650Y-78188049D01*
X193499080Y-78185330D01*
X193505959Y-78182833D01*
X193523249Y-78171497D01*
X193566998Y-78142814D01*
X193570702Y-78140477D01*
X193633129Y-78102595D01*
X193641506Y-78095197D01*
X193641530Y-78095224D01*
X193644522Y-78092571D01*
X193647755Y-78089868D01*
X193653874Y-78085856D01*
X193707150Y-78029617D01*
X193709528Y-78027175D01*
X194142034Y-77594669D01*
X196097001Y-77594669D01*
X196097371Y-77601490D01*
X196102895Y-77652352D01*
X196106521Y-77667604D01*
X196151676Y-77788054D01*
X196160214Y-77803649D01*
X196236715Y-77905724D01*
X196249276Y-77918285D01*
X196351351Y-77994786D01*
X196366946Y-78003324D01*
X196487394Y-78048478D01*
X196502649Y-78052105D01*
X196553514Y-78057631D01*
X196560328Y-78058000D01*
X196857885Y-78058000D01*
X196873124Y-78053525D01*
X196874329Y-78052135D01*
X196876000Y-78044452D01*
X196876000Y-77072115D01*
X196871525Y-77056876D01*
X196870135Y-77055671D01*
X196862452Y-77054000D01*
X196115116Y-77054000D01*
X196099877Y-77058475D01*
X196098672Y-77059865D01*
X196097001Y-77067548D01*
X196097001Y-77594669D01*
X194142034Y-77594669D01*
X195888144Y-75848559D01*
X195950456Y-75814533D01*
X196021271Y-75819598D01*
X196078107Y-75862145D01*
X196102918Y-75928665D01*
X196102502Y-75951261D01*
X196097369Y-75998512D01*
X196097000Y-76005328D01*
X196097000Y-76527885D01*
X196101475Y-76543124D01*
X196102865Y-76544329D01*
X196110548Y-76546000D01*
X196857885Y-76546000D01*
X196873124Y-76541525D01*
X196874329Y-76540135D01*
X196876000Y-76532452D01*
X196876000Y-75560116D01*
X196871525Y-75544877D01*
X196870135Y-75543672D01*
X196862452Y-75542001D01*
X196560331Y-75542001D01*
X196553512Y-75542370D01*
X196506259Y-75547503D01*
X196436377Y-75534974D01*
X196384362Y-75486653D01*
X196366728Y-75417881D01*
X196389075Y-75350493D01*
X196403558Y-75333145D01*
X198888911Y-72847792D01*
X198903323Y-72835406D01*
X198914918Y-72826873D01*
X198914923Y-72826868D01*
X198920818Y-72822530D01*
X198925557Y-72816952D01*
X198925560Y-72816949D01*
X198955035Y-72782254D01*
X198961965Y-72774738D01*
X198967660Y-72769043D01*
X198985281Y-72746771D01*
X198988072Y-72743366D01*
X198994272Y-72736069D01*
X199017103Y-72709194D01*
X199076453Y-72670231D01*
X199147446Y-72669539D01*
X199202223Y-72701680D01*
X199569085Y-73068542D01*
X199581926Y-73083577D01*
X199585927Y-73089084D01*
X199585932Y-73089090D01*
X199589815Y-73094434D01*
X199594725Y-73098855D01*
X199594726Y-73098856D01*
X199639194Y-73138895D01*
X199643970Y-73143427D01*
X199658015Y-73157472D01*
X199660575Y-73159545D01*
X199660576Y-73159546D01*
X199673443Y-73169966D01*
X199678453Y-73174246D01*
X199722921Y-73214284D01*
X199722926Y-73214288D01*
X199727831Y-73218704D01*
X199733543Y-73222002D01*
X199733546Y-73222004D01*
X199739446Y-73225410D01*
X199755741Y-73236609D01*
X199766161Y-73245047D01*
X199825363Y-73275213D01*
X199831133Y-73278346D01*
X199882945Y-73308260D01*
X199882950Y-73308262D01*
X199888669Y-73311564D01*
X199894949Y-73313605D01*
X199894957Y-73313608D01*
X199901421Y-73315708D01*
X199919683Y-73323272D01*
X199925749Y-73326363D01*
X199925758Y-73326366D01*
X199931637Y-73329362D01*
X199938015Y-73331071D01*
X199995804Y-73346556D01*
X200002106Y-73348422D01*
X200065298Y-73368954D01*
X200078205Y-73370311D01*
X200078628Y-73370355D01*
X200098071Y-73373958D01*
X200111029Y-73377430D01*
X200117619Y-73377775D01*
X200117623Y-73377776D01*
X200161573Y-73380079D01*
X200177372Y-73380907D01*
X200183931Y-73381423D01*
X200203694Y-73383500D01*
X200223555Y-73383500D01*
X200230150Y-73383673D01*
X200289902Y-73386805D01*
X200289906Y-73386805D01*
X200296493Y-73387150D01*
X200309747Y-73385051D01*
X200329456Y-73383500D01*
X202046286Y-73383500D01*
X202114407Y-73403502D01*
X202160900Y-73457158D01*
X202171004Y-73527432D01*
X202142098Y-73591328D01*
X202001164Y-73756341D01*
X201869534Y-73971141D01*
X201867641Y-73975711D01*
X201867639Y-73975715D01*
X201776280Y-74196277D01*
X201773127Y-74203889D01*
X201771972Y-74208701D01*
X201715498Y-74443933D01*
X201714317Y-74448852D01*
X201694551Y-74700000D01*
X201714317Y-74951148D01*
X201715471Y-74955955D01*
X201715472Y-74955961D01*
X201738794Y-75053102D01*
X201773127Y-75196111D01*
X201775020Y-75200682D01*
X201775021Y-75200684D01*
X201864987Y-75417881D01*
X201869534Y-75428859D01*
X202001164Y-75643659D01*
X202004376Y-75647419D01*
X202004379Y-75647424D01*
X202069311Y-75723449D01*
X202098342Y-75788238D01*
X202099500Y-75805279D01*
X202099500Y-77671304D01*
X202079498Y-77739425D01*
X202069311Y-77753134D01*
X201984379Y-77852576D01*
X201984376Y-77852581D01*
X201981164Y-77856341D01*
X201891092Y-78003324D01*
X201854231Y-78063477D01*
X201849534Y-78071141D01*
X201847641Y-78075711D01*
X201847639Y-78075715D01*
X201760485Y-78286125D01*
X201753127Y-78303889D01*
X201736604Y-78372713D01*
X201700352Y-78523715D01*
X201694317Y-78548852D01*
X201674551Y-78800000D01*
X201694317Y-79051148D01*
X201695471Y-79055955D01*
X201695472Y-79055961D01*
X201723032Y-79170757D01*
X201753127Y-79296111D01*
X201755020Y-79300682D01*
X201755021Y-79300684D01*
X201828504Y-79478087D01*
X201849534Y-79528859D01*
X201981164Y-79743659D01*
X201984376Y-79747419D01*
X201984379Y-79747424D01*
X202070354Y-79848087D01*
X202144776Y-79935224D01*
X202148538Y-79938437D01*
X202332576Y-80095621D01*
X202332581Y-80095624D01*
X202336341Y-80098836D01*
X202551141Y-80230466D01*
X202555711Y-80232359D01*
X202555715Y-80232361D01*
X202779316Y-80324979D01*
X202783889Y-80326873D01*
X202868289Y-80347135D01*
X203024039Y-80384528D01*
X203024045Y-80384529D01*
X203028852Y-80385683D01*
X203280000Y-80405449D01*
X203531148Y-80385683D01*
X203535955Y-80384529D01*
X203535961Y-80384528D01*
X203691711Y-80347135D01*
X203776111Y-80326873D01*
X203780684Y-80324979D01*
X204004285Y-80232361D01*
X204004289Y-80232359D01*
X204008859Y-80230466D01*
X204223659Y-80098836D01*
X204227419Y-80095624D01*
X204227424Y-80095621D01*
X204411462Y-79938437D01*
X204415224Y-79935224D01*
X204489646Y-79848087D01*
X204575621Y-79747424D01*
X204575624Y-79747419D01*
X204578836Y-79743659D01*
X204710466Y-79528859D01*
X204731497Y-79478087D01*
X204804979Y-79300684D01*
X204804980Y-79300682D01*
X204806873Y-79296111D01*
X204836968Y-79170757D01*
X204864528Y-79055961D01*
X204864529Y-79055955D01*
X204865683Y-79051148D01*
X204885449Y-78800000D01*
X204865683Y-78548852D01*
X204859649Y-78523715D01*
X204823396Y-78372713D01*
X204806873Y-78303889D01*
X204796358Y-78278502D01*
X204710466Y-78071141D01*
X204712091Y-78070468D01*
X204700500Y-78022187D01*
X204700500Y-75513295D01*
X204719068Y-75447459D01*
X204727878Y-75433082D01*
X204727880Y-75433079D01*
X204730466Y-75428859D01*
X204735014Y-75417881D01*
X204824979Y-75200684D01*
X204824980Y-75200682D01*
X204826873Y-75196111D01*
X204861206Y-75053102D01*
X204884528Y-74955961D01*
X204884529Y-74955955D01*
X204885683Y-74951148D01*
X204905449Y-74700000D01*
X204885683Y-74448852D01*
X204884503Y-74443933D01*
X204828028Y-74208701D01*
X204826873Y-74203889D01*
X204823720Y-74196277D01*
X204732361Y-73975715D01*
X204732359Y-73975711D01*
X204730466Y-73971141D01*
X204598836Y-73756341D01*
X204457902Y-73591328D01*
X204428872Y-73526541D01*
X204439477Y-73456341D01*
X204486352Y-73403018D01*
X204553714Y-73383500D01*
X210119236Y-73383500D01*
X210187357Y-73403502D01*
X210233850Y-73457158D01*
X210243954Y-73527432D01*
X210214460Y-73592012D01*
X210191507Y-73612713D01*
X210080211Y-73690643D01*
X210080208Y-73690645D01*
X210075700Y-73693802D01*
X209913802Y-73855700D01*
X209782477Y-74043251D01*
X209780154Y-74048233D01*
X209780151Y-74048238D01*
X209715242Y-74187438D01*
X209685716Y-74250757D01*
X209684294Y-74256065D01*
X209684293Y-74256067D01*
X209629641Y-74460031D01*
X209626457Y-74471913D01*
X209606502Y-74700000D01*
X209626457Y-74928087D01*
X209627881Y-74933400D01*
X209627881Y-74933402D01*
X209682248Y-75136299D01*
X209685716Y-75149243D01*
X209688039Y-75154224D01*
X209688039Y-75154225D01*
X209780151Y-75351762D01*
X209780154Y-75351767D01*
X209782477Y-75356749D01*
X209832969Y-75428859D01*
X209908749Y-75537083D01*
X209913802Y-75544300D01*
X209930519Y-75561017D01*
X209962421Y-75614958D01*
X209979091Y-75672336D01*
X209981544Y-75677068D01*
X209983084Y-75682169D01*
X209985978Y-75687612D01*
X210026731Y-75764260D01*
X210027343Y-75765426D01*
X210049081Y-75807361D01*
X210070108Y-75847926D01*
X210073431Y-75852089D01*
X210075934Y-75856796D01*
X210134755Y-75928918D01*
X210135446Y-75929774D01*
X210166738Y-75968973D01*
X210169242Y-75971477D01*
X210169884Y-75972195D01*
X210173585Y-75976528D01*
X210200935Y-76010062D01*
X210229104Y-76033365D01*
X210236264Y-76039288D01*
X210245045Y-76047279D01*
X210767145Y-76569379D01*
X210776247Y-76579522D01*
X210799968Y-76609025D01*
X210804696Y-76612992D01*
X210838421Y-76641291D01*
X210842069Y-76644472D01*
X210843881Y-76646115D01*
X210846075Y-76648309D01*
X210879349Y-76675642D01*
X210880147Y-76676304D01*
X210951474Y-76736154D01*
X210956144Y-76738722D01*
X210960261Y-76742103D01*
X210987705Y-76756818D01*
X211042086Y-76785977D01*
X211043245Y-76786606D01*
X211119381Y-76828462D01*
X211119389Y-76828465D01*
X211124787Y-76831433D01*
X211129869Y-76833045D01*
X211134563Y-76835562D01*
X211223531Y-76862762D01*
X211224559Y-76863082D01*
X211313306Y-76891235D01*
X211318602Y-76891829D01*
X211323698Y-76893387D01*
X211416257Y-76902790D01*
X211417393Y-76902911D01*
X211451008Y-76906681D01*
X211463730Y-76908108D01*
X211463734Y-76908108D01*
X211467227Y-76908500D01*
X211470754Y-76908500D01*
X211471739Y-76908555D01*
X211477419Y-76909002D01*
X211506825Y-76911989D01*
X211514337Y-76912752D01*
X211514339Y-76912752D01*
X211520462Y-76913374D01*
X211566108Y-76909059D01*
X211577967Y-76908500D01*
X212454829Y-76908500D01*
X212522950Y-76928502D01*
X212569443Y-76982158D01*
X212579547Y-77052432D01*
X212558043Y-77106770D01*
X212462477Y-77243251D01*
X212460154Y-77248233D01*
X212460151Y-77248238D01*
X212373479Y-77434109D01*
X212365716Y-77450757D01*
X212364294Y-77456065D01*
X212364293Y-77456067D01*
X212308985Y-77662477D01*
X212306457Y-77671913D01*
X212286502Y-77900000D01*
X212306457Y-78128087D01*
X212307881Y-78133402D01*
X212308836Y-78138817D01*
X212306266Y-78139270D01*
X212304889Y-78199290D01*
X212265146Y-78258120D01*
X212199906Y-78286125D01*
X212129883Y-78274412D01*
X212077307Y-78226702D01*
X212070644Y-78214279D01*
X212039849Y-78148238D01*
X212039846Y-78148233D01*
X212037523Y-78143251D01*
X211956800Y-78027967D01*
X211909357Y-77960211D01*
X211909355Y-77960208D01*
X211906198Y-77955700D01*
X211744300Y-77793802D01*
X211739792Y-77790645D01*
X211739789Y-77790643D01*
X211651681Y-77728949D01*
X211556749Y-77662477D01*
X211551767Y-77660154D01*
X211551762Y-77660151D01*
X211354225Y-77568039D01*
X211354224Y-77568039D01*
X211349243Y-77565716D01*
X211343935Y-77564294D01*
X211343933Y-77564293D01*
X211133402Y-77507881D01*
X211133400Y-77507881D01*
X211128087Y-77506457D01*
X210900000Y-77486502D01*
X210671913Y-77506457D01*
X210666600Y-77507881D01*
X210666598Y-77507881D01*
X210456067Y-77564293D01*
X210456065Y-77564294D01*
X210450757Y-77565716D01*
X210445776Y-77568039D01*
X210445775Y-77568039D01*
X210248238Y-77660151D01*
X210248233Y-77660154D01*
X210243251Y-77662477D01*
X210148319Y-77728949D01*
X210060211Y-77790643D01*
X210060208Y-77790645D01*
X210055700Y-77793802D01*
X209893802Y-77955700D01*
X209890645Y-77960208D01*
X209890643Y-77960211D01*
X209843200Y-78027967D01*
X209762477Y-78143251D01*
X209760154Y-78148233D01*
X209760151Y-78148238D01*
X209705573Y-78265282D01*
X209665716Y-78350757D01*
X209664294Y-78356065D01*
X209664293Y-78356067D01*
X209613926Y-78544039D01*
X209606457Y-78571913D01*
X209586502Y-78800000D01*
X209606457Y-79028087D01*
X209607881Y-79033400D01*
X209607881Y-79033402D01*
X209662907Y-79238758D01*
X209665716Y-79249243D01*
X209668039Y-79254224D01*
X209668039Y-79254225D01*
X209760151Y-79451762D01*
X209760154Y-79451767D01*
X209762477Y-79456749D01*
X209812969Y-79528859D01*
X209880621Y-79625475D01*
X209893802Y-79644300D01*
X210055700Y-79806198D01*
X210060208Y-79809355D01*
X210060211Y-79809357D01*
X210123114Y-79853402D01*
X210243251Y-79937523D01*
X210248233Y-79939846D01*
X210248238Y-79939849D01*
X210445775Y-80031961D01*
X210450757Y-80034284D01*
X210456065Y-80035706D01*
X210456067Y-80035707D01*
X210666598Y-80092119D01*
X210666600Y-80092119D01*
X210671913Y-80093543D01*
X210900000Y-80113498D01*
X211128087Y-80093543D01*
X211133400Y-80092119D01*
X211133402Y-80092119D01*
X211343933Y-80035707D01*
X211343935Y-80035706D01*
X211349243Y-80034284D01*
X211354225Y-80031961D01*
X211551762Y-79939849D01*
X211551767Y-79939846D01*
X211556749Y-79937523D01*
X211676886Y-79853402D01*
X211739789Y-79809357D01*
X211739792Y-79809355D01*
X211744300Y-79806198D01*
X211906198Y-79644300D01*
X211919380Y-79625475D01*
X211987031Y-79528859D01*
X212037523Y-79456749D01*
X212039846Y-79451767D01*
X212039849Y-79451762D01*
X212131961Y-79254225D01*
X212131961Y-79254224D01*
X212134284Y-79249243D01*
X212137094Y-79238758D01*
X212192119Y-79033402D01*
X212192119Y-79033400D01*
X212193543Y-79028087D01*
X212213498Y-78800000D01*
X212193543Y-78571913D01*
X212192119Y-78566597D01*
X212191164Y-78561183D01*
X212193734Y-78560730D01*
X212195111Y-78500710D01*
X212234854Y-78441880D01*
X212300094Y-78413875D01*
X212370117Y-78425588D01*
X212422693Y-78473298D01*
X212429356Y-78485721D01*
X212460151Y-78551762D01*
X212460154Y-78551767D01*
X212462477Y-78556749D01*
X212480679Y-78582744D01*
X212542746Y-78671384D01*
X212593802Y-78744300D01*
X212755700Y-78906198D01*
X212760208Y-78909355D01*
X212760211Y-78909357D01*
X212830742Y-78958743D01*
X212943251Y-79037523D01*
X212948233Y-79039846D01*
X212948238Y-79039849D01*
X213144765Y-79131490D01*
X213150757Y-79134284D01*
X213156065Y-79135706D01*
X213156067Y-79135707D01*
X213366598Y-79192119D01*
X213366600Y-79192119D01*
X213371913Y-79193543D01*
X213600000Y-79213498D01*
X213828087Y-79193543D01*
X213833400Y-79192119D01*
X213833402Y-79192119D01*
X214043933Y-79135707D01*
X214043935Y-79135706D01*
X214049243Y-79134284D01*
X214055235Y-79131490D01*
X214251762Y-79039849D01*
X214251767Y-79039846D01*
X214256749Y-79037523D01*
X214369258Y-78958743D01*
X214439789Y-78909357D01*
X214439792Y-78909355D01*
X214444300Y-78906198D01*
X214606198Y-78744300D01*
X214657255Y-78671384D01*
X214719321Y-78582744D01*
X214737523Y-78556749D01*
X214739846Y-78551767D01*
X214739849Y-78551762D01*
X214831961Y-78354225D01*
X214831961Y-78354224D01*
X214834284Y-78349243D01*
X214836480Y-78341050D01*
X214883245Y-78166522D01*
X219937273Y-78166522D01*
X219984764Y-78343761D01*
X219988510Y-78354053D01*
X220080586Y-78551511D01*
X220086069Y-78561007D01*
X220211028Y-78739467D01*
X220218084Y-78747875D01*
X220372125Y-78901916D01*
X220380533Y-78908972D01*
X220558993Y-79033931D01*
X220568489Y-79039414D01*
X220765947Y-79131490D01*
X220776239Y-79135236D01*
X220948503Y-79181394D01*
X220962599Y-79181058D01*
X220966000Y-79173116D01*
X220966000Y-79167967D01*
X221474000Y-79167967D01*
X221477973Y-79181498D01*
X221486522Y-79182727D01*
X221663761Y-79135236D01*
X221674053Y-79131490D01*
X221871511Y-79039414D01*
X221881007Y-79033931D01*
X222059467Y-78908972D01*
X222067875Y-78901916D01*
X222221916Y-78747875D01*
X222228972Y-78739467D01*
X222353931Y-78561007D01*
X222359414Y-78551511D01*
X222451490Y-78354053D01*
X222455236Y-78343761D01*
X222501394Y-78171497D01*
X222501058Y-78157401D01*
X222493116Y-78154000D01*
X221492115Y-78154000D01*
X221476876Y-78158475D01*
X221475671Y-78159865D01*
X221474000Y-78167548D01*
X221474000Y-79167967D01*
X220966000Y-79167967D01*
X220966000Y-78172115D01*
X220961525Y-78156876D01*
X220960135Y-78155671D01*
X220952452Y-78154000D01*
X219952033Y-78154000D01*
X219938502Y-78157973D01*
X219937273Y-78166522D01*
X214883245Y-78166522D01*
X214892119Y-78133402D01*
X214892119Y-78133400D01*
X214893543Y-78128087D01*
X214913498Y-77900000D01*
X214893543Y-77671913D01*
X214891015Y-77662477D01*
X214835707Y-77456067D01*
X214835706Y-77456065D01*
X214834284Y-77450757D01*
X214826521Y-77434109D01*
X214739849Y-77248238D01*
X214739846Y-77248233D01*
X214737523Y-77243251D01*
X214641958Y-77106770D01*
X214619270Y-77039497D01*
X214636555Y-76970637D01*
X214688324Y-76922052D01*
X214745171Y-76908500D01*
X220075439Y-76908500D01*
X220143560Y-76928502D01*
X220190053Y-76982158D01*
X220200157Y-77052432D01*
X220178652Y-77106771D01*
X220086069Y-77238993D01*
X220080586Y-77248489D01*
X219988510Y-77445947D01*
X219984764Y-77456239D01*
X219938606Y-77628503D01*
X219938942Y-77642599D01*
X219946884Y-77646000D01*
X222487967Y-77646000D01*
X222501498Y-77642027D01*
X222502727Y-77633478D01*
X222455236Y-77456239D01*
X222451490Y-77445947D01*
X222359414Y-77248489D01*
X222353931Y-77238993D01*
X222261348Y-77106771D01*
X222238660Y-77039497D01*
X222255945Y-76970636D01*
X222307715Y-76922052D01*
X222364561Y-76908500D01*
X223656024Y-76908500D01*
X223724145Y-76928502D01*
X223751261Y-76952002D01*
X223792864Y-77000030D01*
X223792869Y-77000035D01*
X223796250Y-77003938D01*
X223968126Y-77146632D01*
X224161000Y-77259338D01*
X224165825Y-77261180D01*
X224165826Y-77261181D01*
X224203675Y-77275634D01*
X224369692Y-77339030D01*
X224374760Y-77340061D01*
X224374763Y-77340062D01*
X224482017Y-77361883D01*
X224588597Y-77383567D01*
X224593772Y-77383757D01*
X224593774Y-77383757D01*
X224806673Y-77391564D01*
X224806677Y-77391564D01*
X224811837Y-77391753D01*
X224816957Y-77391097D01*
X224816959Y-77391097D01*
X225028288Y-77364025D01*
X225028289Y-77364025D01*
X225033416Y-77363368D01*
X225038366Y-77361883D01*
X225242429Y-77300661D01*
X225242434Y-77300659D01*
X225247384Y-77299174D01*
X225447994Y-77200896D01*
X225629860Y-77071173D01*
X225642603Y-77058475D01*
X225784435Y-76917137D01*
X225788096Y-76913489D01*
X225791642Y-76908555D01*
X225915435Y-76736277D01*
X225918453Y-76732077D01*
X225932036Y-76704595D01*
X226015136Y-76536453D01*
X226015137Y-76536451D01*
X226017430Y-76531811D01*
X226063730Y-76379420D01*
X226080865Y-76323023D01*
X226080865Y-76323021D01*
X226082370Y-76318069D01*
X226111529Y-76096590D01*
X226113156Y-76030000D01*
X226094852Y-75807361D01*
X226040431Y-75590702D01*
X225951354Y-75385840D01*
X225864429Y-75251474D01*
X225832822Y-75202617D01*
X225832820Y-75202614D01*
X225830014Y-75198277D01*
X225679670Y-75033051D01*
X225675619Y-75029852D01*
X225675615Y-75029848D01*
X225508414Y-74897800D01*
X225508410Y-74897798D01*
X225504359Y-74894598D01*
X225463053Y-74871796D01*
X225413084Y-74821364D01*
X225398312Y-74751921D01*
X225423428Y-74685516D01*
X225450780Y-74658909D01*
X225494603Y-74627650D01*
X225629860Y-74531173D01*
X225657808Y-74503323D01*
X225757135Y-74404342D01*
X225788096Y-74373489D01*
X225847594Y-74290689D01*
X225915435Y-74196277D01*
X225918453Y-74192077D01*
X225936274Y-74156020D01*
X226015136Y-73996453D01*
X226015137Y-73996451D01*
X226017430Y-73991811D01*
X226082370Y-73778069D01*
X226111529Y-73556590D01*
X226111627Y-73552596D01*
X226113074Y-73493365D01*
X226113074Y-73493361D01*
X226113156Y-73490000D01*
X226112478Y-73481742D01*
X226099449Y-73323272D01*
X226094852Y-73267361D01*
X226040431Y-73050702D01*
X225951354Y-72845840D01*
X225898599Y-72764293D01*
X225832822Y-72662617D01*
X225832820Y-72662614D01*
X225830014Y-72658277D01*
X225679670Y-72493051D01*
X225675619Y-72489852D01*
X225675615Y-72489848D01*
X225508414Y-72357800D01*
X225508410Y-72357798D01*
X225504359Y-72354598D01*
X225462569Y-72331529D01*
X225412598Y-72281097D01*
X225397826Y-72211654D01*
X225422942Y-72145248D01*
X225450294Y-72118641D01*
X225625328Y-71993792D01*
X225633200Y-71987139D01*
X225784052Y-71836812D01*
X225790730Y-71828965D01*
X225915003Y-71656020D01*
X225920313Y-71647183D01*
X226014670Y-71456267D01*
X226018469Y-71446672D01*
X226080377Y-71242910D01*
X226082555Y-71232837D01*
X226083986Y-71221962D01*
X226081775Y-71207778D01*
X226068617Y-71204000D01*
X223433225Y-71204000D01*
X223419694Y-71207973D01*
X223418257Y-71217966D01*
X223448565Y-71352446D01*
X223451645Y-71362275D01*
X223531770Y-71559603D01*
X223536413Y-71568794D01*
X223647694Y-71750388D01*
X223653777Y-71758699D01*
X223793213Y-71919667D01*
X223800580Y-71926883D01*
X223964434Y-72062916D01*
X223972881Y-72068831D01*
X224041969Y-72109203D01*
X224090693Y-72160842D01*
X224103764Y-72230625D01*
X224077033Y-72296396D01*
X224036584Y-72329752D01*
X224023607Y-72336507D01*
X224019474Y-72339610D01*
X224019471Y-72339612D01*
X223849100Y-72467530D01*
X223844965Y-72470635D01*
X223826605Y-72489848D01*
X223704140Y-72618000D01*
X223690629Y-72632138D01*
X223687715Y-72636410D01*
X223687714Y-72636411D01*
X223619732Y-72736069D01*
X223564743Y-72816680D01*
X223535803Y-72879027D01*
X223475306Y-73009357D01*
X223470688Y-73019305D01*
X223410989Y-73234570D01*
X223387251Y-73456695D01*
X223387548Y-73461848D01*
X223387548Y-73461851D01*
X223394557Y-73583401D01*
X223400110Y-73679715D01*
X223401247Y-73684761D01*
X223401248Y-73684767D01*
X223418329Y-73760558D01*
X223449222Y-73897639D01*
X223533266Y-74104616D01*
X223535965Y-74109020D01*
X223641562Y-74281339D01*
X223649987Y-74295088D01*
X223796250Y-74463938D01*
X223968126Y-74606632D01*
X224009127Y-74630591D01*
X224041445Y-74649476D01*
X224090169Y-74701114D01*
X224103240Y-74770897D01*
X224076509Y-74836669D01*
X224036055Y-74870027D01*
X224023607Y-74876507D01*
X224022638Y-74874646D01*
X223964226Y-74891500D01*
X222401192Y-74891500D01*
X222333071Y-74871498D01*
X222286578Y-74817842D01*
X222276474Y-74747568D01*
X222297979Y-74693229D01*
X222303380Y-74685516D01*
X222323523Y-74656749D01*
X222325846Y-74651767D01*
X222325849Y-74651762D01*
X222417961Y-74454225D01*
X222417961Y-74454224D01*
X222420284Y-74449243D01*
X222440583Y-74373489D01*
X222478119Y-74233402D01*
X222478119Y-74233400D01*
X222479543Y-74228087D01*
X222499498Y-74000000D01*
X222479543Y-73771913D01*
X222476651Y-73761121D01*
X222421707Y-73556067D01*
X222421706Y-73556065D01*
X222420284Y-73550757D01*
X222414384Y-73538104D01*
X222325849Y-73348238D01*
X222325846Y-73348233D01*
X222323523Y-73343251D01*
X222210388Y-73181678D01*
X222195357Y-73160211D01*
X222195355Y-73160208D01*
X222192198Y-73155700D01*
X222030300Y-72993802D01*
X222025792Y-72990645D01*
X222025789Y-72990643D01*
X221870336Y-72881794D01*
X221842749Y-72862477D01*
X221837767Y-72860154D01*
X221837762Y-72860151D01*
X221640225Y-72768039D01*
X221640224Y-72768039D01*
X221635243Y-72765716D01*
X221629935Y-72764294D01*
X221629933Y-72764293D01*
X221419402Y-72707881D01*
X221419400Y-72707881D01*
X221414087Y-72706457D01*
X221186000Y-72686502D01*
X220957913Y-72706457D01*
X220952600Y-72707881D01*
X220952598Y-72707881D01*
X220742067Y-72764293D01*
X220742065Y-72764294D01*
X220736757Y-72765716D01*
X220731776Y-72768039D01*
X220731775Y-72768039D01*
X220534238Y-72860151D01*
X220534233Y-72860154D01*
X220529251Y-72862477D01*
X220501664Y-72881794D01*
X220346211Y-72990643D01*
X220346208Y-72990645D01*
X220341700Y-72993802D01*
X220179802Y-73155700D01*
X220176645Y-73160208D01*
X220176643Y-73160211D01*
X220161612Y-73181678D01*
X220048477Y-73343251D01*
X220046154Y-73348233D01*
X220046151Y-73348238D01*
X219957616Y-73538104D01*
X219951716Y-73550757D01*
X219950294Y-73556065D01*
X219950293Y-73556067D01*
X219895349Y-73761121D01*
X219892457Y-73771913D01*
X219872502Y-74000000D01*
X219892457Y-74228087D01*
X219893881Y-74233400D01*
X219893881Y-74233402D01*
X219931418Y-74373489D01*
X219951716Y-74449243D01*
X219954039Y-74454224D01*
X219954039Y-74454225D01*
X220046151Y-74651762D01*
X220046154Y-74651767D01*
X220048477Y-74656749D01*
X220068620Y-74685516D01*
X220074021Y-74693229D01*
X220096709Y-74760502D01*
X220079424Y-74829363D01*
X220027655Y-74877947D01*
X219970808Y-74891500D01*
X214781192Y-74891500D01*
X214713071Y-74871498D01*
X214666578Y-74817842D01*
X214656474Y-74747568D01*
X214677979Y-74693229D01*
X214683380Y-74685516D01*
X214703523Y-74656749D01*
X214705846Y-74651767D01*
X214705849Y-74651762D01*
X214797961Y-74454225D01*
X214797961Y-74454224D01*
X214800284Y-74449243D01*
X214820583Y-74373489D01*
X214858119Y-74233402D01*
X214858119Y-74233400D01*
X214859543Y-74228087D01*
X214879498Y-74000000D01*
X214859543Y-73771913D01*
X214856501Y-73760558D01*
X214801708Y-73556072D01*
X214800284Y-73550757D01*
X214800325Y-73550746D01*
X214795940Y-73481742D01*
X214830457Y-73419702D01*
X214893037Y-73386171D01*
X214918844Y-73383500D01*
X215170543Y-73383500D01*
X215190255Y-73385051D01*
X215203507Y-73387150D01*
X215210094Y-73386805D01*
X215210098Y-73386805D01*
X215269850Y-73383673D01*
X215276445Y-73383500D01*
X215296306Y-73383500D01*
X215316069Y-73381423D01*
X215322628Y-73380907D01*
X215338427Y-73380079D01*
X215382377Y-73377776D01*
X215382381Y-73377775D01*
X215388971Y-73377430D01*
X215401929Y-73373958D01*
X215421372Y-73370355D01*
X215421795Y-73370311D01*
X215434702Y-73368954D01*
X215497894Y-73348422D01*
X215504196Y-73346556D01*
X215561985Y-73331071D01*
X215568363Y-73329362D01*
X215574242Y-73326366D01*
X215574251Y-73326363D01*
X215580317Y-73323272D01*
X215598579Y-73315708D01*
X215605043Y-73313608D01*
X215605051Y-73313605D01*
X215611331Y-73311564D01*
X215617050Y-73308262D01*
X215617055Y-73308260D01*
X215668867Y-73278346D01*
X215674637Y-73275213D01*
X215733839Y-73245047D01*
X215744259Y-73236609D01*
X215760552Y-73225411D01*
X215760903Y-73225209D01*
X215772169Y-73218704D01*
X215777075Y-73214287D01*
X215777080Y-73214283D01*
X215821538Y-73174253D01*
X215826554Y-73169969D01*
X215839409Y-73159559D01*
X215839412Y-73159556D01*
X215841986Y-73157472D01*
X215856031Y-73143427D01*
X215860816Y-73138886D01*
X215905274Y-73098856D01*
X215905275Y-73098855D01*
X215910185Y-73094434D01*
X215918075Y-73083574D01*
X215930912Y-73068546D01*
X218568546Y-70430912D01*
X218583574Y-70418075D01*
X218594434Y-70410185D01*
X218638886Y-70360816D01*
X218643427Y-70356031D01*
X218657472Y-70341986D01*
X218659559Y-70339409D01*
X218669969Y-70326554D01*
X218674253Y-70321538D01*
X218714283Y-70277080D01*
X218714287Y-70277075D01*
X218718704Y-70272169D01*
X218725411Y-70260552D01*
X218736609Y-70244259D01*
X218740891Y-70238971D01*
X218745047Y-70233839D01*
X218775213Y-70174637D01*
X218778346Y-70168867D01*
X218808260Y-70117055D01*
X218808262Y-70117050D01*
X218811564Y-70111331D01*
X218813605Y-70105051D01*
X218813608Y-70105043D01*
X218815708Y-70098579D01*
X218823272Y-70080317D01*
X218826363Y-70074251D01*
X218826366Y-70074242D01*
X218829362Y-70068363D01*
X218843023Y-70017381D01*
X218846556Y-70004196D01*
X218848422Y-69997894D01*
X218868954Y-69934702D01*
X218870355Y-69921372D01*
X218873958Y-69901929D01*
X218877430Y-69888971D01*
X218878100Y-69876196D01*
X218880906Y-69822646D01*
X218881423Y-69816071D01*
X218883156Y-69799579D01*
X218883500Y-69796306D01*
X218883500Y-69776432D01*
X218883673Y-69769838D01*
X218886804Y-69710099D01*
X218886804Y-69710095D01*
X218887149Y-69703507D01*
X218885051Y-69690260D01*
X218883500Y-69670550D01*
X218883500Y-68190685D01*
X218903502Y-68122564D01*
X218957158Y-68076071D01*
X219027432Y-68065967D01*
X219081771Y-68087472D01*
X219153251Y-68137523D01*
X219158233Y-68139846D01*
X219158238Y-68139849D01*
X219355775Y-68231961D01*
X219360757Y-68234284D01*
X219366065Y-68235706D01*
X219366067Y-68235707D01*
X219576598Y-68292119D01*
X219576600Y-68292119D01*
X219581913Y-68293543D01*
X219810000Y-68313498D01*
X220038087Y-68293543D01*
X220043400Y-68292119D01*
X220043402Y-68292119D01*
X220253933Y-68235707D01*
X220253935Y-68235706D01*
X220259243Y-68234284D01*
X220264225Y-68231961D01*
X220461762Y-68139849D01*
X220461767Y-68139846D01*
X220466749Y-68137523D01*
X220571611Y-68064098D01*
X220649789Y-68009357D01*
X220649792Y-68009355D01*
X220654300Y-68006198D01*
X220816198Y-67844300D01*
X220823181Y-67834328D01*
X220888267Y-67741375D01*
X220947523Y-67656749D01*
X220949846Y-67651767D01*
X220949849Y-67651762D01*
X221041961Y-67454225D01*
X221041961Y-67454224D01*
X221044284Y-67449243D01*
X221052959Y-67416870D01*
X221102119Y-67233402D01*
X221102119Y-67233400D01*
X221103543Y-67228087D01*
X221123498Y-67000000D01*
X221103543Y-66771913D01*
X221074306Y-66662800D01*
X221045707Y-66556067D01*
X221045706Y-66556065D01*
X221044284Y-66550757D01*
X221009431Y-66476014D01*
X220949849Y-66348238D01*
X220949846Y-66348233D01*
X220947523Y-66343251D01*
X220874098Y-66238389D01*
X220819357Y-66160211D01*
X220819355Y-66160208D01*
X220816198Y-66155700D01*
X220654300Y-65993802D01*
X220649792Y-65990645D01*
X220649789Y-65990643D01*
X220485156Y-65875366D01*
X220466749Y-65862477D01*
X220461767Y-65860154D01*
X220461762Y-65860151D01*
X220264225Y-65768039D01*
X220264224Y-65768039D01*
X220259243Y-65765716D01*
X220253935Y-65764294D01*
X220253933Y-65764293D01*
X220043402Y-65707881D01*
X220043400Y-65707881D01*
X220038087Y-65706457D01*
X219810000Y-65686502D01*
X219581913Y-65706457D01*
X219576600Y-65707881D01*
X219576598Y-65707881D01*
X219366067Y-65764293D01*
X219366065Y-65764294D01*
X219360757Y-65765716D01*
X219355776Y-65768039D01*
X219355775Y-65768039D01*
X219158238Y-65860151D01*
X219158233Y-65860154D01*
X219153251Y-65862477D01*
X219134844Y-65875366D01*
X219081771Y-65912528D01*
X219014497Y-65935216D01*
X218945636Y-65917931D01*
X218897052Y-65866161D01*
X218883500Y-65809315D01*
X218883500Y-65190685D01*
X218903502Y-65122564D01*
X218957158Y-65076071D01*
X219027432Y-65065967D01*
X219081771Y-65087472D01*
X219153251Y-65137523D01*
X219158233Y-65139846D01*
X219158238Y-65139849D01*
X219352835Y-65230590D01*
X219360757Y-65234284D01*
X219366065Y-65235706D01*
X219366067Y-65235707D01*
X219576598Y-65292119D01*
X219576600Y-65292119D01*
X219581913Y-65293543D01*
X219810000Y-65313498D01*
X220038087Y-65293543D01*
X220043400Y-65292119D01*
X220043402Y-65292119D01*
X220253933Y-65235707D01*
X220253935Y-65235706D01*
X220259243Y-65234284D01*
X220267165Y-65230590D01*
X220461762Y-65139849D01*
X220461767Y-65139846D01*
X220466749Y-65137523D01*
X220599812Y-65044351D01*
X220649789Y-65009357D01*
X220649792Y-65009355D01*
X220654300Y-65006198D01*
X220816198Y-64844300D01*
X220822514Y-64835281D01*
X220908978Y-64711797D01*
X220947523Y-64656749D01*
X220949846Y-64651767D01*
X220949849Y-64651762D01*
X221041961Y-64454225D01*
X221041961Y-64454224D01*
X221044284Y-64449243D01*
X221048156Y-64434795D01*
X221102119Y-64233402D01*
X221102119Y-64233400D01*
X221103543Y-64228087D01*
X221123498Y-64000000D01*
X221103543Y-63771913D01*
X221102119Y-63766598D01*
X221045707Y-63556067D01*
X221045706Y-63556065D01*
X221044284Y-63550757D01*
X221003969Y-63464300D01*
X220949849Y-63348238D01*
X220949846Y-63348233D01*
X220947523Y-63343251D01*
X220839012Y-63188281D01*
X220819357Y-63160211D01*
X220819355Y-63160208D01*
X220816198Y-63155700D01*
X220654300Y-62993802D01*
X220649792Y-62990645D01*
X220649789Y-62990643D01*
X220528796Y-62905923D01*
X220466749Y-62862477D01*
X220461767Y-62860154D01*
X220461762Y-62860151D01*
X220264225Y-62768039D01*
X220264224Y-62768039D01*
X220259243Y-62765716D01*
X220253935Y-62764294D01*
X220253933Y-62764293D01*
X220043402Y-62707881D01*
X220043400Y-62707881D01*
X220038087Y-62706457D01*
X219810000Y-62686502D01*
X219675916Y-62698233D01*
X219606312Y-62684244D01*
X219555320Y-62634845D01*
X219539129Y-62565719D01*
X219562881Y-62498813D01*
X219575840Y-62483617D01*
X219709564Y-62349893D01*
X219771876Y-62315867D01*
X219799019Y-62314124D01*
X219799019Y-62313019D01*
X219804525Y-62313019D01*
X219810000Y-62313498D01*
X220038087Y-62293543D01*
X220043400Y-62292119D01*
X220043402Y-62292119D01*
X220253933Y-62235707D01*
X220253935Y-62235706D01*
X220259243Y-62234284D01*
X220337484Y-62197800D01*
X220461762Y-62139849D01*
X220461767Y-62139846D01*
X220466749Y-62137523D01*
X220578643Y-62059174D01*
X220649789Y-62009357D01*
X220649792Y-62009355D01*
X220654300Y-62006198D01*
X220816198Y-61844300D01*
X220819361Y-61839784D01*
X220899534Y-61725284D01*
X220947523Y-61656749D01*
X220949846Y-61651767D01*
X220949849Y-61651762D01*
X221041961Y-61454225D01*
X221041961Y-61454224D01*
X221044284Y-61449243D01*
X221049131Y-61431156D01*
X221102119Y-61233402D01*
X221102119Y-61233400D01*
X221103543Y-61228087D01*
X221123498Y-61000000D01*
X221103543Y-60771913D01*
X221099465Y-60756695D01*
X221045707Y-60556067D01*
X221045706Y-60556065D01*
X221044284Y-60550757D01*
X221028356Y-60516598D01*
X220949849Y-60348238D01*
X220949846Y-60348233D01*
X220947523Y-60343251D01*
X220837766Y-60186502D01*
X220819357Y-60160211D01*
X220819355Y-60160208D01*
X220816198Y-60155700D01*
X220654300Y-59993802D01*
X220649792Y-59990645D01*
X220649789Y-59990643D01*
X220540668Y-59914236D01*
X220466749Y-59862477D01*
X220461767Y-59860154D01*
X220461762Y-59860151D01*
X220264225Y-59768039D01*
X220264224Y-59768039D01*
X220259243Y-59765716D01*
X220253935Y-59764294D01*
X220253933Y-59764293D01*
X220043402Y-59707881D01*
X220043400Y-59707881D01*
X220038087Y-59706457D01*
X219810000Y-59686502D01*
X219804525Y-59686981D01*
X219804518Y-59686981D01*
X219800850Y-59687302D01*
X219799253Y-59686981D01*
X219799018Y-59686981D01*
X219799018Y-59686934D01*
X219731244Y-59673315D01*
X219680251Y-59623917D01*
X219664059Y-59554791D01*
X219687810Y-59487885D01*
X219700770Y-59472687D01*
X219832320Y-59341137D01*
X219894632Y-59307111D01*
X219910432Y-59304711D01*
X219937593Y-59302335D01*
X220032606Y-59294023D01*
X220032611Y-59294022D01*
X220038087Y-59293543D01*
X220043400Y-59292119D01*
X220043402Y-59292119D01*
X220253933Y-59235707D01*
X220253935Y-59235706D01*
X220259243Y-59234284D01*
X220264225Y-59231961D01*
X220461762Y-59139849D01*
X220461767Y-59139846D01*
X220466749Y-59137523D01*
X220595839Y-59047133D01*
X220649789Y-59009357D01*
X220649792Y-59009355D01*
X220654300Y-59006198D01*
X220816198Y-58844300D01*
X220819361Y-58839784D01*
X220906108Y-58715895D01*
X220947523Y-58656749D01*
X220949846Y-58651767D01*
X220949849Y-58651762D01*
X221041961Y-58454225D01*
X221041961Y-58454224D01*
X221044284Y-58449243D01*
X221074596Y-58336120D01*
X221102119Y-58233402D01*
X221102119Y-58233400D01*
X221103543Y-58228087D01*
X221123498Y-58000000D01*
X221103543Y-57771913D01*
X221081068Y-57688035D01*
X221045707Y-57556067D01*
X221045706Y-57556065D01*
X221044284Y-57550757D01*
X221034788Y-57530393D01*
X220949849Y-57348238D01*
X220949846Y-57348233D01*
X220947523Y-57343251D01*
X220874098Y-57238389D01*
X220819357Y-57160211D01*
X220819355Y-57160208D01*
X220816198Y-57155700D01*
X220654300Y-56993802D01*
X220649792Y-56990645D01*
X220649789Y-56990643D01*
X220524966Y-56903241D01*
X220466749Y-56862477D01*
X220461767Y-56860154D01*
X220461762Y-56860151D01*
X220269495Y-56770496D01*
X220216210Y-56723579D01*
X220196749Y-56655301D01*
X220217291Y-56587342D01*
X220271314Y-56541276D01*
X220293333Y-56533782D01*
X220317294Y-56528030D01*
X220317300Y-56528028D01*
X220322111Y-56526873D01*
X220326684Y-56524979D01*
X220550285Y-56432361D01*
X220550289Y-56432359D01*
X220554859Y-56430466D01*
X220769659Y-56298836D01*
X220773419Y-56295624D01*
X220773424Y-56295621D01*
X220950890Y-56144050D01*
X220961224Y-56135224D01*
X221049334Y-56032061D01*
X221121621Y-55947424D01*
X221121624Y-55947419D01*
X221124836Y-55943659D01*
X221183067Y-55848635D01*
X221235715Y-55801004D01*
X221305757Y-55789397D01*
X221370954Y-55817500D01*
X221410608Y-55876391D01*
X221416500Y-55914470D01*
X221416500Y-63820543D01*
X221414949Y-63840255D01*
X221412850Y-63853507D01*
X221413195Y-63860094D01*
X221413195Y-63860098D01*
X221416327Y-63919850D01*
X221416500Y-63926445D01*
X221416500Y-63946306D01*
X221416844Y-63949577D01*
X221418576Y-63966059D01*
X221419093Y-63972633D01*
X221422209Y-64032077D01*
X221422570Y-64038971D01*
X221426042Y-64051929D01*
X221429645Y-64071372D01*
X221431046Y-64084702D01*
X221451578Y-64147894D01*
X221453444Y-64154196D01*
X221465353Y-64198638D01*
X221470638Y-64218363D01*
X221473634Y-64224242D01*
X221473637Y-64224251D01*
X221476728Y-64230317D01*
X221484292Y-64248579D01*
X221486392Y-64255043D01*
X221486395Y-64255051D01*
X221488436Y-64261331D01*
X221491738Y-64267050D01*
X221491740Y-64267055D01*
X221521654Y-64318867D01*
X221524787Y-64324637D01*
X221554953Y-64383839D01*
X221559109Y-64388971D01*
X221563391Y-64394259D01*
X221574589Y-64410552D01*
X221581296Y-64422169D01*
X221585713Y-64427075D01*
X221585717Y-64427080D01*
X221625747Y-64471538D01*
X221630031Y-64476554D01*
X221640441Y-64489409D01*
X221642528Y-64491986D01*
X221656573Y-64506031D01*
X221661114Y-64510816D01*
X221705566Y-64560185D01*
X221716426Y-64568075D01*
X221731454Y-64580912D01*
X223445559Y-66295016D01*
X223473206Y-66336706D01*
X223533266Y-66484616D01*
X223649987Y-66675088D01*
X223796250Y-66843938D01*
X223911907Y-66939958D01*
X223952657Y-66973789D01*
X223968126Y-66986632D01*
X224000372Y-67005475D01*
X224041445Y-67029476D01*
X224090169Y-67081114D01*
X224103240Y-67150897D01*
X224076509Y-67216669D01*
X224036055Y-67250027D01*
X224023607Y-67256507D01*
X224019474Y-67259610D01*
X224019471Y-67259612D01*
X223849100Y-67387530D01*
X223844965Y-67390635D01*
X223690629Y-67552138D01*
X223687715Y-67556410D01*
X223687714Y-67556411D01*
X223682479Y-67564085D01*
X223564743Y-67736680D01*
X223517716Y-67837992D01*
X223479226Y-67920912D01*
X223470688Y-67939305D01*
X223410989Y-68154570D01*
X223387251Y-68376695D01*
X223387548Y-68381848D01*
X223387548Y-68381851D01*
X223399215Y-68584185D01*
X223400110Y-68599715D01*
X223401247Y-68604761D01*
X223401248Y-68604767D01*
X223421119Y-68692939D01*
X223449222Y-68817639D01*
X223487461Y-68911811D01*
X223525132Y-69004583D01*
X223533266Y-69024616D01*
X223556140Y-69061943D01*
X223618769Y-69164144D01*
X223649987Y-69215088D01*
X223796250Y-69383938D01*
X223968126Y-69526632D01*
X224007888Y-69549867D01*
X224041955Y-69569774D01*
X224090679Y-69621412D01*
X224103750Y-69691195D01*
X224077019Y-69756967D01*
X224036562Y-69790327D01*
X224028457Y-69794546D01*
X224019738Y-69800036D01*
X223849433Y-69927905D01*
X223841726Y-69934748D01*
X223694590Y-70088717D01*
X223688104Y-70096727D01*
X223568098Y-70272649D01*
X223563000Y-70281623D01*
X223473338Y-70474783D01*
X223469775Y-70484470D01*
X223414389Y-70684183D01*
X223415912Y-70692607D01*
X223428292Y-70696000D01*
X226068344Y-70696000D01*
X226081875Y-70692027D01*
X226083180Y-70682947D01*
X226041214Y-70515875D01*
X226037894Y-70506124D01*
X225952972Y-70310814D01*
X225948105Y-70301739D01*
X225832426Y-70122926D01*
X225826136Y-70114757D01*
X225682806Y-69957240D01*
X225675273Y-69950215D01*
X225508139Y-69818222D01*
X225499556Y-69812520D01*
X225462602Y-69792120D01*
X225412631Y-69741687D01*
X225397859Y-69672245D01*
X225422975Y-69605839D01*
X225450327Y-69579232D01*
X225491495Y-69549867D01*
X225629860Y-69451173D01*
X225788096Y-69293489D01*
X225847594Y-69210689D01*
X225915435Y-69116277D01*
X225918453Y-69112077D01*
X225957459Y-69033155D01*
X226015136Y-68916453D01*
X226015137Y-68916451D01*
X226017430Y-68911811D01*
X226082370Y-68698069D01*
X226111529Y-68476590D01*
X226111611Y-68473240D01*
X226113074Y-68413365D01*
X226113074Y-68413361D01*
X226113156Y-68410000D01*
X226094852Y-68187361D01*
X226040431Y-67970702D01*
X225951354Y-67765840D01*
X225885900Y-67664664D01*
X225832822Y-67582617D01*
X225832820Y-67582614D01*
X225830014Y-67578277D01*
X225679670Y-67413051D01*
X225675619Y-67409852D01*
X225675615Y-67409848D01*
X225508414Y-67277800D01*
X225508410Y-67277798D01*
X225504359Y-67274598D01*
X225463053Y-67251796D01*
X225413084Y-67201364D01*
X225398312Y-67131921D01*
X225423428Y-67065516D01*
X225450780Y-67038909D01*
X225517245Y-66991500D01*
X225629860Y-66911173D01*
X225651215Y-66889893D01*
X225764108Y-66777393D01*
X225788096Y-66753489D01*
X225794887Y-66744039D01*
X225915435Y-66576277D01*
X225918453Y-66572077D01*
X225952154Y-66503889D01*
X226015136Y-66376453D01*
X226015137Y-66376451D01*
X226017430Y-66371811D01*
X226082370Y-66158069D01*
X226111529Y-65936590D01*
X226113156Y-65870000D01*
X226094852Y-65647361D01*
X226040431Y-65430702D01*
X225951354Y-65225840D01*
X225881774Y-65118285D01*
X225832822Y-65042617D01*
X225832820Y-65042614D01*
X225830014Y-65038277D01*
X225679670Y-64873051D01*
X225675619Y-64869852D01*
X225675615Y-64869848D01*
X225508414Y-64737800D01*
X225508410Y-64737798D01*
X225504359Y-64734598D01*
X225463053Y-64711796D01*
X225413084Y-64661364D01*
X225398312Y-64591921D01*
X225423428Y-64525516D01*
X225450780Y-64498909D01*
X225520409Y-64449243D01*
X225629860Y-64371173D01*
X225788096Y-64213489D01*
X225798768Y-64198638D01*
X225915435Y-64036277D01*
X225918453Y-64032077D01*
X225931601Y-64005475D01*
X226015136Y-63836453D01*
X226015137Y-63836451D01*
X226017430Y-63831811D01*
X226053431Y-63713317D01*
X226080865Y-63623023D01*
X226080865Y-63623021D01*
X226082370Y-63618069D01*
X226111529Y-63396590D01*
X226111808Y-63385158D01*
X226113074Y-63333365D01*
X226113074Y-63333361D01*
X226113156Y-63330000D01*
X226094852Y-63107361D01*
X226040431Y-62890702D01*
X225951354Y-62685840D01*
X225837182Y-62509357D01*
X225832822Y-62502617D01*
X225832820Y-62502614D01*
X225830014Y-62498277D01*
X225679670Y-62333051D01*
X225675619Y-62329852D01*
X225675615Y-62329848D01*
X225508414Y-62197800D01*
X225508410Y-62197798D01*
X225504359Y-62194598D01*
X225463053Y-62171796D01*
X225413084Y-62121364D01*
X225398312Y-62051921D01*
X225423428Y-61985516D01*
X225450780Y-61958909D01*
X225494603Y-61927650D01*
X225629860Y-61831173D01*
X225651210Y-61809898D01*
X225728350Y-61733027D01*
X225788096Y-61673489D01*
X225815242Y-61635712D01*
X225915435Y-61496277D01*
X225918453Y-61492077D01*
X225921638Y-61485634D01*
X226015136Y-61296453D01*
X226015137Y-61296451D01*
X226017430Y-61291811D01*
X226066112Y-61131579D01*
X226080865Y-61083023D01*
X226080865Y-61083021D01*
X226082370Y-61078069D01*
X226111529Y-60856590D01*
X226112532Y-60815548D01*
X226113074Y-60793365D01*
X226113074Y-60793361D01*
X226113156Y-60790000D01*
X226094852Y-60567361D01*
X226040431Y-60350702D01*
X225951354Y-60145840D01*
X225878356Y-60033002D01*
X225832822Y-59962617D01*
X225832820Y-59962614D01*
X225830014Y-59958277D01*
X225819308Y-59946511D01*
X225682798Y-59796488D01*
X225651746Y-59732642D01*
X225660141Y-59662143D01*
X225705317Y-59607375D01*
X225731761Y-59593706D01*
X225838297Y-59553767D01*
X225846705Y-59550615D01*
X225963261Y-59463261D01*
X226050615Y-59346705D01*
X226101745Y-59210316D01*
X226108500Y-59148134D01*
X226108500Y-57351866D01*
X226101745Y-57289684D01*
X226050615Y-57153295D01*
X225963261Y-57036739D01*
X225846705Y-56949385D01*
X225710316Y-56898255D01*
X225648134Y-56891500D01*
X223851866Y-56891500D01*
X223789684Y-56898255D01*
X223653295Y-56949385D01*
X223536739Y-57036739D01*
X223449385Y-57153295D01*
X223446233Y-57161703D01*
X223427482Y-57211721D01*
X223384840Y-57268485D01*
X223318279Y-57293185D01*
X223248930Y-57277978D01*
X223198812Y-57227692D01*
X223183500Y-57167491D01*
X223183500Y-54079457D01*
X223185051Y-54059745D01*
X223186118Y-54053008D01*
X223187150Y-54046493D01*
X223185183Y-54008950D01*
X223183673Y-53980150D01*
X223183500Y-53973555D01*
X223183500Y-53953694D01*
X223181423Y-53933931D01*
X223180907Y-53927367D01*
X223177776Y-53867629D01*
X223177776Y-53867628D01*
X223177430Y-53861029D01*
X223174131Y-53848716D01*
X223173959Y-53848074D01*
X223170357Y-53828639D01*
X223169645Y-53821869D01*
X223169644Y-53821865D01*
X223168954Y-53815298D01*
X223148418Y-53752092D01*
X223146567Y-53745845D01*
X223129362Y-53681638D01*
X223126369Y-53675763D01*
X223126366Y-53675756D01*
X223123273Y-53669686D01*
X223115712Y-53651431D01*
X223113607Y-53644955D01*
X223113605Y-53644951D01*
X223111564Y-53638669D01*
X223108265Y-53632954D01*
X223108260Y-53632944D01*
X223078349Y-53581139D01*
X223075214Y-53575367D01*
X223045048Y-53516161D01*
X223036607Y-53505737D01*
X223025412Y-53489449D01*
X223022005Y-53483548D01*
X223022004Y-53483547D01*
X223018704Y-53477831D01*
X223014287Y-53472925D01*
X223014283Y-53472920D01*
X222974253Y-53428462D01*
X222969969Y-53423447D01*
X222959548Y-53410579D01*
X222957472Y-53408015D01*
X222943436Y-53393979D01*
X222938895Y-53389194D01*
X222898856Y-53344726D01*
X222898855Y-53344725D01*
X222894434Y-53339815D01*
X222883574Y-53331925D01*
X222868545Y-53319088D01*
X221980908Y-52431450D01*
X221968068Y-52416416D01*
X221964068Y-52410910D01*
X221964065Y-52410907D01*
X221960185Y-52405566D01*
X221910816Y-52361114D01*
X221906031Y-52356573D01*
X221891986Y-52342528D01*
X221889409Y-52340441D01*
X221876554Y-52330031D01*
X221871538Y-52325747D01*
X221827080Y-52285717D01*
X221827075Y-52285713D01*
X221822169Y-52281296D01*
X221810552Y-52274589D01*
X221794259Y-52263391D01*
X221788971Y-52259109D01*
X221783839Y-52254953D01*
X221777957Y-52251956D01*
X221777954Y-52251954D01*
X221767773Y-52246767D01*
X221716157Y-52198019D01*
X221699091Y-52129104D01*
X221721992Y-52061902D01*
X221777589Y-52017750D01*
X221824975Y-52008500D01*
X231865500Y-52008500D01*
X231933621Y-52028502D01*
X231980114Y-52082158D01*
X231991500Y-52134500D01*
X231991500Y-81865500D01*
X231971498Y-81933621D01*
X231917842Y-81980114D01*
X231865500Y-81991500D01*
X154635371Y-81991500D01*
X154567250Y-81971498D01*
X154520757Y-81917842D01*
X154510653Y-81847568D01*
X154540147Y-81782988D01*
X154546276Y-81776405D01*
X162371942Y-73950739D01*
X164368129Y-73950739D01*
X164368426Y-73955892D01*
X164368426Y-73955895D01*
X164370765Y-73996453D01*
X164381357Y-74180161D01*
X164382492Y-74185198D01*
X164382493Y-74185204D01*
X164408136Y-74298990D01*
X164431878Y-74404342D01*
X164518336Y-74617261D01*
X164521033Y-74621662D01*
X164521034Y-74621664D01*
X164606199Y-74760640D01*
X164638408Y-74813200D01*
X164788869Y-74986898D01*
X164965679Y-75133689D01*
X165164090Y-75249631D01*
X165168910Y-75251471D01*
X165168915Y-75251474D01*
X165275296Y-75292096D01*
X165378774Y-75331610D01*
X165383842Y-75332641D01*
X165383845Y-75332642D01*
X165494534Y-75355162D01*
X165603963Y-75377426D01*
X165609136Y-75377616D01*
X165609139Y-75377616D01*
X165828448Y-75385657D01*
X165828452Y-75385657D01*
X165833612Y-75385846D01*
X165838732Y-75385190D01*
X165838734Y-75385190D01*
X166056425Y-75357304D01*
X166056428Y-75357303D01*
X166061552Y-75356647D01*
X166077835Y-75351762D01*
X166276710Y-75292096D01*
X166281663Y-75290610D01*
X166488033Y-75189511D01*
X166675119Y-75056064D01*
X166698213Y-75033051D01*
X166834237Y-74897500D01*
X166837898Y-74893852D01*
X166931782Y-74763199D01*
X166968979Y-74711433D01*
X166971997Y-74707233D01*
X166978009Y-74695070D01*
X167042261Y-74565064D01*
X167073816Y-74501217D01*
X167091220Y-74443933D01*
X167139117Y-74286291D01*
X167139118Y-74286285D01*
X167140621Y-74281339D01*
X167170616Y-74053502D01*
X167170977Y-74038743D01*
X167172208Y-73988365D01*
X167172208Y-73988361D01*
X167172290Y-73985000D01*
X167162030Y-73860211D01*
X167153884Y-73761121D01*
X167153883Y-73761115D01*
X167153460Y-73755970D01*
X167097477Y-73533090D01*
X167005843Y-73322347D01*
X167001548Y-73315708D01*
X166883830Y-73133743D01*
X166883828Y-73133740D01*
X166881020Y-73129400D01*
X166864157Y-73110867D01*
X166729837Y-72963252D01*
X166729835Y-72963251D01*
X166726359Y-72959430D01*
X166722308Y-72956231D01*
X166722304Y-72956227D01*
X166566391Y-72833095D01*
X166546015Y-72817003D01*
X166344831Y-72705943D01*
X166205912Y-72656749D01*
X166133084Y-72630959D01*
X166133080Y-72630958D01*
X166128209Y-72629233D01*
X166123116Y-72628326D01*
X166123113Y-72628325D01*
X165907056Y-72589839D01*
X165907050Y-72589838D01*
X165901967Y-72588933D01*
X165828784Y-72588039D01*
X165677351Y-72586189D01*
X165677349Y-72586189D01*
X165672181Y-72586126D01*
X165526109Y-72608478D01*
X165450131Y-72620104D01*
X165450128Y-72620105D01*
X165445022Y-72620886D01*
X165440110Y-72622491D01*
X165440112Y-72622491D01*
X165231504Y-72690675D01*
X165231502Y-72690676D01*
X165226591Y-72692281D01*
X165022753Y-72798392D01*
X165018620Y-72801495D01*
X165018617Y-72801497D01*
X164843118Y-72933265D01*
X164838983Y-72936370D01*
X164820007Y-72956227D01*
X164687934Y-73094434D01*
X164680216Y-73102510D01*
X164677302Y-73106782D01*
X164677301Y-73106783D01*
X164627113Y-73180356D01*
X164550716Y-73292350D01*
X164508406Y-73383500D01*
X164462804Y-73481742D01*
X164453961Y-73500792D01*
X164392548Y-73722237D01*
X164368129Y-73950739D01*
X162371942Y-73950739D01*
X163023950Y-73298731D01*
X163080434Y-73266119D01*
X163193929Y-73235708D01*
X163193930Y-73235708D01*
X163199243Y-73234284D01*
X163327996Y-73174246D01*
X163401762Y-73139849D01*
X163401767Y-73139846D01*
X163406749Y-73137523D01*
X163511611Y-73064098D01*
X163589789Y-73009357D01*
X163589792Y-73009355D01*
X163594300Y-73006198D01*
X163756198Y-72844300D01*
X163768654Y-72826512D01*
X163836218Y-72730020D01*
X163887523Y-72656749D01*
X163889846Y-72651767D01*
X163889849Y-72651762D01*
X163981961Y-72454225D01*
X163981961Y-72454224D01*
X163984284Y-72449243D01*
X164043543Y-72228087D01*
X164063498Y-72000000D01*
X164043543Y-71771913D01*
X164040002Y-71758699D01*
X163985707Y-71556067D01*
X163985706Y-71556065D01*
X163984284Y-71550757D01*
X163946603Y-71469949D01*
X163889849Y-71348238D01*
X163889846Y-71348233D01*
X163887523Y-71343251D01*
X163786677Y-71199228D01*
X163759357Y-71160211D01*
X163759355Y-71160208D01*
X163756198Y-71155700D01*
X163594300Y-70993802D01*
X163589792Y-70990645D01*
X163589789Y-70990643D01*
X163470921Y-70907411D01*
X163406749Y-70862477D01*
X163401767Y-70860154D01*
X163401762Y-70860151D01*
X163204225Y-70768039D01*
X163204224Y-70768039D01*
X163199243Y-70765716D01*
X163193935Y-70764294D01*
X163193933Y-70764293D01*
X162983402Y-70707881D01*
X162983400Y-70707881D01*
X162978087Y-70706457D01*
X162750000Y-70686502D01*
X162521913Y-70706457D01*
X162516600Y-70707881D01*
X162516598Y-70707881D01*
X162306067Y-70764293D01*
X162306065Y-70764294D01*
X162300757Y-70765716D01*
X162295776Y-70768039D01*
X162295775Y-70768039D01*
X162098238Y-70860151D01*
X162098233Y-70860154D01*
X162093251Y-70862477D01*
X162029079Y-70907411D01*
X161910211Y-70990643D01*
X161910208Y-70990645D01*
X161905700Y-70993802D01*
X161743802Y-71155700D01*
X161740645Y-71160208D01*
X161740643Y-71160211D01*
X161713323Y-71199228D01*
X161612477Y-71343251D01*
X161610154Y-71348233D01*
X161610151Y-71348238D01*
X161553397Y-71469949D01*
X161515716Y-71550757D01*
X161514294Y-71556065D01*
X161514293Y-71556067D01*
X161459998Y-71758699D01*
X161456457Y-71771913D01*
X161436502Y-72000000D01*
X161456457Y-72228087D01*
X161515716Y-72449243D01*
X161518039Y-72454225D01*
X161518042Y-72454232D01*
X161545964Y-72514111D01*
X161556625Y-72584302D01*
X161527645Y-72649115D01*
X161520864Y-72656455D01*
X160627944Y-73549375D01*
X160565632Y-73583401D01*
X160494817Y-73578336D01*
X160437981Y-73535789D01*
X160413170Y-73469269D01*
X160421819Y-73413590D01*
X160432311Y-73387291D01*
X160573751Y-73032770D01*
X160736734Y-72520533D01*
X160802136Y-72249159D01*
X160862152Y-72000134D01*
X160862154Y-72000124D01*
X160862677Y-71997954D01*
X160865542Y-71980742D01*
X160950561Y-71469949D01*
X160950562Y-71469944D01*
X160950934Y-71467707D01*
X160953061Y-71445000D01*
X160986579Y-71087079D01*
X161001054Y-70932508D01*
X161001441Y-70919084D01*
X161013455Y-70502024D01*
X161013455Y-70502015D01*
X161013513Y-70500000D01*
X160999601Y-70111331D01*
X160994365Y-69965063D01*
X160994365Y-69965060D01*
X160994284Y-69962803D01*
X160936697Y-69428356D01*
X160935358Y-69420947D01*
X160844130Y-68916453D01*
X160841045Y-68899393D01*
X160707818Y-68378624D01*
X160537699Y-67868712D01*
X160523422Y-67834328D01*
X160460380Y-67682508D01*
X160331557Y-67372269D01*
X160311659Y-67332619D01*
X160194585Y-67099338D01*
X160090449Y-66891835D01*
X160079864Y-66874042D01*
X159816768Y-66431818D01*
X159815608Y-66429868D01*
X159508441Y-65988735D01*
X159254066Y-65674047D01*
X159171930Y-65572436D01*
X159171926Y-65572432D01*
X159170520Y-65570692D01*
X159068294Y-65461259D01*
X158805118Y-65179530D01*
X158805108Y-65179520D01*
X158803575Y-65177879D01*
X158756668Y-65134366D01*
X158562147Y-64953923D01*
X158409484Y-64812308D01*
X158209448Y-64651762D01*
X157992028Y-64477263D01*
X157992015Y-64477253D01*
X157990264Y-64475848D01*
X157548061Y-64170223D01*
X157546116Y-64169075D01*
X157546105Y-64169068D01*
X157113174Y-63913543D01*
X157085139Y-63896996D01*
X157083132Y-63895998D01*
X157083120Y-63895991D01*
X156605872Y-63658564D01*
X156605873Y-63658564D01*
X156603866Y-63657566D01*
X156384527Y-63567385D01*
X156108784Y-63454013D01*
X156108775Y-63454010D01*
X156106706Y-63453159D01*
X156104586Y-63452460D01*
X156104570Y-63452454D01*
X155598338Y-63285525D01*
X155596203Y-63284821D01*
X155594026Y-63284272D01*
X155594022Y-63284271D01*
X155077146Y-63153961D01*
X155077144Y-63153960D01*
X155074972Y-63153413D01*
X154781336Y-63101373D01*
X154547892Y-63060000D01*
X154547886Y-63059999D01*
X154545679Y-63059608D01*
X154543438Y-63059374D01*
X154543435Y-63059374D01*
X154350903Y-63039308D01*
X154011034Y-63003886D01*
X154008787Y-63003813D01*
X154008781Y-63003813D01*
X153759857Y-62995773D01*
X153473773Y-62986533D01*
X153471534Y-62986621D01*
X153471528Y-62986621D01*
X153189582Y-62997699D01*
X152936646Y-63007637D01*
X152934427Y-63007884D01*
X152934413Y-63007885D01*
X152404640Y-63066840D01*
X152404638Y-63066840D01*
X152402403Y-63067089D01*
X151873778Y-63164587D01*
X151871602Y-63165152D01*
X151871592Y-63165154D01*
X151687035Y-63213056D01*
X151353477Y-63299631D01*
X151351347Y-63300350D01*
X150846294Y-63470809D01*
X150846283Y-63470813D01*
X150844162Y-63471529D01*
X150842084Y-63472400D01*
X150842085Y-63472400D01*
X150482890Y-63623023D01*
X150348441Y-63679402D01*
X150346448Y-63680411D01*
X150346437Y-63680416D01*
X150002984Y-63854284D01*
X149868852Y-63922186D01*
X149407848Y-64198638D01*
X148967789Y-64507343D01*
X148966031Y-64508774D01*
X148966030Y-64508775D01*
X148552685Y-64845290D01*
X148552676Y-64845298D01*
X148550928Y-64846721D01*
X148159399Y-65215035D01*
X148157880Y-65216684D01*
X148157878Y-65216686D01*
X147830466Y-65572120D01*
X147795205Y-65610399D01*
X147460211Y-66030791D01*
X147377197Y-66151803D01*
X147185108Y-66431818D01*
X147156131Y-66474058D01*
X147075478Y-66611803D01*
X146930318Y-66859719D01*
X146884522Y-66937932D01*
X146751716Y-67207236D01*
X146659431Y-67394373D01*
X146646774Y-67420038D01*
X146645920Y-67422135D01*
X146645919Y-67422138D01*
X146449739Y-67904064D01*
X146444103Y-67917908D01*
X146277548Y-68428995D01*
X146235141Y-68599715D01*
X146156463Y-68916453D01*
X146147960Y-68950682D01*
X146056003Y-69480299D01*
X146055778Y-69482534D01*
X146055777Y-69482541D01*
X146002917Y-70007503D01*
X146002148Y-70015136D01*
X146002084Y-70017372D01*
X146002083Y-70017381D01*
X145994023Y-70297190D01*
X145988181Y-70500000D01*
X145986670Y-70552454D01*
X145986766Y-70554697D01*
X145986766Y-70554703D01*
X145993651Y-70715612D01*
X146009649Y-71089503D01*
X146009904Y-71091727D01*
X146009905Y-71091735D01*
X146051760Y-71456267D01*
X146070966Y-71623536D01*
X146071378Y-71625725D01*
X146071379Y-71625734D01*
X146169074Y-72145248D01*
X146170309Y-72151817D01*
X146170881Y-72153990D01*
X146170882Y-72153994D01*
X146303164Y-72656434D01*
X146307168Y-72671644D01*
X146480843Y-73180356D01*
X146481717Y-73182419D01*
X146481720Y-73182428D01*
X146675815Y-73640797D01*
X146690445Y-73675348D01*
X146934901Y-74154087D01*
X146936065Y-74156012D01*
X146936069Y-74156020D01*
X147201537Y-74595224D01*
X147212960Y-74614123D01*
X147523200Y-75053102D01*
X147524635Y-75054853D01*
X147524638Y-75054856D01*
X147636515Y-75191299D01*
X147864031Y-75468775D01*
X148100097Y-75717973D01*
X148218761Y-75843237D01*
X148233709Y-75859017D01*
X148235374Y-75860540D01*
X148235376Y-75860542D01*
X148628684Y-76220311D01*
X148628692Y-76220318D01*
X148630343Y-76221828D01*
X148751987Y-76318069D01*
X149015884Y-76526857D01*
X149051901Y-76555353D01*
X149053754Y-76556615D01*
X149053764Y-76556622D01*
X149463444Y-76835562D01*
X149496227Y-76857883D01*
X149498175Y-76859015D01*
X149498179Y-76859017D01*
X149753363Y-77007240D01*
X149961046Y-77127872D01*
X149963054Y-77128854D01*
X149963068Y-77128861D01*
X150393027Y-77339030D01*
X150443979Y-77363936D01*
X150942554Y-77564867D01*
X150944693Y-77565556D01*
X150944699Y-77565558D01*
X151214224Y-77652352D01*
X151454219Y-77729637D01*
X151456403Y-77730171D01*
X151456405Y-77730172D01*
X151585180Y-77761683D01*
X151646595Y-77797303D01*
X151679002Y-77860472D01*
X151672113Y-77931133D01*
X151628115Y-77986853D01*
X151587844Y-78005778D01*
X151569808Y-78010611D01*
X151556067Y-78014293D01*
X151556065Y-78014294D01*
X151550757Y-78015716D01*
X151545776Y-78018039D01*
X151545775Y-78018039D01*
X151348238Y-78110151D01*
X151348233Y-78110154D01*
X151343251Y-78112477D01*
X151258962Y-78171497D01*
X151160211Y-78240643D01*
X151160208Y-78240645D01*
X151155700Y-78243802D01*
X150993802Y-78405700D01*
X150990645Y-78410208D01*
X150990643Y-78410211D01*
X150979876Y-78425588D01*
X150862477Y-78593251D01*
X150860154Y-78598233D01*
X150860151Y-78598238D01*
X150775297Y-78780211D01*
X150765716Y-78800757D01*
X150764294Y-78806065D01*
X150764293Y-78806067D01*
X150720839Y-78968238D01*
X150706457Y-79021913D01*
X150686502Y-79250000D01*
X150706457Y-79478087D01*
X150707881Y-79483400D01*
X150707881Y-79483402D01*
X150708011Y-79483885D01*
X150765716Y-79699243D01*
X150768039Y-79704224D01*
X150768039Y-79704225D01*
X150860151Y-79901762D01*
X150860154Y-79901767D01*
X150862477Y-79906749D01*
X150892656Y-79949849D01*
X150972539Y-80063933D01*
X150993802Y-80094300D01*
X151155700Y-80256198D01*
X151160208Y-80259355D01*
X151160211Y-80259357D01*
X151191488Y-80281257D01*
X151343251Y-80387523D01*
X151348233Y-80389846D01*
X151348238Y-80389849D01*
X151516258Y-80468197D01*
X151550757Y-80484284D01*
X151556065Y-80485706D01*
X151556067Y-80485707D01*
X151766598Y-80542119D01*
X151766600Y-80542119D01*
X151771913Y-80543543D01*
X152000000Y-80563498D01*
X152228087Y-80543543D01*
X152233400Y-80542119D01*
X152233402Y-80542119D01*
X152443933Y-80485707D01*
X152443935Y-80485706D01*
X152449243Y-80484284D01*
X152483742Y-80468197D01*
X152651762Y-80389849D01*
X152651767Y-80389846D01*
X152656749Y-80387523D01*
X152808512Y-80281257D01*
X152839789Y-80259357D01*
X152839792Y-80259355D01*
X152844300Y-80256198D01*
X153006198Y-80094300D01*
X153027462Y-80063933D01*
X153107344Y-79949849D01*
X153137523Y-79906749D01*
X153139846Y-79901767D01*
X153139849Y-79901762D01*
X153231961Y-79704225D01*
X153231961Y-79704224D01*
X153234284Y-79699243D01*
X153291990Y-79483885D01*
X153292119Y-79483402D01*
X153292119Y-79483400D01*
X153293543Y-79478087D01*
X153313498Y-79250000D01*
X153293543Y-79021913D01*
X153279161Y-78968238D01*
X153235707Y-78806067D01*
X153235706Y-78806065D01*
X153234284Y-78800757D01*
X153224703Y-78780211D01*
X153139849Y-78598238D01*
X153139846Y-78598233D01*
X153137523Y-78593251D01*
X153020124Y-78425588D01*
X153009357Y-78410211D01*
X153009355Y-78410208D01*
X153006198Y-78405700D01*
X152844300Y-78243802D01*
X152839790Y-78240644D01*
X152839784Y-78240639D01*
X152800161Y-78212895D01*
X152755832Y-78157438D01*
X152748523Y-78086819D01*
X152780553Y-78023458D01*
X152841755Y-77987473D01*
X152884617Y-77984273D01*
X153039075Y-77999282D01*
X153039083Y-77999282D01*
X153041311Y-77999499D01*
X153043538Y-77999555D01*
X153043548Y-77999556D01*
X153466267Y-78010256D01*
X153578680Y-78013101D01*
X153580925Y-78012997D01*
X153580935Y-78012997D01*
X153877249Y-77999282D01*
X154115646Y-77988248D01*
X154117873Y-77987984D01*
X154117878Y-77987984D01*
X154423569Y-77951803D01*
X154649461Y-77925067D01*
X154750382Y-77905724D01*
X155175199Y-77824302D01*
X155175212Y-77824299D01*
X155177393Y-77823881D01*
X155295080Y-77792457D01*
X155694559Y-77685790D01*
X155696739Y-77685208D01*
X156028839Y-77570533D01*
X156202716Y-77510493D01*
X156202722Y-77510491D01*
X156204841Y-77509759D01*
X156206906Y-77508876D01*
X156206914Y-77508873D01*
X156412969Y-77420770D01*
X156483469Y-77412380D01*
X156547312Y-77443437D01*
X156584230Y-77504080D01*
X156582501Y-77575056D01*
X156551600Y-77625719D01*
X153222724Y-80954595D01*
X153160412Y-80988621D01*
X153133629Y-80991500D01*
X144385371Y-80991500D01*
X144317250Y-80971498D01*
X144270757Y-80917842D01*
X144260653Y-80847568D01*
X144290147Y-80782988D01*
X144296276Y-80776405D01*
X145238911Y-79833770D01*
X145253323Y-79821384D01*
X145264918Y-79812851D01*
X145264923Y-79812846D01*
X145270818Y-79808508D01*
X145275557Y-79802930D01*
X145275560Y-79802927D01*
X145305035Y-79768232D01*
X145311965Y-79760716D01*
X145317661Y-79755020D01*
X145319924Y-79752159D01*
X145319929Y-79752154D01*
X145335293Y-79732734D01*
X145338082Y-79729333D01*
X145380592Y-79679296D01*
X145380594Y-79679294D01*
X145385333Y-79673715D01*
X145388662Y-79667195D01*
X145392028Y-79662148D01*
X145395193Y-79657024D01*
X145399735Y-79651283D01*
X145430637Y-79585164D01*
X145432565Y-79581218D01*
X145462442Y-79522708D01*
X145462443Y-79522706D01*
X145465769Y-79516192D01*
X145467508Y-79509086D01*
X145469609Y-79503436D01*
X145471524Y-79497679D01*
X145474622Y-79491050D01*
X145489491Y-79419565D01*
X145490461Y-79415282D01*
X145507808Y-79344390D01*
X145508500Y-79333236D01*
X145508535Y-79333238D01*
X145508775Y-79329266D01*
X145509152Y-79325045D01*
X145510641Y-79317885D01*
X145508546Y-79240458D01*
X145508500Y-79237050D01*
X145508500Y-66116371D01*
X145528502Y-66048250D01*
X145545405Y-66027276D01*
X148824464Y-62748217D01*
X148886776Y-62714191D01*
X148957591Y-62719256D01*
X148966808Y-62723117D01*
X148985770Y-62731959D01*
X148985775Y-62731961D01*
X148990757Y-62734284D01*
X148996065Y-62735706D01*
X148996067Y-62735707D01*
X149206598Y-62792119D01*
X149206600Y-62792119D01*
X149211913Y-62793543D01*
X149440000Y-62813498D01*
X149668087Y-62793543D01*
X149673400Y-62792119D01*
X149673402Y-62792119D01*
X149883933Y-62735707D01*
X149883935Y-62735706D01*
X149889243Y-62734284D01*
X149949946Y-62705978D01*
X150091762Y-62639849D01*
X150091767Y-62639846D01*
X150096749Y-62637523D01*
X150240373Y-62536956D01*
X150279789Y-62509357D01*
X150279792Y-62509355D01*
X150284300Y-62506198D01*
X150446198Y-62344300D01*
X150456318Y-62329848D01*
X150524859Y-62231961D01*
X150577523Y-62156749D01*
X150579846Y-62151767D01*
X150579849Y-62151762D01*
X150671961Y-61954225D01*
X150671961Y-61954224D01*
X150674284Y-61949243D01*
X150692345Y-61881841D01*
X150732119Y-61733402D01*
X150732119Y-61733400D01*
X150733543Y-61728087D01*
X150753498Y-61500000D01*
X150733543Y-61271913D01*
X150721800Y-61228087D01*
X150675707Y-61056067D01*
X150675706Y-61056065D01*
X150674284Y-61050757D01*
X150667476Y-61036157D01*
X150579849Y-60848238D01*
X150579846Y-60848233D01*
X150577523Y-60843251D01*
X150504098Y-60738389D01*
X150449357Y-60660211D01*
X150449355Y-60660208D01*
X150446198Y-60655700D01*
X150284300Y-60493802D01*
X150279792Y-60490645D01*
X150279789Y-60490643D01*
X150171641Y-60414917D01*
X150096749Y-60362477D01*
X150091767Y-60360154D01*
X150091762Y-60360151D01*
X149894225Y-60268039D01*
X149894224Y-60268039D01*
X149889243Y-60265716D01*
X149883935Y-60264294D01*
X149883933Y-60264293D01*
X149673402Y-60207881D01*
X149673400Y-60207881D01*
X149668087Y-60206457D01*
X149440000Y-60186502D01*
X149211913Y-60206457D01*
X149206600Y-60207881D01*
X149206598Y-60207881D01*
X148996067Y-60264293D01*
X148996065Y-60264294D01*
X148990757Y-60265716D01*
X148985776Y-60268039D01*
X148985775Y-60268039D01*
X148788238Y-60360151D01*
X148788233Y-60360154D01*
X148783251Y-60362477D01*
X148708359Y-60414917D01*
X148600211Y-60490643D01*
X148600208Y-60490645D01*
X148595700Y-60493802D01*
X148433802Y-60655700D01*
X148430645Y-60660208D01*
X148430643Y-60660211D01*
X148375902Y-60738389D01*
X148302477Y-60843251D01*
X148300154Y-60848233D01*
X148300151Y-60848238D01*
X148212524Y-61036157D01*
X148205716Y-61050757D01*
X148164888Y-61203130D01*
X148151919Y-61251529D01*
X148119307Y-61308013D01*
X145117095Y-64310224D01*
X145054783Y-64344250D01*
X144983967Y-64339185D01*
X144927132Y-64296638D01*
X144902321Y-64230118D01*
X144902000Y-64221129D01*
X144902000Y-55134500D01*
X144922002Y-55066379D01*
X144975658Y-55019886D01*
X145028000Y-55008500D01*
X145133629Y-55008500D01*
X145201750Y-55028502D01*
X145222724Y-55045405D01*
X148164329Y-57987010D01*
X148198355Y-58049322D01*
X148200755Y-58087087D01*
X148197676Y-58122285D01*
X148186502Y-58250000D01*
X148206457Y-58478087D01*
X148207881Y-58483400D01*
X148207881Y-58483402D01*
X148255538Y-58661257D01*
X148265716Y-58699243D01*
X148268039Y-58704224D01*
X148268039Y-58704225D01*
X148360151Y-58901762D01*
X148360154Y-58901767D01*
X148362477Y-58906749D01*
X148416638Y-58984099D01*
X148460186Y-59046291D01*
X148493802Y-59094300D01*
X148655700Y-59256198D01*
X148660208Y-59259355D01*
X148660211Y-59259357D01*
X148726410Y-59305710D01*
X148843251Y-59387523D01*
X148848233Y-59389846D01*
X148848238Y-59389849D01*
X149037568Y-59478134D01*
X149050757Y-59484284D01*
X149056065Y-59485706D01*
X149056067Y-59485707D01*
X149266598Y-59542119D01*
X149266600Y-59542119D01*
X149271913Y-59543543D01*
X149500000Y-59563498D01*
X149728087Y-59543543D01*
X149733400Y-59542119D01*
X149733402Y-59542119D01*
X149943933Y-59485707D01*
X149943935Y-59485706D01*
X149949243Y-59484284D01*
X149962432Y-59478134D01*
X150151762Y-59389849D01*
X150151767Y-59389846D01*
X150156749Y-59387523D01*
X150273590Y-59305710D01*
X150339789Y-59259357D01*
X150339792Y-59259355D01*
X150344300Y-59256198D01*
X150506198Y-59094300D01*
X150539815Y-59046291D01*
X150583362Y-58984099D01*
X150637523Y-58906749D01*
X150639846Y-58901767D01*
X150639849Y-58901762D01*
X150731961Y-58704225D01*
X150731961Y-58704224D01*
X150734284Y-58699243D01*
X150744463Y-58661257D01*
X150792119Y-58483402D01*
X150792119Y-58483400D01*
X150793543Y-58478087D01*
X150813498Y-58250000D01*
X155806502Y-58250000D01*
X155826457Y-58478087D01*
X155827881Y-58483400D01*
X155827881Y-58483402D01*
X155875538Y-58661257D01*
X155885716Y-58699243D01*
X155888039Y-58704224D01*
X155888039Y-58704225D01*
X155980151Y-58901762D01*
X155980154Y-58901767D01*
X155982477Y-58906749D01*
X156036638Y-58984099D01*
X156080186Y-59046291D01*
X156113802Y-59094300D01*
X156275700Y-59256198D01*
X156280208Y-59259355D01*
X156280211Y-59259357D01*
X156346410Y-59305710D01*
X156463251Y-59387523D01*
X156468233Y-59389846D01*
X156468238Y-59389849D01*
X156657568Y-59478134D01*
X156670757Y-59484284D01*
X156676065Y-59485706D01*
X156676067Y-59485707D01*
X156886598Y-59542119D01*
X156886600Y-59542119D01*
X156891913Y-59543543D01*
X157120000Y-59563498D01*
X157348087Y-59543543D01*
X157353400Y-59542119D01*
X157353402Y-59542119D01*
X157563933Y-59485707D01*
X157563935Y-59485706D01*
X157569243Y-59484284D01*
X157582432Y-59478134D01*
X157771762Y-59389849D01*
X157771767Y-59389846D01*
X157776749Y-59387523D01*
X157893590Y-59305710D01*
X157959789Y-59259357D01*
X157959792Y-59259355D01*
X157964300Y-59256198D01*
X158126198Y-59094300D01*
X158148655Y-59062229D01*
X158204110Y-59017901D01*
X158251867Y-59008500D01*
X161633629Y-59008500D01*
X161701750Y-59028502D01*
X161722724Y-59045405D01*
X167416230Y-64738911D01*
X167428616Y-64753323D01*
X167437149Y-64764918D01*
X167437154Y-64764923D01*
X167441492Y-64770818D01*
X167447070Y-64775557D01*
X167447073Y-64775560D01*
X167481768Y-64805035D01*
X167489284Y-64811965D01*
X167494979Y-64817660D01*
X167497861Y-64819940D01*
X167517251Y-64835281D01*
X167520655Y-64838072D01*
X167570703Y-64880591D01*
X167576285Y-64885333D01*
X167582801Y-64888661D01*
X167587850Y-64892028D01*
X167592979Y-64895195D01*
X167598716Y-64899734D01*
X167664875Y-64930655D01*
X167668769Y-64932558D01*
X167733808Y-64965769D01*
X167740916Y-64967508D01*
X167746559Y-64969607D01*
X167752322Y-64971524D01*
X167758950Y-64974622D01*
X167766112Y-64976112D01*
X167766113Y-64976112D01*
X167830412Y-64989486D01*
X167834696Y-64990456D01*
X167905610Y-65007808D01*
X167911212Y-65008156D01*
X167911215Y-65008156D01*
X167916764Y-65008500D01*
X167916762Y-65008536D01*
X167920755Y-65008775D01*
X167924947Y-65009149D01*
X167932115Y-65010640D01*
X168009520Y-65008546D01*
X168012928Y-65008500D01*
X195382930Y-65008500D01*
X195401880Y-65009933D01*
X195416115Y-65012099D01*
X195416119Y-65012099D01*
X195423349Y-65013199D01*
X195430641Y-65012606D01*
X195430644Y-65012606D01*
X195476018Y-65008915D01*
X195486233Y-65008500D01*
X195494293Y-65008500D01*
X195511680Y-65006473D01*
X195522507Y-65005211D01*
X195526882Y-65004778D01*
X195592339Y-64999454D01*
X195592342Y-64999453D01*
X195599637Y-64998860D01*
X195606601Y-64996604D01*
X195612560Y-64995413D01*
X195618415Y-64994029D01*
X195625681Y-64993182D01*
X195694327Y-64968265D01*
X195698455Y-64966848D01*
X195760936Y-64946607D01*
X195760938Y-64946606D01*
X195767899Y-64944351D01*
X195774154Y-64940555D01*
X195779628Y-64938049D01*
X195785058Y-64935330D01*
X195791937Y-64932833D01*
X195805413Y-64923998D01*
X195852976Y-64892814D01*
X195856680Y-64890477D01*
X195919107Y-64852595D01*
X195927484Y-64845197D01*
X195927508Y-64845224D01*
X195930500Y-64842571D01*
X195933733Y-64839868D01*
X195939852Y-64835856D01*
X195993128Y-64779617D01*
X195995506Y-64777175D01*
X198864911Y-61907770D01*
X198879323Y-61895384D01*
X198890918Y-61886851D01*
X198890923Y-61886846D01*
X198896818Y-61882508D01*
X198901557Y-61876930D01*
X198901560Y-61876927D01*
X198931035Y-61842232D01*
X198937965Y-61834716D01*
X198943660Y-61829021D01*
X198957983Y-61810917D01*
X198961281Y-61806749D01*
X198964072Y-61803345D01*
X199006591Y-61753297D01*
X199006592Y-61753295D01*
X199011333Y-61747715D01*
X199014662Y-61741196D01*
X199016917Y-61737815D01*
X199071355Y-61692240D01*
X199141790Y-61683331D01*
X199181672Y-61696891D01*
X199238139Y-61727423D01*
X199238146Y-61727426D01*
X199243565Y-61730356D01*
X199316887Y-61753053D01*
X199431293Y-61788468D01*
X199431296Y-61788469D01*
X199437180Y-61790290D01*
X199443305Y-61790934D01*
X199443306Y-61790934D01*
X199632622Y-61810832D01*
X199632623Y-61810832D01*
X199638750Y-61811476D01*
X199728092Y-61803345D01*
X199834457Y-61793665D01*
X199834460Y-61793664D01*
X199840596Y-61793106D01*
X199846502Y-61791368D01*
X199846506Y-61791367D01*
X200011568Y-61742786D01*
X200035029Y-61735881D01*
X200040486Y-61733028D01*
X200040489Y-61733027D01*
X200185598Y-61657166D01*
X200214645Y-61641981D01*
X200372601Y-61514981D01*
X200376560Y-61510263D01*
X200376566Y-61510257D01*
X200404884Y-61476509D01*
X200463993Y-61437182D01*
X200501405Y-61431500D01*
X200772543Y-61431500D01*
X200792255Y-61433051D01*
X200805507Y-61435150D01*
X200812094Y-61434805D01*
X200812098Y-61434805D01*
X200871850Y-61431673D01*
X200878445Y-61431500D01*
X200898306Y-61431500D01*
X200918069Y-61429423D01*
X200924628Y-61428907D01*
X200940427Y-61428079D01*
X200984377Y-61425776D01*
X200984381Y-61425775D01*
X200990971Y-61425430D01*
X201003929Y-61421958D01*
X201023372Y-61418355D01*
X201023795Y-61418311D01*
X201036702Y-61416954D01*
X201099894Y-61396422D01*
X201106196Y-61394556D01*
X201163985Y-61379071D01*
X201170363Y-61377362D01*
X201176242Y-61374366D01*
X201176251Y-61374363D01*
X201182317Y-61371272D01*
X201200579Y-61363708D01*
X201207043Y-61361608D01*
X201207051Y-61361605D01*
X201213331Y-61359564D01*
X201219050Y-61356262D01*
X201219055Y-61356260D01*
X201270867Y-61326346D01*
X201276637Y-61323213D01*
X201335839Y-61293047D01*
X201346259Y-61284609D01*
X201362552Y-61273411D01*
X201364670Y-61272188D01*
X201374169Y-61266704D01*
X201379075Y-61262287D01*
X201379080Y-61262283D01*
X201423538Y-61222253D01*
X201428554Y-61217969D01*
X201441409Y-61207559D01*
X201441412Y-61207556D01*
X201443986Y-61205472D01*
X201458031Y-61191427D01*
X201462816Y-61186886D01*
X201507274Y-61146856D01*
X201507275Y-61146855D01*
X201512185Y-61142434D01*
X201520075Y-61131574D01*
X201532912Y-61116546D01*
X202944546Y-59704912D01*
X202959574Y-59692075D01*
X202970434Y-59684185D01*
X202988159Y-59664500D01*
X203014886Y-59634816D01*
X203019427Y-59630031D01*
X203033472Y-59615986D01*
X203045979Y-59600542D01*
X203050255Y-59595536D01*
X203090282Y-59551081D01*
X203090285Y-59551077D01*
X203094704Y-59546169D01*
X203101413Y-59534549D01*
X203112607Y-59518263D01*
X203116892Y-59512971D01*
X203121047Y-59507840D01*
X203151206Y-59448649D01*
X203154347Y-59442865D01*
X203184263Y-59391049D01*
X203184264Y-59391047D01*
X203187564Y-59385331D01*
X203189603Y-59379055D01*
X203189605Y-59379051D01*
X203191708Y-59372579D01*
X203199272Y-59354317D01*
X203202364Y-59348248D01*
X203202366Y-59348244D01*
X203205362Y-59342363D01*
X203207069Y-59335992D01*
X203207071Y-59335987D01*
X203222555Y-59278197D01*
X203224429Y-59271871D01*
X203226702Y-59264875D01*
X203244954Y-59208702D01*
X203246356Y-59195364D01*
X203249958Y-59175931D01*
X203251718Y-59169361D01*
X203251719Y-59169354D01*
X203253429Y-59162972D01*
X203256905Y-59096654D01*
X203257422Y-59090080D01*
X203259156Y-59073579D01*
X203259500Y-59070306D01*
X203259500Y-59050426D01*
X203259673Y-59043832D01*
X203262804Y-58984099D01*
X203262804Y-58984094D01*
X203263149Y-58977507D01*
X203261051Y-58964260D01*
X203259500Y-58944550D01*
X203259500Y-56019188D01*
X203279502Y-55951067D01*
X203296405Y-55930093D01*
X203382198Y-55844300D01*
X203513523Y-55656749D01*
X203515846Y-55651767D01*
X203515849Y-55651762D01*
X203607961Y-55454225D01*
X203607961Y-55454224D01*
X203610284Y-55449243D01*
X203634266Y-55359744D01*
X203668119Y-55233402D01*
X203668119Y-55233400D01*
X203669543Y-55228087D01*
X203689498Y-55000000D01*
X203669543Y-54771913D01*
X203661331Y-54741264D01*
X203611707Y-54556067D01*
X203611706Y-54556065D01*
X203610284Y-54550757D01*
X203605568Y-54540643D01*
X203515849Y-54348238D01*
X203515846Y-54348233D01*
X203513523Y-54343251D01*
X203412161Y-54198491D01*
X203385357Y-54160211D01*
X203385355Y-54160208D01*
X203382198Y-54155700D01*
X203220300Y-53993802D01*
X203215792Y-53990645D01*
X203215789Y-53990643D01*
X203125421Y-53927367D01*
X203032749Y-53862477D01*
X203027767Y-53860154D01*
X203027762Y-53860151D01*
X202830225Y-53768039D01*
X202830224Y-53768039D01*
X202825243Y-53765716D01*
X202819935Y-53764294D01*
X202819933Y-53764293D01*
X202609402Y-53707881D01*
X202609400Y-53707881D01*
X202604087Y-53706457D01*
X202376000Y-53686502D01*
X202147913Y-53706457D01*
X202142600Y-53707881D01*
X202142598Y-53707881D01*
X201932067Y-53764293D01*
X201932065Y-53764294D01*
X201926757Y-53765716D01*
X201921776Y-53768039D01*
X201921775Y-53768039D01*
X201724238Y-53860151D01*
X201724233Y-53860154D01*
X201719251Y-53862477D01*
X201626579Y-53927367D01*
X201536211Y-53990643D01*
X201536208Y-53990645D01*
X201531700Y-53993802D01*
X201369802Y-54155700D01*
X201366645Y-54160208D01*
X201366643Y-54160211D01*
X201339839Y-54198491D01*
X201238477Y-54343251D01*
X201236154Y-54348233D01*
X201236151Y-54348238D01*
X201146432Y-54540643D01*
X201141716Y-54550757D01*
X201140294Y-54556065D01*
X201140293Y-54556067D01*
X201090669Y-54741264D01*
X201082457Y-54771913D01*
X201062502Y-55000000D01*
X201082457Y-55228087D01*
X201083881Y-55233400D01*
X201083881Y-55233402D01*
X201117735Y-55359744D01*
X201141716Y-55449243D01*
X201144039Y-55454224D01*
X201144039Y-55454225D01*
X201236151Y-55651762D01*
X201236154Y-55651767D01*
X201238477Y-55656749D01*
X201369802Y-55844300D01*
X201455595Y-55930093D01*
X201489621Y-55992405D01*
X201492500Y-56019188D01*
X201492500Y-58605852D01*
X201472498Y-58673973D01*
X201455595Y-58694947D01*
X200559771Y-59590771D01*
X200497459Y-59624797D01*
X200426644Y-59619732D01*
X200383349Y-59591800D01*
X200382890Y-59591237D01*
X200314373Y-59534555D01*
X200231472Y-59465973D01*
X200231469Y-59465971D01*
X200226722Y-59462044D01*
X200048435Y-59365644D01*
X199900499Y-59319850D01*
X199860707Y-59307532D01*
X199860704Y-59307531D01*
X199854820Y-59305710D01*
X199848695Y-59305066D01*
X199848694Y-59305066D01*
X199659378Y-59285168D01*
X199659377Y-59285168D01*
X199653250Y-59284524D01*
X199574709Y-59291672D01*
X199457543Y-59302335D01*
X199457540Y-59302336D01*
X199451404Y-59302894D01*
X199445498Y-59304632D01*
X199445494Y-59304633D01*
X199350781Y-59332509D01*
X199256971Y-59360119D01*
X199251514Y-59362972D01*
X199251511Y-59362973D01*
X199167163Y-59407069D01*
X199077540Y-59453923D01*
X199077538Y-59453923D01*
X199077355Y-59454019D01*
X199077337Y-59453984D01*
X199011559Y-59473889D01*
X198950591Y-59458729D01*
X198941815Y-59453984D01*
X198778435Y-59365644D01*
X198630499Y-59319850D01*
X198590707Y-59307532D01*
X198590704Y-59307531D01*
X198584820Y-59305710D01*
X198578695Y-59305066D01*
X198578694Y-59305066D01*
X198389378Y-59285168D01*
X198389377Y-59285168D01*
X198383250Y-59284524D01*
X198304709Y-59291672D01*
X198187543Y-59302335D01*
X198187540Y-59302336D01*
X198181404Y-59302894D01*
X198175498Y-59304632D01*
X198175494Y-59304633D01*
X198101385Y-59326445D01*
X197986971Y-59360119D01*
X197986771Y-59359441D01*
X197920727Y-59365956D01*
X197883677Y-59352680D01*
X197869063Y-59344679D01*
X197748606Y-59299522D01*
X197733351Y-59295895D01*
X197682486Y-59290369D01*
X197675672Y-59290000D01*
X197378115Y-59290000D01*
X197362876Y-59294475D01*
X197361671Y-59295865D01*
X197360000Y-59303548D01*
X197360000Y-60101758D01*
X197359215Y-60115803D01*
X197342500Y-60264817D01*
X197342500Y-60676000D01*
X197322498Y-60744121D01*
X197268842Y-60790614D01*
X197216500Y-60802000D01*
X196091116Y-60802000D01*
X196075877Y-60806475D01*
X196074672Y-60807865D01*
X196073001Y-60815548D01*
X196073001Y-61342669D01*
X196073371Y-61349490D01*
X196078895Y-61400352D01*
X196082521Y-61415604D01*
X196127676Y-61536054D01*
X196136214Y-61551649D01*
X196212715Y-61653724D01*
X196225276Y-61666285D01*
X196327351Y-61742786D01*
X196342946Y-61751324D01*
X196463394Y-61796478D01*
X196478649Y-61800106D01*
X196531614Y-61805859D01*
X196597176Y-61833101D01*
X196637603Y-61891463D01*
X196640059Y-61962417D01*
X196607102Y-62020217D01*
X195172724Y-63454595D01*
X195110412Y-63488621D01*
X195083629Y-63491500D01*
X168366371Y-63491500D01*
X168298250Y-63471498D01*
X168277276Y-63454595D01*
X167351987Y-62529306D01*
X186480524Y-62529306D01*
X186486251Y-62536956D01*
X186661759Y-62644507D01*
X186670553Y-62648988D01*
X186883029Y-62736998D01*
X186892414Y-62740047D01*
X187116044Y-62793737D01*
X187125791Y-62795280D01*
X187355070Y-62813325D01*
X187364930Y-62813325D01*
X187594209Y-62795280D01*
X187603956Y-62793737D01*
X187827586Y-62740047D01*
X187836971Y-62736998D01*
X188049447Y-62648988D01*
X188058241Y-62644507D01*
X188230083Y-62539203D01*
X188239543Y-62528747D01*
X188235759Y-62519969D01*
X187372812Y-61657022D01*
X187358868Y-61649408D01*
X187357035Y-61649539D01*
X187350420Y-61653790D01*
X186487284Y-62516926D01*
X186480524Y-62529306D01*
X167351987Y-62529306D01*
X166112611Y-61289930D01*
X185831675Y-61289930D01*
X185849720Y-61519209D01*
X185851263Y-61528956D01*
X185904953Y-61752586D01*
X185908002Y-61761971D01*
X185996012Y-61974447D01*
X186000493Y-61983241D01*
X186105797Y-62155083D01*
X186116253Y-62164543D01*
X186125031Y-62160759D01*
X186987978Y-61297812D01*
X186994356Y-61286132D01*
X187724408Y-61286132D01*
X187724539Y-61287965D01*
X187728790Y-61294580D01*
X188591926Y-62157716D01*
X188604306Y-62164476D01*
X188611956Y-62158749D01*
X188719507Y-61983241D01*
X188723988Y-61974447D01*
X188811998Y-61761971D01*
X188815047Y-61752586D01*
X188868737Y-61528956D01*
X188870280Y-61519209D01*
X188888325Y-61289930D01*
X188888325Y-61280070D01*
X188870280Y-61050791D01*
X188868737Y-61041044D01*
X188815047Y-60817414D01*
X188811998Y-60808029D01*
X188787962Y-60750000D01*
X189936502Y-60750000D01*
X189956457Y-60978087D01*
X189957881Y-60983400D01*
X189957881Y-60983402D01*
X189981117Y-61070117D01*
X190015716Y-61199243D01*
X190018039Y-61204224D01*
X190018039Y-61204225D01*
X190110151Y-61401762D01*
X190110154Y-61401767D01*
X190112477Y-61406749D01*
X190173939Y-61494525D01*
X190203018Y-61536054D01*
X190243802Y-61594300D01*
X190405700Y-61756198D01*
X190410208Y-61759355D01*
X190410211Y-61759357D01*
X190468407Y-61800106D01*
X190593251Y-61887523D01*
X190598233Y-61889846D01*
X190598238Y-61889849D01*
X190766346Y-61968238D01*
X190800757Y-61984284D01*
X190806065Y-61985706D01*
X190806067Y-61985707D01*
X191016598Y-62042119D01*
X191016600Y-62042119D01*
X191021913Y-62043543D01*
X191250000Y-62063498D01*
X191478087Y-62043543D01*
X191483400Y-62042119D01*
X191483402Y-62042119D01*
X191693933Y-61985707D01*
X191693935Y-61985706D01*
X191699243Y-61984284D01*
X191733654Y-61968238D01*
X191901762Y-61889849D01*
X191901767Y-61889846D01*
X191906749Y-61887523D01*
X192031593Y-61800106D01*
X192089789Y-61759357D01*
X192089792Y-61759355D01*
X192094300Y-61756198D01*
X192256198Y-61594300D01*
X192296983Y-61536054D01*
X192326061Y-61494525D01*
X192387523Y-61406749D01*
X192389846Y-61401767D01*
X192389849Y-61401762D01*
X192481961Y-61204225D01*
X192481961Y-61204224D01*
X192484284Y-61199243D01*
X192518884Y-61070117D01*
X192542119Y-60983402D01*
X192542119Y-60983400D01*
X192543543Y-60978087D01*
X192563498Y-60750000D01*
X192543543Y-60521913D01*
X192513891Y-60411251D01*
X192485707Y-60306067D01*
X192485706Y-60306065D01*
X192484284Y-60300757D01*
X192479792Y-60291124D01*
X192472686Y-60275885D01*
X196073000Y-60275885D01*
X196077475Y-60291124D01*
X196078865Y-60292329D01*
X196086548Y-60294000D01*
X196833885Y-60294000D01*
X196849124Y-60289525D01*
X196850329Y-60288135D01*
X196852000Y-60280452D01*
X196852000Y-59308116D01*
X196847525Y-59292877D01*
X196846135Y-59291672D01*
X196838452Y-59290001D01*
X196536331Y-59290001D01*
X196529510Y-59290371D01*
X196478648Y-59295895D01*
X196463396Y-59299521D01*
X196342946Y-59344676D01*
X196327351Y-59353214D01*
X196225276Y-59429715D01*
X196212715Y-59442276D01*
X196136214Y-59544351D01*
X196127676Y-59559946D01*
X196082522Y-59680394D01*
X196078895Y-59695649D01*
X196073369Y-59746514D01*
X196073000Y-59753328D01*
X196073000Y-60275885D01*
X192472686Y-60275885D01*
X192389849Y-60098238D01*
X192389846Y-60098233D01*
X192387523Y-60093251D01*
X192274710Y-59932138D01*
X192259357Y-59910211D01*
X192259355Y-59910208D01*
X192256198Y-59905700D01*
X192094300Y-59743802D01*
X192089792Y-59740645D01*
X192089789Y-59740643D01*
X191977679Y-59662143D01*
X191906749Y-59612477D01*
X191901767Y-59610154D01*
X191901762Y-59610151D01*
X191704225Y-59518039D01*
X191704224Y-59518039D01*
X191699243Y-59515716D01*
X191693935Y-59514294D01*
X191693933Y-59514293D01*
X191483402Y-59457881D01*
X191483400Y-59457881D01*
X191478087Y-59456457D01*
X191250000Y-59436502D01*
X191021913Y-59456457D01*
X191016600Y-59457881D01*
X191016598Y-59457881D01*
X190806067Y-59514293D01*
X190806065Y-59514294D01*
X190800757Y-59515716D01*
X190795776Y-59518039D01*
X190795775Y-59518039D01*
X190598238Y-59610151D01*
X190598233Y-59610154D01*
X190593251Y-59612477D01*
X190522321Y-59662143D01*
X190410211Y-59740643D01*
X190410208Y-59740645D01*
X190405700Y-59743802D01*
X190243802Y-59905700D01*
X190240645Y-59910208D01*
X190240643Y-59910211D01*
X190225290Y-59932138D01*
X190112477Y-60093251D01*
X190110154Y-60098233D01*
X190110151Y-60098238D01*
X190020208Y-60291124D01*
X190015716Y-60300757D01*
X190014294Y-60306065D01*
X190014293Y-60306067D01*
X189986109Y-60411251D01*
X189956457Y-60521913D01*
X189936502Y-60750000D01*
X188787962Y-60750000D01*
X188723988Y-60595553D01*
X188719507Y-60586759D01*
X188614203Y-60414917D01*
X188603747Y-60405457D01*
X188594969Y-60409241D01*
X187732022Y-61272188D01*
X187724408Y-61286132D01*
X186994356Y-61286132D01*
X186995592Y-61283868D01*
X186995461Y-61282035D01*
X186991210Y-61275420D01*
X186128074Y-60412284D01*
X186115694Y-60405524D01*
X186108044Y-60411251D01*
X186000493Y-60586759D01*
X185996012Y-60595553D01*
X185908002Y-60808029D01*
X185904953Y-60817414D01*
X185851263Y-61041044D01*
X185849720Y-61050791D01*
X185831675Y-61280070D01*
X185831675Y-61289930D01*
X166112611Y-61289930D01*
X165044721Y-60222040D01*
X165010695Y-60159728D01*
X165015760Y-60088913D01*
X165058307Y-60032077D01*
X165124827Y-60007266D01*
X165178764Y-60015235D01*
X165373938Y-60089764D01*
X165373945Y-60089766D01*
X165378774Y-60091610D01*
X165383842Y-60092641D01*
X165383845Y-60092642D01*
X165480963Y-60112401D01*
X165603963Y-60137426D01*
X165609136Y-60137616D01*
X165609139Y-60137616D01*
X165828448Y-60145657D01*
X165828452Y-60145657D01*
X165833612Y-60145846D01*
X165838732Y-60145190D01*
X165838734Y-60145190D01*
X166056425Y-60117304D01*
X166056428Y-60117303D01*
X166061552Y-60116647D01*
X166153994Y-60088913D01*
X166276710Y-60052096D01*
X166281663Y-60050610D01*
X166488033Y-59949511D01*
X166537971Y-59913891D01*
X166670916Y-59819062D01*
X166675119Y-59816064D01*
X166680651Y-59810552D01*
X166785590Y-59705978D01*
X166837898Y-59653852D01*
X166859169Y-59624251D01*
X166968979Y-59471433D01*
X166971997Y-59467233D01*
X166979939Y-59451165D01*
X167035721Y-59338297D01*
X167073816Y-59261217D01*
X167099774Y-59175780D01*
X167139117Y-59046291D01*
X167139118Y-59046285D01*
X167140621Y-59041339D01*
X167158340Y-58906749D01*
X167170179Y-58816823D01*
X167170179Y-58816819D01*
X167170616Y-58813502D01*
X167171183Y-58790290D01*
X167172208Y-58748365D01*
X167172208Y-58748361D01*
X167172290Y-58745000D01*
X167160850Y-58605852D01*
X167153884Y-58521121D01*
X167153883Y-58521115D01*
X167153460Y-58515970D01*
X167097477Y-58293090D01*
X167005843Y-58082347D01*
X167003037Y-58078009D01*
X166883830Y-57893743D01*
X166883828Y-57893740D01*
X166881020Y-57889400D01*
X166831394Y-57834861D01*
X166729837Y-57723252D01*
X166729835Y-57723251D01*
X166726359Y-57719430D01*
X166722308Y-57716231D01*
X166722304Y-57716227D01*
X166644454Y-57654745D01*
X166603391Y-57596828D01*
X166600159Y-57525905D01*
X166629110Y-57471330D01*
X166649542Y-57448746D01*
X166645759Y-57439969D01*
X165782812Y-56577022D01*
X165768868Y-56569408D01*
X165767035Y-56569539D01*
X165760420Y-56573790D01*
X164897284Y-57436926D01*
X164890524Y-57449306D01*
X164909831Y-57475097D01*
X164907900Y-57476542D01*
X164932362Y-57506239D01*
X164940709Y-57576743D01*
X164909614Y-57640568D01*
X164892131Y-57656465D01*
X164850084Y-57688035D01*
X164838983Y-57696370D01*
X164835411Y-57700108D01*
X164739229Y-57800757D01*
X164680216Y-57862510D01*
X164550716Y-58052350D01*
X164502339Y-58156571D01*
X164469413Y-58227504D01*
X164453961Y-58260792D01*
X164392548Y-58482237D01*
X164368129Y-58710739D01*
X164381357Y-58940161D01*
X164382492Y-58945198D01*
X164382493Y-58945204D01*
X164410686Y-59070306D01*
X164431878Y-59164342D01*
X164433820Y-59169124D01*
X164433822Y-59169131D01*
X164501966Y-59336948D01*
X164509062Y-59407589D01*
X164476840Y-59470852D01*
X164415531Y-59506653D01*
X164344599Y-59503623D01*
X164296128Y-59473447D01*
X162583770Y-57761089D01*
X162571384Y-57746677D01*
X162562851Y-57735082D01*
X162562846Y-57735077D01*
X162558508Y-57729182D01*
X162552930Y-57724443D01*
X162552927Y-57724440D01*
X162518232Y-57694965D01*
X162510716Y-57688035D01*
X162505021Y-57682340D01*
X162494420Y-57673953D01*
X162482749Y-57664719D01*
X162479345Y-57661928D01*
X162429297Y-57619409D01*
X162429295Y-57619408D01*
X162423715Y-57614667D01*
X162417199Y-57611339D01*
X162412150Y-57607972D01*
X162407021Y-57604805D01*
X162401284Y-57600266D01*
X162335125Y-57569345D01*
X162331225Y-57567439D01*
X162266192Y-57534231D01*
X162259084Y-57532492D01*
X162253441Y-57530393D01*
X162247678Y-57528476D01*
X162241050Y-57525378D01*
X162231791Y-57523452D01*
X162169588Y-57510514D01*
X162165299Y-57509543D01*
X162094390Y-57492192D01*
X162088788Y-57491844D01*
X162088785Y-57491844D01*
X162083236Y-57491500D01*
X162083238Y-57491464D01*
X162079245Y-57491225D01*
X162075053Y-57490851D01*
X162067885Y-57489360D01*
X162001675Y-57491151D01*
X161990479Y-57491454D01*
X161987072Y-57491500D01*
X158251867Y-57491500D01*
X158183746Y-57471498D01*
X158148655Y-57437772D01*
X158126198Y-57405700D01*
X157964300Y-57243802D01*
X157959792Y-57240645D01*
X157959789Y-57240643D01*
X157855317Y-57167491D01*
X157776749Y-57112477D01*
X157771767Y-57110154D01*
X157771762Y-57110151D01*
X157574225Y-57018039D01*
X157574224Y-57018039D01*
X157569243Y-57015716D01*
X157563935Y-57014294D01*
X157563933Y-57014293D01*
X157353402Y-56957881D01*
X157353400Y-56957881D01*
X157348087Y-56956457D01*
X157120000Y-56936502D01*
X156891913Y-56956457D01*
X156886600Y-56957881D01*
X156886598Y-56957881D01*
X156676067Y-57014293D01*
X156676065Y-57014294D01*
X156670757Y-57015716D01*
X156665776Y-57018039D01*
X156665775Y-57018039D01*
X156468238Y-57110151D01*
X156468233Y-57110154D01*
X156463251Y-57112477D01*
X156384683Y-57167491D01*
X156280211Y-57240643D01*
X156280208Y-57240645D01*
X156275700Y-57243802D01*
X156113802Y-57405700D01*
X156110645Y-57410208D01*
X156110643Y-57410211D01*
X156064537Y-57476057D01*
X155982477Y-57593251D01*
X155980154Y-57598233D01*
X155980151Y-57598238D01*
X155910934Y-57746677D01*
X155885716Y-57800757D01*
X155884294Y-57806065D01*
X155884293Y-57806067D01*
X155827881Y-58016598D01*
X155826457Y-58021913D01*
X155806502Y-58250000D01*
X150813498Y-58250000D01*
X150793543Y-58021913D01*
X150792119Y-58016598D01*
X150735707Y-57806067D01*
X150735706Y-57806065D01*
X150734284Y-57800757D01*
X150709066Y-57746677D01*
X150639849Y-57598238D01*
X150639846Y-57598233D01*
X150637523Y-57593251D01*
X150555463Y-57476057D01*
X150509357Y-57410211D01*
X150509355Y-57410208D01*
X150506198Y-57405700D01*
X150344300Y-57243802D01*
X150339792Y-57240645D01*
X150339789Y-57240643D01*
X150235317Y-57167491D01*
X150156749Y-57112477D01*
X150151767Y-57110154D01*
X150151762Y-57110151D01*
X149954225Y-57018039D01*
X149954224Y-57018039D01*
X149949243Y-57015716D01*
X149943935Y-57014294D01*
X149943933Y-57014293D01*
X149733402Y-56957881D01*
X149733400Y-56957881D01*
X149728087Y-56956457D01*
X149500000Y-56936502D01*
X149494525Y-56936981D01*
X149337087Y-56950755D01*
X149267482Y-56936766D01*
X149237010Y-56914329D01*
X146546276Y-54223595D01*
X146512250Y-54161283D01*
X146517315Y-54090468D01*
X146559862Y-54033632D01*
X146626382Y-54008821D01*
X146635371Y-54008500D01*
X147883629Y-54008500D01*
X147951750Y-54028502D01*
X147972724Y-54045405D01*
X148109156Y-54181837D01*
X148143182Y-54244149D01*
X148145582Y-54281914D01*
X148141857Y-54324494D01*
X148126502Y-54500000D01*
X148146457Y-54728087D01*
X148147881Y-54733400D01*
X148147881Y-54733402D01*
X148195382Y-54910675D01*
X148205716Y-54949243D01*
X148208039Y-54954224D01*
X148208039Y-54954225D01*
X148300151Y-55151762D01*
X148300154Y-55151767D01*
X148302477Y-55156749D01*
X148368068Y-55250423D01*
X148423258Y-55329241D01*
X148433802Y-55344300D01*
X148595700Y-55506198D01*
X148600208Y-55509355D01*
X148600211Y-55509357D01*
X148678389Y-55564098D01*
X148783251Y-55637523D01*
X148788233Y-55639846D01*
X148788238Y-55639849D01*
X148977343Y-55728029D01*
X148990757Y-55734284D01*
X148996065Y-55735706D01*
X148996067Y-55735707D01*
X149206598Y-55792119D01*
X149206600Y-55792119D01*
X149211913Y-55793543D01*
X149440000Y-55813498D01*
X149668087Y-55793543D01*
X149673400Y-55792119D01*
X149673402Y-55792119D01*
X149883933Y-55735707D01*
X149883935Y-55735706D01*
X149889243Y-55734284D01*
X149902657Y-55728029D01*
X150091762Y-55639849D01*
X150091767Y-55639846D01*
X150096749Y-55637523D01*
X150201611Y-55564098D01*
X150279789Y-55509357D01*
X150279792Y-55509355D01*
X150284300Y-55506198D01*
X150446198Y-55344300D01*
X150456743Y-55329241D01*
X150511932Y-55250423D01*
X150577523Y-55156749D01*
X150579846Y-55151767D01*
X150579849Y-55151762D01*
X150671961Y-54954225D01*
X150671961Y-54954224D01*
X150674284Y-54949243D01*
X150684619Y-54910675D01*
X150732119Y-54733402D01*
X150732119Y-54733400D01*
X150733543Y-54728087D01*
X150753498Y-54500000D01*
X155746502Y-54500000D01*
X155766457Y-54728087D01*
X155767881Y-54733400D01*
X155767881Y-54733402D01*
X155815382Y-54910675D01*
X155825716Y-54949243D01*
X155828039Y-54954224D01*
X155828039Y-54954225D01*
X155920151Y-55151762D01*
X155920154Y-55151767D01*
X155922477Y-55156749D01*
X155988068Y-55250423D01*
X156043258Y-55329241D01*
X156053802Y-55344300D01*
X156215700Y-55506198D01*
X156220208Y-55509355D01*
X156220211Y-55509357D01*
X156298389Y-55564098D01*
X156403251Y-55637523D01*
X156408233Y-55639846D01*
X156408238Y-55639849D01*
X156597343Y-55728029D01*
X156610757Y-55734284D01*
X156616065Y-55735706D01*
X156616067Y-55735707D01*
X156826598Y-55792119D01*
X156826600Y-55792119D01*
X156831913Y-55793543D01*
X157060000Y-55813498D01*
X157288087Y-55793543D01*
X157293400Y-55792119D01*
X157293402Y-55792119D01*
X157503933Y-55735707D01*
X157503935Y-55735706D01*
X157509243Y-55734284D01*
X157522657Y-55728029D01*
X157711762Y-55639849D01*
X157711767Y-55639846D01*
X157716749Y-55637523D01*
X157821611Y-55564098D01*
X157899789Y-55509357D01*
X157899792Y-55509355D01*
X157904300Y-55506198D01*
X158066198Y-55344300D01*
X158076743Y-55329241D01*
X158131932Y-55250423D01*
X158197523Y-55156749D01*
X158199846Y-55151767D01*
X158199849Y-55151762D01*
X158291961Y-54954225D01*
X158291961Y-54954224D01*
X158294284Y-54949243D01*
X158304619Y-54910675D01*
X158352119Y-54733402D01*
X158352119Y-54733400D01*
X158353543Y-54728087D01*
X158373498Y-54500000D01*
X158370453Y-54465197D01*
X158364354Y-54395481D01*
X158378343Y-54325877D01*
X158427743Y-54274884D01*
X158489875Y-54258500D01*
X160204217Y-54258500D01*
X160272338Y-54278502D01*
X160318831Y-54332158D01*
X160328935Y-54402432D01*
X160318413Y-54437748D01*
X160289384Y-54500000D01*
X160270524Y-54540447D01*
X160265716Y-54550757D01*
X160264294Y-54556065D01*
X160264293Y-54556067D01*
X160214669Y-54741264D01*
X160206457Y-54771913D01*
X160186502Y-55000000D01*
X160206457Y-55228087D01*
X160207881Y-55233400D01*
X160207881Y-55233402D01*
X160241735Y-55359744D01*
X160265716Y-55449243D01*
X160268039Y-55454224D01*
X160268039Y-55454225D01*
X160360151Y-55651762D01*
X160360154Y-55651767D01*
X160362477Y-55656749D01*
X160493802Y-55844300D01*
X160655700Y-56006198D01*
X160660208Y-56009355D01*
X160660211Y-56009357D01*
X160692636Y-56032061D01*
X160843251Y-56137523D01*
X160848233Y-56139846D01*
X160848238Y-56139849D01*
X160990384Y-56206132D01*
X161050757Y-56234284D01*
X161056065Y-56235706D01*
X161056067Y-56235707D01*
X161266598Y-56292119D01*
X161266600Y-56292119D01*
X161271913Y-56293543D01*
X161500000Y-56313498D01*
X161728087Y-56293543D01*
X161733400Y-56292119D01*
X161733402Y-56292119D01*
X161943933Y-56235707D01*
X161943935Y-56235706D01*
X161949243Y-56234284D01*
X162001471Y-56209930D01*
X164241675Y-56209930D01*
X164259720Y-56439209D01*
X164261263Y-56448956D01*
X164314953Y-56672586D01*
X164318002Y-56681971D01*
X164406012Y-56894447D01*
X164410493Y-56903241D01*
X164515797Y-57075083D01*
X164526253Y-57084543D01*
X164535031Y-57080759D01*
X165397978Y-56217812D01*
X165404356Y-56206132D01*
X166134408Y-56206132D01*
X166134539Y-56207965D01*
X166138790Y-56214580D01*
X167001926Y-57077716D01*
X167014306Y-57084476D01*
X167021956Y-57078749D01*
X167129507Y-56903241D01*
X167133988Y-56894447D01*
X167221998Y-56681971D01*
X167225047Y-56672586D01*
X167278737Y-56448956D01*
X167280280Y-56439209D01*
X167298325Y-56209930D01*
X167298325Y-56200070D01*
X167280280Y-55970791D01*
X167278737Y-55961044D01*
X167225047Y-55737414D01*
X167221998Y-55728029D01*
X167133988Y-55515553D01*
X167129507Y-55506759D01*
X167024203Y-55334917D01*
X167013747Y-55325457D01*
X167004969Y-55329241D01*
X166142022Y-56192188D01*
X166134408Y-56206132D01*
X165404356Y-56206132D01*
X165405592Y-56203868D01*
X165405461Y-56202035D01*
X165401210Y-56195420D01*
X164538074Y-55332284D01*
X164525694Y-55325524D01*
X164518044Y-55331251D01*
X164410493Y-55506759D01*
X164406012Y-55515553D01*
X164318002Y-55728029D01*
X164314953Y-55737414D01*
X164261263Y-55961044D01*
X164259720Y-55970791D01*
X164241675Y-56200070D01*
X164241675Y-56209930D01*
X162001471Y-56209930D01*
X162009616Y-56206132D01*
X162151762Y-56139849D01*
X162151767Y-56139846D01*
X162156749Y-56137523D01*
X162307364Y-56032061D01*
X162339789Y-56009357D01*
X162339792Y-56009355D01*
X162344300Y-56006198D01*
X162506198Y-55844300D01*
X162637523Y-55656749D01*
X162639846Y-55651767D01*
X162639849Y-55651762D01*
X162731961Y-55454225D01*
X162731961Y-55454224D01*
X162734284Y-55449243D01*
X162758266Y-55359744D01*
X162792119Y-55233402D01*
X162792119Y-55233400D01*
X162793543Y-55228087D01*
X162813498Y-55000000D01*
X162810108Y-54961253D01*
X164890457Y-54961253D01*
X164894241Y-54970031D01*
X165757188Y-55832978D01*
X165771132Y-55840592D01*
X165772965Y-55840461D01*
X165779580Y-55836210D01*
X166642716Y-54973074D01*
X166649476Y-54960694D01*
X166643749Y-54953044D01*
X166468241Y-54845493D01*
X166459447Y-54841012D01*
X166246971Y-54753002D01*
X166237586Y-54749953D01*
X166013956Y-54696263D01*
X166004209Y-54694720D01*
X165774930Y-54676675D01*
X165765070Y-54676675D01*
X165535791Y-54694720D01*
X165526044Y-54696263D01*
X165302414Y-54749953D01*
X165293029Y-54753002D01*
X165080553Y-54841012D01*
X165071759Y-54845493D01*
X164899917Y-54950797D01*
X164890457Y-54961253D01*
X162810108Y-54961253D01*
X162793543Y-54771913D01*
X162785331Y-54741264D01*
X162735707Y-54556067D01*
X162735706Y-54556065D01*
X162734284Y-54550757D01*
X162729477Y-54540447D01*
X162710616Y-54500000D01*
X162681588Y-54437749D01*
X162670927Y-54367558D01*
X162699907Y-54302746D01*
X162759327Y-54263889D01*
X162795783Y-54258500D01*
X187133629Y-54258500D01*
X187201750Y-54278502D01*
X187222724Y-54295405D01*
X187520406Y-54593087D01*
X187554432Y-54655399D01*
X187549367Y-54726214D01*
X187506820Y-54783050D01*
X187440300Y-54807861D01*
X187429772Y-54808173D01*
X187267351Y-54806189D01*
X187267349Y-54806189D01*
X187262181Y-54806126D01*
X187110610Y-54829319D01*
X187040131Y-54840104D01*
X187040128Y-54840105D01*
X187035022Y-54840886D01*
X186945025Y-54870302D01*
X186821504Y-54910675D01*
X186821502Y-54910676D01*
X186816591Y-54912281D01*
X186612753Y-55018392D01*
X186608620Y-55021495D01*
X186608617Y-55021497D01*
X186458111Y-55134500D01*
X186428983Y-55156370D01*
X186425411Y-55160108D01*
X186275866Y-55316598D01*
X186270216Y-55322510D01*
X186267302Y-55326782D01*
X186267301Y-55326783D01*
X186249412Y-55353007D01*
X186140716Y-55512350D01*
X186138537Y-55517045D01*
X186073689Y-55656749D01*
X186043961Y-55720792D01*
X185982548Y-55942237D01*
X185981999Y-55947371D01*
X185981999Y-55947373D01*
X185979355Y-55972115D01*
X185958129Y-56170739D01*
X185958426Y-56175892D01*
X185958426Y-56175895D01*
X185959552Y-56195420D01*
X185971357Y-56400161D01*
X185972492Y-56405198D01*
X185972493Y-56405204D01*
X186014718Y-56592571D01*
X186021878Y-56624342D01*
X186108336Y-56837261D01*
X186111033Y-56841662D01*
X186111034Y-56841664D01*
X186172698Y-56942290D01*
X186228408Y-57033200D01*
X186378869Y-57206898D01*
X186555679Y-57353689D01*
X186560143Y-57356297D01*
X186560145Y-57356299D01*
X186577352Y-57366354D01*
X186626075Y-57417994D01*
X186639145Y-57487777D01*
X186612412Y-57553548D01*
X186589433Y-57575901D01*
X186444212Y-57684936D01*
X186428983Y-57696370D01*
X186425411Y-57700108D01*
X186329229Y-57800757D01*
X186270216Y-57862510D01*
X186140716Y-58052350D01*
X186092339Y-58156571D01*
X186059413Y-58227504D01*
X186043961Y-58260792D01*
X185982548Y-58482237D01*
X185958129Y-58710739D01*
X185971357Y-58940161D01*
X185972492Y-58945198D01*
X185972493Y-58945204D01*
X186000686Y-59070306D01*
X186021878Y-59164342D01*
X186108336Y-59377261D01*
X186111033Y-59381662D01*
X186111034Y-59381664D01*
X186165689Y-59470852D01*
X186228408Y-59573200D01*
X186378869Y-59746898D01*
X186487807Y-59837340D01*
X186527442Y-59896243D01*
X186528940Y-59967223D01*
X186500756Y-60018819D01*
X186480458Y-60041254D01*
X186484241Y-60050031D01*
X187347188Y-60912978D01*
X187361132Y-60920592D01*
X187362965Y-60920461D01*
X187369580Y-60916210D01*
X188232716Y-60053074D01*
X188239476Y-60040694D01*
X188220169Y-60014903D01*
X188222494Y-60013162D01*
X188199083Y-59984740D01*
X188190737Y-59914236D01*
X188221834Y-59850412D01*
X188241793Y-59832702D01*
X188265119Y-59816064D01*
X188270651Y-59810552D01*
X188375590Y-59705978D01*
X188427898Y-59653852D01*
X188449169Y-59624251D01*
X188558979Y-59471433D01*
X188561997Y-59467233D01*
X188569939Y-59451165D01*
X188625721Y-59338297D01*
X188663816Y-59261217D01*
X188689774Y-59175780D01*
X188729117Y-59046291D01*
X188729118Y-59046285D01*
X188730621Y-59041339D01*
X188748340Y-58906749D01*
X188760179Y-58816823D01*
X188760179Y-58816819D01*
X188760616Y-58813502D01*
X188761183Y-58790290D01*
X188762208Y-58748365D01*
X188762208Y-58748361D01*
X188762290Y-58745000D01*
X188750850Y-58605852D01*
X188743884Y-58521121D01*
X188743883Y-58521115D01*
X188743460Y-58515970D01*
X188687477Y-58293090D01*
X188595843Y-58082347D01*
X188593037Y-58078009D01*
X188473830Y-57893743D01*
X188473828Y-57893740D01*
X188471020Y-57889400D01*
X188421394Y-57834861D01*
X188319837Y-57723252D01*
X188319835Y-57723251D01*
X188316359Y-57719430D01*
X188312308Y-57716231D01*
X188312304Y-57716227D01*
X188140069Y-57580204D01*
X188140064Y-57580201D01*
X188136015Y-57577003D01*
X188135590Y-57576768D01*
X188090796Y-57523452D01*
X188081766Y-57453032D01*
X188112240Y-57388908D01*
X188133026Y-57370285D01*
X188260916Y-57279062D01*
X188265119Y-57276064D01*
X188272725Y-57268485D01*
X188359551Y-57181961D01*
X188427898Y-57113852D01*
X188496747Y-57018039D01*
X188558979Y-56931433D01*
X188561997Y-56927233D01*
X188576741Y-56897402D01*
X188627696Y-56794300D01*
X188663816Y-56721217D01*
X188691351Y-56630591D01*
X188729117Y-56506291D01*
X188729118Y-56506285D01*
X188730621Y-56501339D01*
X188748411Y-56366208D01*
X188760179Y-56276823D01*
X188760179Y-56276819D01*
X188760616Y-56273502D01*
X188761540Y-56235707D01*
X188762208Y-56208365D01*
X188762208Y-56208361D01*
X188762290Y-56205000D01*
X188757279Y-56144050D01*
X188771632Y-56074520D01*
X188821297Y-56023787D01*
X188890507Y-56007959D01*
X188957287Y-56032061D01*
X188971950Y-56044631D01*
X189416230Y-56488911D01*
X189428616Y-56503323D01*
X189437149Y-56514918D01*
X189437154Y-56514923D01*
X189441492Y-56520818D01*
X189447070Y-56525557D01*
X189447073Y-56525560D01*
X189481768Y-56555035D01*
X189489284Y-56561965D01*
X189494979Y-56567660D01*
X189497861Y-56569940D01*
X189517251Y-56585281D01*
X189520655Y-56588072D01*
X189568980Y-56629127D01*
X189576285Y-56635333D01*
X189582801Y-56638661D01*
X189587850Y-56642028D01*
X189592979Y-56645195D01*
X189598716Y-56649734D01*
X189664875Y-56680655D01*
X189668769Y-56682558D01*
X189733808Y-56715769D01*
X189740916Y-56717508D01*
X189746559Y-56719607D01*
X189752322Y-56721524D01*
X189758950Y-56724622D01*
X189766112Y-56726112D01*
X189766113Y-56726112D01*
X189830412Y-56739486D01*
X189834696Y-56740456D01*
X189905610Y-56757808D01*
X189911212Y-56758156D01*
X189911215Y-56758156D01*
X189916764Y-56758500D01*
X189916762Y-56758536D01*
X189920755Y-56758775D01*
X189924947Y-56759149D01*
X189932115Y-56760640D01*
X190009520Y-56758546D01*
X190012928Y-56758500D01*
X192932930Y-56758500D01*
X192951880Y-56759933D01*
X192966115Y-56762099D01*
X192966119Y-56762099D01*
X192973349Y-56763199D01*
X192980641Y-56762606D01*
X192980644Y-56762606D01*
X193026018Y-56758915D01*
X193036233Y-56758500D01*
X193044293Y-56758500D01*
X193061680Y-56756473D01*
X193072507Y-56755211D01*
X193076882Y-56754778D01*
X193142339Y-56749454D01*
X193142342Y-56749453D01*
X193149637Y-56748860D01*
X193156601Y-56746604D01*
X193162560Y-56745413D01*
X193168415Y-56744029D01*
X193175681Y-56743182D01*
X193244327Y-56718265D01*
X193248455Y-56716848D01*
X193310936Y-56696607D01*
X193310938Y-56696606D01*
X193317899Y-56694351D01*
X193324154Y-56690555D01*
X193329628Y-56688049D01*
X193335058Y-56685330D01*
X193341937Y-56682833D01*
X193383930Y-56655301D01*
X193402976Y-56642814D01*
X193406680Y-56640477D01*
X193469107Y-56602595D01*
X193477484Y-56595197D01*
X193477508Y-56595224D01*
X193480500Y-56592571D01*
X193483733Y-56589868D01*
X193489852Y-56585856D01*
X193543128Y-56529617D01*
X193545506Y-56527175D01*
X193578012Y-56494669D01*
X196067001Y-56494669D01*
X196067371Y-56501490D01*
X196072895Y-56552352D01*
X196076521Y-56567604D01*
X196121676Y-56688054D01*
X196130214Y-56703649D01*
X196206715Y-56805724D01*
X196219276Y-56818285D01*
X196321351Y-56894786D01*
X196336946Y-56903324D01*
X196457394Y-56948478D01*
X196472649Y-56952105D01*
X196523514Y-56957631D01*
X196530328Y-56958000D01*
X196827885Y-56958000D01*
X196843124Y-56953525D01*
X196844329Y-56952135D01*
X196846000Y-56944452D01*
X196846000Y-55972115D01*
X196841525Y-55956876D01*
X196840135Y-55955671D01*
X196832452Y-55954000D01*
X196085116Y-55954000D01*
X196069877Y-55958475D01*
X196068672Y-55959865D01*
X196067001Y-55967548D01*
X196067001Y-56494669D01*
X193578012Y-56494669D01*
X195777276Y-54295405D01*
X195839588Y-54261379D01*
X195866371Y-54258500D01*
X196279461Y-54258500D01*
X196347582Y-54278502D01*
X196394075Y-54332158D01*
X196404179Y-54402432D01*
X196374685Y-54467012D01*
X196339970Y-54495020D01*
X196321354Y-54505212D01*
X196219276Y-54581715D01*
X196206715Y-54594276D01*
X196130214Y-54696351D01*
X196121676Y-54711946D01*
X196076522Y-54832394D01*
X196072895Y-54847649D01*
X196067369Y-54898514D01*
X196067000Y-54905328D01*
X196067000Y-55427885D01*
X196071475Y-55443124D01*
X196072865Y-55444329D01*
X196080548Y-55446000D01*
X197210500Y-55446000D01*
X197278621Y-55466002D01*
X197325114Y-55519658D01*
X197336500Y-55572000D01*
X197336500Y-55976004D01*
X197351277Y-56126713D01*
X197351968Y-56129002D01*
X197354000Y-56149724D01*
X197354000Y-56939884D01*
X197358475Y-56955123D01*
X197359865Y-56956328D01*
X197367548Y-56957999D01*
X197669669Y-56957999D01*
X197676490Y-56957629D01*
X197727352Y-56952105D01*
X197742604Y-56948479D01*
X197863056Y-56903323D01*
X197878466Y-56894886D01*
X197947823Y-56879716D01*
X197976235Y-56885040D01*
X198161180Y-56942290D01*
X198167305Y-56942934D01*
X198167306Y-56942934D01*
X198356622Y-56962832D01*
X198356623Y-56962832D01*
X198362750Y-56963476D01*
X198472090Y-56953525D01*
X198558457Y-56945665D01*
X198558460Y-56945664D01*
X198564596Y-56945106D01*
X198570502Y-56943368D01*
X198570506Y-56943367D01*
X198723781Y-56898255D01*
X198759029Y-56887881D01*
X198764486Y-56885028D01*
X198764489Y-56885027D01*
X198930580Y-56798197D01*
X198938460Y-56794077D01*
X198938462Y-56794077D01*
X198938645Y-56793981D01*
X198938663Y-56794016D01*
X199004441Y-56774111D01*
X199065409Y-56789271D01*
X199237565Y-56882356D01*
X199334373Y-56912323D01*
X199425293Y-56940468D01*
X199425296Y-56940469D01*
X199431180Y-56942290D01*
X199437305Y-56942934D01*
X199437306Y-56942934D01*
X199626622Y-56962832D01*
X199626623Y-56962832D01*
X199632750Y-56963476D01*
X199742090Y-56953525D01*
X199828457Y-56945665D01*
X199828460Y-56945664D01*
X199834596Y-56945106D01*
X199840502Y-56943368D01*
X199840506Y-56943367D01*
X199993781Y-56898255D01*
X200029029Y-56887881D01*
X200034486Y-56885028D01*
X200034489Y-56885027D01*
X200200580Y-56798197D01*
X200208645Y-56793981D01*
X200366601Y-56666981D01*
X200496881Y-56511719D01*
X200499845Y-56506327D01*
X200499848Y-56506323D01*
X200591556Y-56339506D01*
X200594523Y-56334109D01*
X200655807Y-56140916D01*
X200656868Y-56131462D01*
X200669461Y-56019188D01*
X200673500Y-55983183D01*
X200673500Y-55423996D01*
X200658723Y-55273287D01*
X200600142Y-55079258D01*
X200504990Y-54900302D01*
X200499240Y-54893251D01*
X200414579Y-54789448D01*
X200376890Y-54743237D01*
X200372141Y-54739308D01*
X200225472Y-54617973D01*
X200225469Y-54617971D01*
X200220722Y-54614044D01*
X200042435Y-54517644D01*
X199941031Y-54486254D01*
X199854707Y-54459532D01*
X199854704Y-54459531D01*
X199848820Y-54457710D01*
X199842695Y-54457066D01*
X199842694Y-54457066D01*
X199653378Y-54437168D01*
X199653377Y-54437168D01*
X199647250Y-54436524D01*
X199563986Y-54444102D01*
X199451543Y-54454335D01*
X199451540Y-54454336D01*
X199445404Y-54454894D01*
X199439498Y-54456632D01*
X199439494Y-54456633D01*
X199338852Y-54486254D01*
X199250971Y-54512119D01*
X199245514Y-54514972D01*
X199245511Y-54514973D01*
X199196784Y-54540447D01*
X199127148Y-54554281D01*
X199061088Y-54528271D01*
X199033037Y-54497870D01*
X199031169Y-54495020D01*
X199012821Y-54467035D01*
X199010481Y-54463327D01*
X198975500Y-54405680D01*
X198975499Y-54405679D01*
X198972595Y-54400893D01*
X198965198Y-54392517D01*
X198965225Y-54392493D01*
X198962570Y-54389499D01*
X198959868Y-54386268D01*
X198955856Y-54380148D01*
X198899617Y-54326872D01*
X198897175Y-54324494D01*
X197583770Y-53011089D01*
X197571384Y-52996677D01*
X197562851Y-52985082D01*
X197562846Y-52985077D01*
X197558508Y-52979182D01*
X197552930Y-52974443D01*
X197552927Y-52974440D01*
X197518232Y-52944965D01*
X197510716Y-52938035D01*
X197505021Y-52932340D01*
X197488736Y-52919456D01*
X197482749Y-52914719D01*
X197479345Y-52911928D01*
X197429297Y-52869409D01*
X197429295Y-52869408D01*
X197423715Y-52864667D01*
X197417199Y-52861339D01*
X197412150Y-52857972D01*
X197407021Y-52854805D01*
X197401284Y-52850266D01*
X197335125Y-52819345D01*
X197331225Y-52817439D01*
X197266192Y-52784231D01*
X197259084Y-52782492D01*
X197253441Y-52780393D01*
X197247678Y-52778476D01*
X197241050Y-52775378D01*
X197169583Y-52760513D01*
X197165299Y-52759543D01*
X197094390Y-52742192D01*
X197088788Y-52741844D01*
X197088785Y-52741844D01*
X197083236Y-52741500D01*
X197083238Y-52741464D01*
X197079245Y-52741225D01*
X197075053Y-52740851D01*
X197067885Y-52739360D01*
X197004120Y-52741085D01*
X196990479Y-52741454D01*
X196987072Y-52741500D01*
X195567070Y-52741500D01*
X195548120Y-52740067D01*
X195533885Y-52737901D01*
X195533881Y-52737901D01*
X195526651Y-52736801D01*
X195519359Y-52737394D01*
X195519356Y-52737394D01*
X195473982Y-52741085D01*
X195463767Y-52741500D01*
X195455707Y-52741500D01*
X195452073Y-52741924D01*
X195452067Y-52741924D01*
X195439042Y-52743443D01*
X195427480Y-52744791D01*
X195423132Y-52745221D01*
X195350364Y-52751140D01*
X195343403Y-52753395D01*
X195337463Y-52754582D01*
X195331588Y-52755971D01*
X195324319Y-52756818D01*
X195255670Y-52781736D01*
X195251542Y-52783153D01*
X195189064Y-52803393D01*
X195189062Y-52803394D01*
X195182101Y-52805649D01*
X195175846Y-52809445D01*
X195170372Y-52811951D01*
X195164942Y-52814670D01*
X195158063Y-52817167D01*
X195151943Y-52821180D01*
X195151942Y-52821180D01*
X195097024Y-52857186D01*
X195093327Y-52859519D01*
X195030893Y-52897405D01*
X195022516Y-52904803D01*
X195022492Y-52904776D01*
X195019500Y-52907429D01*
X195016267Y-52910132D01*
X195010148Y-52914144D01*
X194980951Y-52944965D01*
X194956872Y-52970383D01*
X194954494Y-52972825D01*
X192722724Y-55204595D01*
X192660412Y-55238621D01*
X192633629Y-55241500D01*
X190366371Y-55241500D01*
X190298250Y-55221498D01*
X190277276Y-55204595D01*
X188469203Y-53396522D01*
X189967273Y-53396522D01*
X190014764Y-53573761D01*
X190018510Y-53584053D01*
X190110586Y-53781511D01*
X190116069Y-53791007D01*
X190241028Y-53969467D01*
X190248084Y-53977875D01*
X190402125Y-54131916D01*
X190410533Y-54138972D01*
X190588993Y-54263931D01*
X190598489Y-54269414D01*
X190795947Y-54361490D01*
X190806239Y-54365236D01*
X190978503Y-54411394D01*
X190992599Y-54411058D01*
X190996000Y-54403116D01*
X190996000Y-54397967D01*
X191504000Y-54397967D01*
X191507973Y-54411498D01*
X191516522Y-54412727D01*
X191693761Y-54365236D01*
X191704053Y-54361490D01*
X191901511Y-54269414D01*
X191911007Y-54263931D01*
X192089467Y-54138972D01*
X192097875Y-54131916D01*
X192251916Y-53977875D01*
X192258972Y-53969467D01*
X192383931Y-53791007D01*
X192389414Y-53781511D01*
X192481490Y-53584053D01*
X192485236Y-53573761D01*
X192531394Y-53401497D01*
X192531058Y-53387401D01*
X192523116Y-53384000D01*
X191522115Y-53384000D01*
X191506876Y-53388475D01*
X191505671Y-53389865D01*
X191504000Y-53397548D01*
X191504000Y-54397967D01*
X190996000Y-54397967D01*
X190996000Y-53402115D01*
X190991525Y-53386876D01*
X190990135Y-53385671D01*
X190982452Y-53384000D01*
X189982033Y-53384000D01*
X189968502Y-53387973D01*
X189967273Y-53396522D01*
X188469203Y-53396522D01*
X188083770Y-53011089D01*
X188071384Y-52996677D01*
X188062851Y-52985082D01*
X188062846Y-52985077D01*
X188058508Y-52979182D01*
X188052930Y-52974443D01*
X188052927Y-52974440D01*
X188018232Y-52944965D01*
X188010716Y-52938035D01*
X188005021Y-52932340D01*
X187988736Y-52919456D01*
X187982749Y-52914719D01*
X187979345Y-52911928D01*
X187929297Y-52869409D01*
X187929295Y-52869408D01*
X187923715Y-52864667D01*
X187917199Y-52861339D01*
X187912150Y-52857972D01*
X187907021Y-52854805D01*
X187901284Y-52850266D01*
X187835125Y-52819345D01*
X187831225Y-52817439D01*
X187766192Y-52784231D01*
X187759084Y-52782492D01*
X187753441Y-52780393D01*
X187747678Y-52778476D01*
X187741050Y-52775378D01*
X187669583Y-52760513D01*
X187665299Y-52759543D01*
X187594390Y-52742192D01*
X187588788Y-52741844D01*
X187588785Y-52741844D01*
X187583236Y-52741500D01*
X187583238Y-52741464D01*
X187579245Y-52741225D01*
X187575053Y-52740851D01*
X187567885Y-52739360D01*
X187504120Y-52741085D01*
X187490479Y-52741454D01*
X187487072Y-52741500D01*
X158127070Y-52741500D01*
X158108120Y-52740067D01*
X158093885Y-52737901D01*
X158093881Y-52737901D01*
X158086651Y-52736801D01*
X158079359Y-52737394D01*
X158079356Y-52737394D01*
X158033982Y-52741085D01*
X158023767Y-52741500D01*
X158015707Y-52741500D01*
X158012073Y-52741924D01*
X158012067Y-52741924D01*
X157999042Y-52743443D01*
X157987480Y-52744791D01*
X157983132Y-52745221D01*
X157961059Y-52747016D01*
X157917662Y-52750546D01*
X157917659Y-52750547D01*
X157910364Y-52751140D01*
X157903400Y-52753396D01*
X157897461Y-52754583D01*
X157891590Y-52755970D01*
X157884319Y-52756818D01*
X157877443Y-52759314D01*
X157877434Y-52759316D01*
X157815702Y-52781725D01*
X157811598Y-52783135D01*
X157742101Y-52805648D01*
X157735846Y-52809444D01*
X157730387Y-52811943D01*
X157724939Y-52814671D01*
X157718063Y-52817167D01*
X157657010Y-52857195D01*
X157653337Y-52859513D01*
X157590893Y-52897405D01*
X157582517Y-52904802D01*
X157582493Y-52904775D01*
X157579499Y-52907430D01*
X157576268Y-52910132D01*
X157570148Y-52914144D01*
X157540951Y-52944965D01*
X157516872Y-52970383D01*
X157514494Y-52972825D01*
X157322990Y-53164329D01*
X157260678Y-53198355D01*
X157222913Y-53200755D01*
X157065475Y-53186981D01*
X157060000Y-53186502D01*
X156831913Y-53206457D01*
X156826600Y-53207881D01*
X156826598Y-53207881D01*
X156616067Y-53264293D01*
X156616065Y-53264294D01*
X156610757Y-53265716D01*
X156605776Y-53268039D01*
X156605775Y-53268039D01*
X156408238Y-53360151D01*
X156408233Y-53360154D01*
X156403251Y-53362477D01*
X156316177Y-53423447D01*
X156220211Y-53490643D01*
X156220208Y-53490645D01*
X156215700Y-53493802D01*
X156053802Y-53655700D01*
X156050645Y-53660208D01*
X156050643Y-53660211D01*
X156037756Y-53678616D01*
X155922477Y-53843251D01*
X155920154Y-53848233D01*
X155920151Y-53848238D01*
X155833701Y-54033632D01*
X155825716Y-54050757D01*
X155824294Y-54056065D01*
X155824293Y-54056067D01*
X155768607Y-54263889D01*
X155766457Y-54271913D01*
X155746502Y-54500000D01*
X150753498Y-54500000D01*
X150733543Y-54271913D01*
X150731393Y-54263889D01*
X150675707Y-54056067D01*
X150675706Y-54056065D01*
X150674284Y-54050757D01*
X150666299Y-54033632D01*
X150579849Y-53848238D01*
X150579846Y-53848233D01*
X150577523Y-53843251D01*
X150462244Y-53678616D01*
X150449357Y-53660211D01*
X150449355Y-53660208D01*
X150446198Y-53655700D01*
X150284300Y-53493802D01*
X150279792Y-53490645D01*
X150279789Y-53490643D01*
X150183823Y-53423447D01*
X150096749Y-53362477D01*
X150091767Y-53360154D01*
X150091762Y-53360151D01*
X149894225Y-53268039D01*
X149894224Y-53268039D01*
X149889243Y-53265716D01*
X149883935Y-53264294D01*
X149883933Y-53264293D01*
X149673402Y-53207881D01*
X149673400Y-53207881D01*
X149668087Y-53206457D01*
X149440000Y-53186502D01*
X149434525Y-53186981D01*
X149332260Y-53195928D01*
X149262655Y-53181939D01*
X149232183Y-53159502D01*
X148833770Y-52761089D01*
X148821384Y-52746677D01*
X148812851Y-52735082D01*
X148812846Y-52735077D01*
X148808508Y-52729182D01*
X148802930Y-52724443D01*
X148802927Y-52724440D01*
X148768232Y-52694965D01*
X148760716Y-52688035D01*
X148755021Y-52682340D01*
X148738736Y-52669456D01*
X148732749Y-52664719D01*
X148729345Y-52661928D01*
X148679297Y-52619409D01*
X148679295Y-52619408D01*
X148673715Y-52614667D01*
X148667199Y-52611339D01*
X148662150Y-52607972D01*
X148657021Y-52604805D01*
X148651284Y-52600266D01*
X148585125Y-52569345D01*
X148581225Y-52567439D01*
X148516192Y-52534231D01*
X148509084Y-52532492D01*
X148503441Y-52530393D01*
X148497678Y-52528476D01*
X148491050Y-52525378D01*
X148419583Y-52510513D01*
X148415299Y-52509543D01*
X148344390Y-52492192D01*
X148338788Y-52491844D01*
X148338785Y-52491844D01*
X148333236Y-52491500D01*
X148333238Y-52491464D01*
X148329245Y-52491225D01*
X148325053Y-52490851D01*
X148317885Y-52489360D01*
X148254120Y-52491085D01*
X148240479Y-52491454D01*
X148237072Y-52491500D01*
X121577070Y-52491500D01*
X121558120Y-52490067D01*
X121543885Y-52487901D01*
X121543881Y-52487901D01*
X121536651Y-52486801D01*
X121529359Y-52487394D01*
X121529356Y-52487394D01*
X121483982Y-52491085D01*
X121473767Y-52491500D01*
X121465707Y-52491500D01*
X121462073Y-52491924D01*
X121462067Y-52491924D01*
X121449042Y-52493443D01*
X121437480Y-52494791D01*
X121433132Y-52495221D01*
X121411059Y-52497016D01*
X121367662Y-52500546D01*
X121367659Y-52500547D01*
X121360364Y-52501140D01*
X121353400Y-52503396D01*
X121347461Y-52504583D01*
X121341590Y-52505970D01*
X121334319Y-52506818D01*
X121327443Y-52509314D01*
X121327434Y-52509316D01*
X121265702Y-52531725D01*
X121261598Y-52533135D01*
X121192101Y-52555648D01*
X121185846Y-52559444D01*
X121180387Y-52561943D01*
X121174939Y-52564671D01*
X121168063Y-52567167D01*
X121107010Y-52607195D01*
X121103337Y-52609513D01*
X121040893Y-52647405D01*
X121032517Y-52654802D01*
X121032493Y-52654775D01*
X121029499Y-52657430D01*
X121026268Y-52660132D01*
X121020148Y-52664144D01*
X120990951Y-52694965D01*
X120966872Y-52720383D01*
X120964494Y-52722825D01*
X120021089Y-53666230D01*
X120006677Y-53678616D01*
X119995082Y-53687149D01*
X119995077Y-53687154D01*
X119989182Y-53691492D01*
X119984443Y-53697070D01*
X119984440Y-53697073D01*
X119954965Y-53731768D01*
X119948035Y-53739284D01*
X119942340Y-53744979D01*
X119940060Y-53747861D01*
X119924719Y-53767251D01*
X119921928Y-53770655D01*
X119904638Y-53791007D01*
X119874667Y-53826285D01*
X119871339Y-53832801D01*
X119867972Y-53837850D01*
X119864805Y-53842979D01*
X119860266Y-53848716D01*
X119829345Y-53914875D01*
X119827442Y-53918769D01*
X119794231Y-53983808D01*
X119792492Y-53990916D01*
X119790393Y-53996559D01*
X119788476Y-54002322D01*
X119785378Y-54008950D01*
X119783888Y-54016112D01*
X119783888Y-54016113D01*
X119770514Y-54080412D01*
X119769544Y-54084696D01*
X119752192Y-54155610D01*
X119751500Y-54166764D01*
X119751464Y-54166762D01*
X119751225Y-54170755D01*
X119750851Y-54174947D01*
X119749360Y-54182115D01*
X119750304Y-54217012D01*
X119751454Y-54259521D01*
X119751500Y-54262928D01*
X119751500Y-54418133D01*
X119731498Y-54486254D01*
X119697772Y-54521345D01*
X119665700Y-54543802D01*
X119503802Y-54705700D01*
X119500645Y-54710208D01*
X119500643Y-54710211D01*
X119470681Y-54753002D01*
X119372477Y-54893251D01*
X119370154Y-54898233D01*
X119370151Y-54898238D01*
X119354195Y-54932457D01*
X119307278Y-54985742D01*
X119239001Y-55005203D01*
X119171041Y-54984661D01*
X119125805Y-54932457D01*
X119109849Y-54898238D01*
X119109846Y-54898233D01*
X119107523Y-54893251D01*
X119009319Y-54753002D01*
X118979357Y-54710211D01*
X118979355Y-54710208D01*
X118976198Y-54705700D01*
X118814300Y-54543802D01*
X118809792Y-54540645D01*
X118809789Y-54540643D01*
X118691348Y-54457710D01*
X118626749Y-54412477D01*
X118621767Y-54410154D01*
X118621762Y-54410151D01*
X118424225Y-54318039D01*
X118424224Y-54318039D01*
X118419243Y-54315716D01*
X118413935Y-54314294D01*
X118413933Y-54314293D01*
X118203402Y-54257881D01*
X118203400Y-54257881D01*
X118198087Y-54256457D01*
X117970000Y-54236502D01*
X117741913Y-54256457D01*
X117736600Y-54257881D01*
X117736598Y-54257881D01*
X117526067Y-54314293D01*
X117526065Y-54314294D01*
X117520757Y-54315716D01*
X117515776Y-54318039D01*
X117515775Y-54318039D01*
X117318238Y-54410151D01*
X117318233Y-54410154D01*
X117313251Y-54412477D01*
X117248652Y-54457710D01*
X117130211Y-54540643D01*
X117130208Y-54540645D01*
X117125700Y-54543802D01*
X116963802Y-54705700D01*
X116960645Y-54710208D01*
X116960643Y-54710211D01*
X116930681Y-54753002D01*
X116832477Y-54893251D01*
X116830154Y-54898233D01*
X116830151Y-54898238D01*
X116748277Y-55073819D01*
X116735716Y-55100757D01*
X116734294Y-55106065D01*
X116734293Y-55106067D01*
X116688532Y-55276849D01*
X116676457Y-55321913D01*
X116661500Y-55492873D01*
X116661500Y-56007127D01*
X116661738Y-56009844D01*
X116661738Y-56009851D01*
X116663681Y-56032061D01*
X116676457Y-56178087D01*
X116677881Y-56183400D01*
X116677881Y-56183402D01*
X116716690Y-56328236D01*
X116735716Y-56399243D01*
X116738039Y-56404224D01*
X116738039Y-56404225D01*
X116830151Y-56601762D01*
X116830154Y-56601767D01*
X116832477Y-56606749D01*
X116903291Y-56707881D01*
X116960281Y-56789271D01*
X116963802Y-56794300D01*
X117125700Y-56956198D01*
X117130208Y-56959355D01*
X117130211Y-56959357D01*
X117171536Y-56988293D01*
X117313251Y-57087523D01*
X117318233Y-57089846D01*
X117318238Y-57089849D01*
X117472636Y-57161845D01*
X117520757Y-57184284D01*
X117526065Y-57185706D01*
X117526067Y-57185707D01*
X117736598Y-57242119D01*
X117736600Y-57242119D01*
X117741913Y-57243543D01*
X117970000Y-57263498D01*
X118198087Y-57243543D01*
X118203400Y-57242119D01*
X118203402Y-57242119D01*
X118413933Y-57185707D01*
X118413935Y-57185706D01*
X118419243Y-57184284D01*
X118467364Y-57161845D01*
X118621762Y-57089849D01*
X118621767Y-57089846D01*
X118626749Y-57087523D01*
X118768464Y-56988293D01*
X118809789Y-56959357D01*
X118809792Y-56959355D01*
X118814300Y-56956198D01*
X118976198Y-56794300D01*
X118979720Y-56789271D01*
X119036709Y-56707881D01*
X119107523Y-56606749D01*
X119109846Y-56601767D01*
X119109849Y-56601762D01*
X119125805Y-56567543D01*
X119172722Y-56514258D01*
X119240999Y-56494797D01*
X119308959Y-56515339D01*
X119354195Y-56567543D01*
X119370151Y-56601762D01*
X119370154Y-56601767D01*
X119372477Y-56606749D01*
X119443291Y-56707881D01*
X119500281Y-56789271D01*
X119503802Y-56794300D01*
X119665700Y-56956198D01*
X119670208Y-56959355D01*
X119670211Y-56959357D01*
X119711536Y-56988293D01*
X119853251Y-57087523D01*
X119858233Y-57089846D01*
X119858238Y-57089849D01*
X120012636Y-57161845D01*
X120060757Y-57184284D01*
X120066065Y-57185706D01*
X120066067Y-57185707D01*
X120276598Y-57242119D01*
X120276600Y-57242119D01*
X120281913Y-57243543D01*
X120510000Y-57263498D01*
X120738087Y-57243543D01*
X120743400Y-57242119D01*
X120743402Y-57242119D01*
X120953933Y-57185707D01*
X120953935Y-57185706D01*
X120959243Y-57184284D01*
X121007364Y-57161845D01*
X121161762Y-57089849D01*
X121161767Y-57089846D01*
X121166749Y-57087523D01*
X121308464Y-56988293D01*
X121349789Y-56959357D01*
X121349792Y-56959355D01*
X121354300Y-56956198D01*
X121516198Y-56794300D01*
X121519720Y-56789271D01*
X121576709Y-56707881D01*
X121647523Y-56606749D01*
X121649846Y-56601767D01*
X121649849Y-56601762D01*
X121665805Y-56567543D01*
X121712722Y-56514258D01*
X121780999Y-56494797D01*
X121848959Y-56515339D01*
X121894195Y-56567543D01*
X121910151Y-56601762D01*
X121910154Y-56601767D01*
X121912477Y-56606749D01*
X121983291Y-56707881D01*
X122040281Y-56789271D01*
X122043802Y-56794300D01*
X122205700Y-56956198D01*
X122210208Y-56959355D01*
X122210211Y-56959357D01*
X122251536Y-56988293D01*
X122393251Y-57087523D01*
X122398233Y-57089846D01*
X122398238Y-57089849D01*
X122552636Y-57161845D01*
X122600757Y-57184284D01*
X122606065Y-57185706D01*
X122606067Y-57185707D01*
X122816598Y-57242119D01*
X122816600Y-57242119D01*
X122821913Y-57243543D01*
X123050000Y-57263498D01*
X123278087Y-57243543D01*
X123283400Y-57242119D01*
X123283402Y-57242119D01*
X123493933Y-57185707D01*
X123493935Y-57185706D01*
X123499243Y-57184284D01*
X123547364Y-57161845D01*
X123701762Y-57089849D01*
X123701767Y-57089846D01*
X123706749Y-57087523D01*
X123848464Y-56988293D01*
X123889789Y-56959357D01*
X123889792Y-56959355D01*
X123894300Y-56956198D01*
X124056198Y-56794300D01*
X124059720Y-56789271D01*
X124116709Y-56707881D01*
X124187523Y-56606749D01*
X124189846Y-56601767D01*
X124189849Y-56601762D01*
X124205805Y-56567543D01*
X124252722Y-56514258D01*
X124320999Y-56494797D01*
X124388959Y-56515339D01*
X124434195Y-56567543D01*
X124450151Y-56601762D01*
X124450154Y-56601767D01*
X124452477Y-56606749D01*
X124523291Y-56707881D01*
X124580281Y-56789271D01*
X124583802Y-56794300D01*
X124745700Y-56956198D01*
X124750208Y-56959355D01*
X124750211Y-56959357D01*
X124791536Y-56988293D01*
X124933251Y-57087523D01*
X124938233Y-57089846D01*
X124938238Y-57089849D01*
X125092636Y-57161845D01*
X125140757Y-57184284D01*
X125146065Y-57185706D01*
X125146067Y-57185707D01*
X125356598Y-57242119D01*
X125356600Y-57242119D01*
X125361913Y-57243543D01*
X125590000Y-57263498D01*
X125818087Y-57243543D01*
X125823400Y-57242119D01*
X125823402Y-57242119D01*
X126033933Y-57185707D01*
X126033935Y-57185706D01*
X126039243Y-57184284D01*
X126087364Y-57161845D01*
X126241762Y-57089849D01*
X126241767Y-57089846D01*
X126246749Y-57087523D01*
X126388464Y-56988293D01*
X126429789Y-56959357D01*
X126429792Y-56959355D01*
X126434300Y-56956198D01*
X126596198Y-56794300D01*
X126599720Y-56789271D01*
X126656709Y-56707881D01*
X126727523Y-56606749D01*
X126729846Y-56601767D01*
X126729849Y-56601762D01*
X126745805Y-56567543D01*
X126792722Y-56514258D01*
X126860999Y-56494797D01*
X126928959Y-56515339D01*
X126974195Y-56567543D01*
X126990151Y-56601762D01*
X126990154Y-56601767D01*
X126992477Y-56606749D01*
X127063291Y-56707881D01*
X127120281Y-56789271D01*
X127123802Y-56794300D01*
X127285700Y-56956198D01*
X127290208Y-56959355D01*
X127290211Y-56959357D01*
X127331536Y-56988293D01*
X127473251Y-57087523D01*
X127478233Y-57089846D01*
X127478238Y-57089849D01*
X127632636Y-57161845D01*
X127680757Y-57184284D01*
X127686065Y-57185706D01*
X127686067Y-57185707D01*
X127896598Y-57242119D01*
X127896600Y-57242119D01*
X127901913Y-57243543D01*
X128130000Y-57263498D01*
X128358087Y-57243543D01*
X128363400Y-57242119D01*
X128363402Y-57242119D01*
X128573933Y-57185707D01*
X128573935Y-57185706D01*
X128579243Y-57184284D01*
X128627364Y-57161845D01*
X128781762Y-57089849D01*
X128781767Y-57089846D01*
X128786749Y-57087523D01*
X128928464Y-56988293D01*
X128969789Y-56959357D01*
X128969792Y-56959355D01*
X128974300Y-56956198D01*
X129136198Y-56794300D01*
X129139720Y-56789271D01*
X129196709Y-56707881D01*
X129267523Y-56606749D01*
X129269846Y-56601767D01*
X129269849Y-56601762D01*
X129285805Y-56567543D01*
X129332722Y-56514258D01*
X129400999Y-56494797D01*
X129468959Y-56515339D01*
X129514195Y-56567543D01*
X129530151Y-56601762D01*
X129530154Y-56601767D01*
X129532477Y-56606749D01*
X129603291Y-56707881D01*
X129660281Y-56789271D01*
X129663802Y-56794300D01*
X129825700Y-56956198D01*
X129830208Y-56959355D01*
X129830211Y-56959357D01*
X129871536Y-56988293D01*
X130013251Y-57087523D01*
X130018233Y-57089846D01*
X130018238Y-57089849D01*
X130172636Y-57161845D01*
X130220757Y-57184284D01*
X130226065Y-57185706D01*
X130226067Y-57185707D01*
X130436598Y-57242119D01*
X130436600Y-57242119D01*
X130441913Y-57243543D01*
X130670000Y-57263498D01*
X130898087Y-57243543D01*
X130903400Y-57242119D01*
X130903402Y-57242119D01*
X131113933Y-57185707D01*
X131113935Y-57185706D01*
X131119243Y-57184284D01*
X131167364Y-57161845D01*
X131321762Y-57089849D01*
X131321767Y-57089846D01*
X131326749Y-57087523D01*
X131468464Y-56988293D01*
X131509789Y-56959357D01*
X131509792Y-56959355D01*
X131514300Y-56956198D01*
X131676198Y-56794300D01*
X131679720Y-56789271D01*
X131736709Y-56707881D01*
X131807523Y-56606749D01*
X131809846Y-56601767D01*
X131809849Y-56601762D01*
X131825805Y-56567543D01*
X131872722Y-56514258D01*
X131940999Y-56494797D01*
X132008959Y-56515339D01*
X132054195Y-56567543D01*
X132070151Y-56601762D01*
X132070154Y-56601767D01*
X132072477Y-56606749D01*
X132143291Y-56707881D01*
X132200281Y-56789271D01*
X132203802Y-56794300D01*
X132365700Y-56956198D01*
X132370208Y-56959355D01*
X132370211Y-56959357D01*
X132411536Y-56988293D01*
X132553251Y-57087523D01*
X132558233Y-57089846D01*
X132558238Y-57089849D01*
X132712636Y-57161845D01*
X132760757Y-57184284D01*
X132766065Y-57185706D01*
X132766067Y-57185707D01*
X132976598Y-57242119D01*
X132976600Y-57242119D01*
X132981913Y-57243543D01*
X133210000Y-57263498D01*
X133438087Y-57243543D01*
X133443400Y-57242119D01*
X133443402Y-57242119D01*
X133653933Y-57185707D01*
X133653935Y-57185706D01*
X133659243Y-57184284D01*
X133707364Y-57161845D01*
X133861762Y-57089849D01*
X133861767Y-57089846D01*
X133866749Y-57087523D01*
X134008464Y-56988293D01*
X134049789Y-56959357D01*
X134049792Y-56959355D01*
X134054300Y-56956198D01*
X134083133Y-56927365D01*
X134145445Y-56893339D01*
X134216260Y-56898404D01*
X134273096Y-56940951D01*
X134290210Y-56972232D01*
X134299385Y-56996705D01*
X134386739Y-57113261D01*
X134503295Y-57200615D01*
X134639684Y-57251745D01*
X134701866Y-57258500D01*
X136798134Y-57258500D01*
X136860316Y-57251745D01*
X136996705Y-57200615D01*
X137048437Y-57161844D01*
X137114941Y-57136997D01*
X137184323Y-57152050D01*
X137234554Y-57202223D01*
X137250000Y-57262671D01*
X137250000Y-77995356D01*
X137229998Y-78063477D01*
X137176342Y-78109970D01*
X137106068Y-78120074D01*
X137041488Y-78090580D01*
X137002293Y-78027967D01*
X136985707Y-77966067D01*
X136985706Y-77966065D01*
X136984284Y-77960757D01*
X136967642Y-77925067D01*
X136889849Y-77758238D01*
X136889846Y-77758233D01*
X136887523Y-77753251D01*
X136784643Y-77606323D01*
X136759357Y-77570211D01*
X136759355Y-77570208D01*
X136756198Y-77565700D01*
X136594300Y-77403802D01*
X136589792Y-77400645D01*
X136589789Y-77400643D01*
X136499161Y-77337185D01*
X136406749Y-77272477D01*
X136401767Y-77270154D01*
X136401762Y-77270151D01*
X136204225Y-77178039D01*
X136204224Y-77178039D01*
X136199243Y-77175716D01*
X136193935Y-77174294D01*
X136193933Y-77174293D01*
X135983402Y-77117881D01*
X135983400Y-77117881D01*
X135978087Y-77116457D01*
X135750000Y-77096502D01*
X135521913Y-77116457D01*
X135516600Y-77117881D01*
X135516598Y-77117881D01*
X135306067Y-77174293D01*
X135306065Y-77174294D01*
X135300757Y-77175716D01*
X135295776Y-77178039D01*
X135295775Y-77178039D01*
X135098238Y-77270151D01*
X135098233Y-77270154D01*
X135093251Y-77272477D01*
X135000839Y-77337185D01*
X134910211Y-77400643D01*
X134910208Y-77400645D01*
X134905700Y-77403802D01*
X134743802Y-77565700D01*
X134740645Y-77570208D01*
X134740643Y-77570211D01*
X134715357Y-77606323D01*
X134612477Y-77753251D01*
X134610154Y-77758233D01*
X134610151Y-77758238D01*
X134594195Y-77792457D01*
X134547278Y-77845742D01*
X134479001Y-77865203D01*
X134411041Y-77844661D01*
X134365805Y-77792457D01*
X134349849Y-77758238D01*
X134349846Y-77758233D01*
X134347523Y-77753251D01*
X134244643Y-77606323D01*
X134219357Y-77570211D01*
X134219355Y-77570208D01*
X134216198Y-77565700D01*
X134054300Y-77403802D01*
X134049792Y-77400645D01*
X134049789Y-77400643D01*
X133959161Y-77337185D01*
X133866749Y-77272477D01*
X133861767Y-77270154D01*
X133861762Y-77270151D01*
X133664225Y-77178039D01*
X133664224Y-77178039D01*
X133659243Y-77175716D01*
X133653935Y-77174294D01*
X133653933Y-77174293D01*
X133443402Y-77117881D01*
X133443400Y-77117881D01*
X133438087Y-77116457D01*
X133210000Y-77096502D01*
X132981913Y-77116457D01*
X132976600Y-77117881D01*
X132976598Y-77117881D01*
X132766067Y-77174293D01*
X132766065Y-77174294D01*
X132760757Y-77175716D01*
X132755776Y-77178039D01*
X132755775Y-77178039D01*
X132558238Y-77270151D01*
X132558233Y-77270154D01*
X132553251Y-77272477D01*
X132460839Y-77337185D01*
X132370211Y-77400643D01*
X132370208Y-77400645D01*
X132365700Y-77403802D01*
X132203802Y-77565700D01*
X132200645Y-77570208D01*
X132200643Y-77570211D01*
X132175357Y-77606323D01*
X132072477Y-77753251D01*
X132070154Y-77758233D01*
X132070151Y-77758238D01*
X132054195Y-77792457D01*
X132007278Y-77845742D01*
X131939001Y-77865203D01*
X131871041Y-77844661D01*
X131825805Y-77792457D01*
X131809849Y-77758238D01*
X131809846Y-77758233D01*
X131807523Y-77753251D01*
X131704643Y-77606323D01*
X131679357Y-77570211D01*
X131679355Y-77570208D01*
X131676198Y-77565700D01*
X131514300Y-77403802D01*
X131509792Y-77400645D01*
X131509789Y-77400643D01*
X131419161Y-77337185D01*
X131326749Y-77272477D01*
X131321767Y-77270154D01*
X131321762Y-77270151D01*
X131124225Y-77178039D01*
X131124224Y-77178039D01*
X131119243Y-77175716D01*
X131113935Y-77174294D01*
X131113933Y-77174293D01*
X130903402Y-77117881D01*
X130903400Y-77117881D01*
X130898087Y-77116457D01*
X130670000Y-77096502D01*
X130441913Y-77116457D01*
X130436600Y-77117881D01*
X130436598Y-77117881D01*
X130226067Y-77174293D01*
X130226065Y-77174294D01*
X130220757Y-77175716D01*
X130215776Y-77178039D01*
X130215775Y-77178039D01*
X130018238Y-77270151D01*
X130018233Y-77270154D01*
X130013251Y-77272477D01*
X129920839Y-77337185D01*
X129830211Y-77400643D01*
X129830208Y-77400645D01*
X129825700Y-77403802D01*
X129663802Y-77565700D01*
X129660645Y-77570208D01*
X129660643Y-77570211D01*
X129635357Y-77606323D01*
X129532477Y-77753251D01*
X129530154Y-77758233D01*
X129530151Y-77758238D01*
X129514195Y-77792457D01*
X129467278Y-77845742D01*
X129399001Y-77865203D01*
X129331041Y-77844661D01*
X129285805Y-77792457D01*
X129269849Y-77758238D01*
X129269846Y-77758233D01*
X129267523Y-77753251D01*
X129164643Y-77606323D01*
X129139357Y-77570211D01*
X129139355Y-77570208D01*
X129136198Y-77565700D01*
X128974300Y-77403802D01*
X128969792Y-77400645D01*
X128969789Y-77400643D01*
X128879161Y-77337185D01*
X128786749Y-77272477D01*
X128781767Y-77270154D01*
X128781762Y-77270151D01*
X128584225Y-77178039D01*
X128584224Y-77178039D01*
X128579243Y-77175716D01*
X128573935Y-77174294D01*
X128573933Y-77174293D01*
X128363402Y-77117881D01*
X128363400Y-77117881D01*
X128358087Y-77116457D01*
X128130000Y-77096502D01*
X127901913Y-77116457D01*
X127896600Y-77117881D01*
X127896598Y-77117881D01*
X127686067Y-77174293D01*
X127686065Y-77174294D01*
X127680757Y-77175716D01*
X127675776Y-77178039D01*
X127675775Y-77178039D01*
X127478238Y-77270151D01*
X127478233Y-77270154D01*
X127473251Y-77272477D01*
X127380839Y-77337185D01*
X127290211Y-77400643D01*
X127290208Y-77400645D01*
X127285700Y-77403802D01*
X127123802Y-77565700D01*
X127120645Y-77570208D01*
X127120643Y-77570211D01*
X127095357Y-77606323D01*
X126992477Y-77753251D01*
X126990154Y-77758233D01*
X126990151Y-77758238D01*
X126974195Y-77792457D01*
X126927278Y-77845742D01*
X126859001Y-77865203D01*
X126791041Y-77844661D01*
X126745805Y-77792457D01*
X126729849Y-77758238D01*
X126729846Y-77758233D01*
X126727523Y-77753251D01*
X126624643Y-77606323D01*
X126599357Y-77570211D01*
X126599355Y-77570208D01*
X126596198Y-77565700D01*
X126434300Y-77403802D01*
X126429792Y-77400645D01*
X126429789Y-77400643D01*
X126339161Y-77337185D01*
X126246749Y-77272477D01*
X126241767Y-77270154D01*
X126241762Y-77270151D01*
X126044225Y-77178039D01*
X126044224Y-77178039D01*
X126039243Y-77175716D01*
X126033935Y-77174294D01*
X126033933Y-77174293D01*
X125823402Y-77117881D01*
X125823400Y-77117881D01*
X125818087Y-77116457D01*
X125590000Y-77096502D01*
X125361913Y-77116457D01*
X125356600Y-77117881D01*
X125356598Y-77117881D01*
X125146067Y-77174293D01*
X125146065Y-77174294D01*
X125140757Y-77175716D01*
X125135776Y-77178039D01*
X125135775Y-77178039D01*
X124938238Y-77270151D01*
X124938233Y-77270154D01*
X124933251Y-77272477D01*
X124840839Y-77337185D01*
X124750211Y-77400643D01*
X124750208Y-77400645D01*
X124745700Y-77403802D01*
X124583802Y-77565700D01*
X124580645Y-77570208D01*
X124580643Y-77570211D01*
X124555357Y-77606323D01*
X124452477Y-77753251D01*
X124450154Y-77758233D01*
X124450151Y-77758238D01*
X124434195Y-77792457D01*
X124387278Y-77845742D01*
X124319001Y-77865203D01*
X124251041Y-77844661D01*
X124205805Y-77792457D01*
X124189849Y-77758238D01*
X124189846Y-77758233D01*
X124187523Y-77753251D01*
X124084643Y-77606323D01*
X124059357Y-77570211D01*
X124059355Y-77570208D01*
X124056198Y-77565700D01*
X123894300Y-77403802D01*
X123889792Y-77400645D01*
X123889789Y-77400643D01*
X123799161Y-77337185D01*
X123706749Y-77272477D01*
X123701767Y-77270154D01*
X123701762Y-77270151D01*
X123504225Y-77178039D01*
X123504224Y-77178039D01*
X123499243Y-77175716D01*
X123493935Y-77174294D01*
X123493933Y-77174293D01*
X123283402Y-77117881D01*
X123283400Y-77117881D01*
X123278087Y-77116457D01*
X123050000Y-77096502D01*
X122821913Y-77116457D01*
X122816600Y-77117881D01*
X122816598Y-77117881D01*
X122606067Y-77174293D01*
X122606065Y-77174294D01*
X122600757Y-77175716D01*
X122595776Y-77178039D01*
X122595775Y-77178039D01*
X122398238Y-77270151D01*
X122398233Y-77270154D01*
X122393251Y-77272477D01*
X122300839Y-77337185D01*
X122210211Y-77400643D01*
X122210208Y-77400645D01*
X122205700Y-77403802D01*
X122043802Y-77565700D01*
X122040645Y-77570208D01*
X122040643Y-77570211D01*
X122015357Y-77606323D01*
X121912477Y-77753251D01*
X121910154Y-77758233D01*
X121910151Y-77758238D01*
X121893919Y-77793049D01*
X121847002Y-77846334D01*
X121778725Y-77865795D01*
X121710765Y-77845253D01*
X121665529Y-77793049D01*
X121649414Y-77758489D01*
X121643931Y-77748993D01*
X121518972Y-77570533D01*
X121511916Y-77562125D01*
X121357875Y-77408084D01*
X121349467Y-77401028D01*
X121171007Y-77276069D01*
X121161511Y-77270586D01*
X120964053Y-77178510D01*
X120953761Y-77174764D01*
X120781497Y-77128606D01*
X120767401Y-77128942D01*
X120764000Y-77136884D01*
X120764000Y-80077967D01*
X120767973Y-80091498D01*
X120776522Y-80092727D01*
X120953761Y-80045236D01*
X120964053Y-80041490D01*
X121161511Y-79949414D01*
X121171007Y-79943931D01*
X121349467Y-79818972D01*
X121357875Y-79811916D01*
X121511916Y-79657875D01*
X121518972Y-79649467D01*
X121643931Y-79471007D01*
X121649414Y-79461511D01*
X121665529Y-79426951D01*
X121712446Y-79373666D01*
X121780723Y-79354205D01*
X121848683Y-79374747D01*
X121893919Y-79426951D01*
X121910151Y-79461762D01*
X121910154Y-79461767D01*
X121912477Y-79466749D01*
X121951660Y-79522708D01*
X122039529Y-79648197D01*
X122043802Y-79654300D01*
X122205700Y-79816198D01*
X122210208Y-79819355D01*
X122210211Y-79819357D01*
X122288389Y-79874098D01*
X122393251Y-79947523D01*
X122398233Y-79949846D01*
X122398238Y-79949849D01*
X122582363Y-80035707D01*
X122600757Y-80044284D01*
X122606065Y-80045706D01*
X122606067Y-80045707D01*
X122816598Y-80102119D01*
X122816600Y-80102119D01*
X122821913Y-80103543D01*
X123050000Y-80123498D01*
X123278087Y-80103543D01*
X123283400Y-80102119D01*
X123283402Y-80102119D01*
X123493933Y-80045707D01*
X123493935Y-80045706D01*
X123499243Y-80044284D01*
X123517637Y-80035707D01*
X123701762Y-79949849D01*
X123701767Y-79949846D01*
X123706749Y-79947523D01*
X123811611Y-79874098D01*
X123889789Y-79819357D01*
X123889792Y-79819355D01*
X123894300Y-79816198D01*
X124056198Y-79654300D01*
X124060472Y-79648197D01*
X124148340Y-79522708D01*
X124187523Y-79466749D01*
X124189846Y-79461767D01*
X124189849Y-79461762D01*
X124205805Y-79427543D01*
X124252722Y-79374258D01*
X124320999Y-79354797D01*
X124388959Y-79375339D01*
X124434195Y-79427543D01*
X124450151Y-79461762D01*
X124450154Y-79461767D01*
X124452477Y-79466749D01*
X124491660Y-79522708D01*
X124579529Y-79648197D01*
X124583802Y-79654300D01*
X124745700Y-79816198D01*
X124750208Y-79819355D01*
X124750211Y-79819357D01*
X124828389Y-79874098D01*
X124933251Y-79947523D01*
X124938233Y-79949846D01*
X124938238Y-79949849D01*
X125122363Y-80035707D01*
X125140757Y-80044284D01*
X125146065Y-80045706D01*
X125146067Y-80045707D01*
X125356598Y-80102119D01*
X125356600Y-80102119D01*
X125361913Y-80103543D01*
X125590000Y-80123498D01*
X125818087Y-80103543D01*
X125823400Y-80102119D01*
X125823402Y-80102119D01*
X126033933Y-80045707D01*
X126033935Y-80045706D01*
X126039243Y-80044284D01*
X126057637Y-80035707D01*
X126241762Y-79949849D01*
X126241767Y-79949846D01*
X126246749Y-79947523D01*
X126351611Y-79874098D01*
X126429789Y-79819357D01*
X126429792Y-79819355D01*
X126434300Y-79816198D01*
X126596198Y-79654300D01*
X126600472Y-79648197D01*
X126688340Y-79522708D01*
X126727523Y-79466749D01*
X126729846Y-79461767D01*
X126729849Y-79461762D01*
X126745805Y-79427543D01*
X126792722Y-79374258D01*
X126860999Y-79354797D01*
X126928959Y-79375339D01*
X126974195Y-79427543D01*
X126990151Y-79461762D01*
X126990154Y-79461767D01*
X126992477Y-79466749D01*
X127031660Y-79522708D01*
X127119529Y-79648197D01*
X127123802Y-79654300D01*
X127285700Y-79816198D01*
X127290208Y-79819355D01*
X127290211Y-79819357D01*
X127368389Y-79874098D01*
X127473251Y-79947523D01*
X127478233Y-79949846D01*
X127478238Y-79949849D01*
X127662363Y-80035707D01*
X127680757Y-80044284D01*
X127686065Y-80045706D01*
X127686067Y-80045707D01*
X127896598Y-80102119D01*
X127896600Y-80102119D01*
X127901913Y-80103543D01*
X128130000Y-80123498D01*
X128135475Y-80123019D01*
X128135476Y-80123019D01*
X128352685Y-80104016D01*
X128422289Y-80118005D01*
X128452761Y-80140442D01*
X130088724Y-81776405D01*
X130122750Y-81838717D01*
X130117685Y-81909532D01*
X130075138Y-81966368D01*
X130008618Y-81991179D01*
X129999629Y-81991500D01*
X113134500Y-81991500D01*
X113066379Y-81971498D01*
X113019886Y-81917842D01*
X113008500Y-81865500D01*
X113008500Y-78867127D01*
X116661500Y-78867127D01*
X116661738Y-78869844D01*
X116661738Y-78869851D01*
X116667746Y-78938520D01*
X116676457Y-79038087D01*
X116677881Y-79043400D01*
X116677881Y-79043402D01*
X116731614Y-79243933D01*
X116735716Y-79259243D01*
X116738039Y-79264224D01*
X116738039Y-79264225D01*
X116830151Y-79461762D01*
X116830154Y-79461767D01*
X116832477Y-79466749D01*
X116871660Y-79522708D01*
X116959529Y-79648197D01*
X116963802Y-79654300D01*
X117125700Y-79816198D01*
X117130208Y-79819355D01*
X117130211Y-79819357D01*
X117208389Y-79874098D01*
X117313251Y-79947523D01*
X117318233Y-79949846D01*
X117318238Y-79949849D01*
X117502363Y-80035707D01*
X117520757Y-80044284D01*
X117526065Y-80045706D01*
X117526067Y-80045707D01*
X117736598Y-80102119D01*
X117736600Y-80102119D01*
X117741913Y-80103543D01*
X117970000Y-80123498D01*
X118198087Y-80103543D01*
X118203400Y-80102119D01*
X118203402Y-80102119D01*
X118413933Y-80045707D01*
X118413935Y-80045706D01*
X118419243Y-80044284D01*
X118437637Y-80035707D01*
X118621762Y-79949849D01*
X118621767Y-79949846D01*
X118626749Y-79947523D01*
X118731611Y-79874098D01*
X118809789Y-79819357D01*
X118809792Y-79819355D01*
X118814300Y-79816198D01*
X118976198Y-79654300D01*
X118980472Y-79648197D01*
X119068340Y-79522708D01*
X119107523Y-79466749D01*
X119109846Y-79461767D01*
X119109849Y-79461762D01*
X119126081Y-79426951D01*
X119172998Y-79373666D01*
X119241275Y-79354205D01*
X119309235Y-79374747D01*
X119354471Y-79426951D01*
X119370586Y-79461511D01*
X119376069Y-79471007D01*
X119501028Y-79649467D01*
X119508084Y-79657875D01*
X119662125Y-79811916D01*
X119670533Y-79818972D01*
X119848993Y-79943931D01*
X119858489Y-79949414D01*
X120055947Y-80041490D01*
X120066239Y-80045236D01*
X120238503Y-80091394D01*
X120252599Y-80091058D01*
X120256000Y-80083116D01*
X120256000Y-77142033D01*
X120252027Y-77128502D01*
X120243478Y-77127273D01*
X120066239Y-77174764D01*
X120055947Y-77178510D01*
X119858489Y-77270586D01*
X119848993Y-77276069D01*
X119670533Y-77401028D01*
X119662125Y-77408084D01*
X119508084Y-77562125D01*
X119501028Y-77570533D01*
X119376069Y-77748993D01*
X119370586Y-77758489D01*
X119354471Y-77793049D01*
X119307554Y-77846334D01*
X119239277Y-77865795D01*
X119171317Y-77845253D01*
X119126081Y-77793049D01*
X119109849Y-77758238D01*
X119109846Y-77758233D01*
X119107523Y-77753251D01*
X119004643Y-77606323D01*
X118979357Y-77570211D01*
X118979355Y-77570208D01*
X118976198Y-77565700D01*
X118814300Y-77403802D01*
X118809792Y-77400645D01*
X118809789Y-77400643D01*
X118719161Y-77337185D01*
X118626749Y-77272477D01*
X118621767Y-77270154D01*
X118621762Y-77270151D01*
X118424225Y-77178039D01*
X118424224Y-77178039D01*
X118419243Y-77175716D01*
X118413935Y-77174294D01*
X118413933Y-77174293D01*
X118203402Y-77117881D01*
X118203400Y-77117881D01*
X118198087Y-77116457D01*
X117970000Y-77096502D01*
X117741913Y-77116457D01*
X117736600Y-77117881D01*
X117736598Y-77117881D01*
X117526067Y-77174293D01*
X117526065Y-77174294D01*
X117520757Y-77175716D01*
X117515776Y-77178039D01*
X117515775Y-77178039D01*
X117318238Y-77270151D01*
X117318233Y-77270154D01*
X117313251Y-77272477D01*
X117220839Y-77337185D01*
X117130211Y-77400643D01*
X117130208Y-77400645D01*
X117125700Y-77403802D01*
X116963802Y-77565700D01*
X116960645Y-77570208D01*
X116960643Y-77570211D01*
X116935357Y-77606323D01*
X116832477Y-77753251D01*
X116830154Y-77758233D01*
X116830151Y-77758238D01*
X116752358Y-77925067D01*
X116735716Y-77960757D01*
X116734294Y-77966065D01*
X116734293Y-77966067D01*
X116683166Y-78156876D01*
X116676457Y-78181913D01*
X116669163Y-78265282D01*
X116661818Y-78349243D01*
X116661500Y-78352873D01*
X116661500Y-78867127D01*
X113008500Y-78867127D01*
X113008500Y-52134500D01*
X113028502Y-52066379D01*
X113082158Y-52019886D01*
X113134500Y-52008500D01*
X190217519Y-52008500D01*
X190285640Y-52028502D01*
G37*
%TD.AperFunction*%
%TD*%
M02*
